<?xml version="1.0" encoding="UTF-8" standalone="no"?>
<!-- Generator: Adobe Illustrator 14.0.0, SVG Export Plug-In . SVG Version: 6.00 Build 43363)  -->

<svg
   xmlns:i="http://ns.adobe.com/AdobeIllustrator/10.0/"
   xmlns:dc="http://purl.org/dc/elements/1.1/"
   xmlns:cc="http://creativecommons.org/ns#"
   xmlns:rdf="http://www.w3.org/1999/02/22-rdf-syntax-ns#"
   xmlns:svg="http://www.w3.org/2000/svg"
   xmlns="http://www.w3.org/2000/svg"
   xmlns:sodipodi="http://sodipodi.sourceforge.net/DTD/sodipodi-0.dtd"
   xmlns:inkscape="http://www.inkscape.org/namespaces/inkscape"
   version="1.1"
   id="Layer_1"
   x="0px"
   y="0px"
   width="30px"
   height="45px"
   viewBox="0 0 30 45"
   enable-background="new 0 0 30 45"
   xml:space="preserve"
   inkscape:version="0.48.2 r9819"
   sodipodi:docname="drag_up.svg"><metadata
   id="metadata17"><rdf:RDF><cc:Work
       rdf:about=""><dc:format>image/svg+xml</dc:format><dc:type
         rdf:resource="http://purl.org/dc/dcmitype/StillImage" /></cc:Work></rdf:RDF></metadata><defs
   id="defs15" /><sodipodi:namedview
   pagecolor="#ffffff"
   bordercolor="#666666"
   borderopacity="1"
   objecttolerance="10"
   gridtolerance="10"
   guidetolerance="10"
   inkscape:pageopacity="0"
   inkscape:pageshadow="2"
   inkscape:window-width="640"
   inkscape:window-height="480"
   id="namedview13"
   showgrid="false"
   inkscape:zoom="5.2444444"
   inkscape:cx="15"
   inkscape:cy="37.754237"
   inkscape:window-x="0"
   inkscape:window-y="0"
   inkscape:window-maximized="0"
   inkscape:current-layer="Layer_1" />
	<g
   i:extraneous="self"
   id="g3"
   transform="translate(0,-15)">
		<g
   id="g5">
			<polygon
   points="14,3.36 14,10 16,10 16,3.361 20,6.562 20,4 14.999,0 10,4 10,6.562 "
   id="polygon7" />
			<g
   id="g9">
				<path
   d="M 23.097,40.153 C 22.923,28.162 20.982,23 15,23 9.018,23 7.076,28.162 6.903,40.153 3.919,37.77 2,34.107 2,30 2,22.831 7.831,17 15,17 c 7.167,0 13,5.831 13,13 0,4.107 -1.918,7.77 -4.903,10.153 m -8.116,-5.164 c -6.017,0 -5.127,-7.31 -5.127,-7.31 0,0 1.027,-2.316 5.127,-2.316 4.101,0 5.17,2.316 5.17,2.316 0,0 0.845,7.31 -5.17,7.31 M 15,15 C 6.729,15 0,21.729 0,30 0,38.271 6.729,45 15,45 23.271,45 30,38.271 30,30 30,21.729 23.271,15 15,15"
   id="path11"
   inkscape:connector-curvature="0" />
			</g>
		</g>
	</g>
</svg>