<?xml version="1.0" encoding="UTF-8" standalone="no"?>
<!-- Generator: Adobe Illustrator 14.0.0, SVG Export Plug-In . SVG Version: 6.00 Build 43363)  -->

<svg
   xmlns:i="http://ns.adobe.com/AdobeIllustrator/10.0/"
   xmlns:dc="http://purl.org/dc/elements/1.1/"
   xmlns:cc="http://creativecommons.org/ns#"
   xmlns:rdf="http://www.w3.org/1999/02/22-rdf-syntax-ns#"
   xmlns:svg="http://www.w3.org/2000/svg"
   xmlns="http://www.w3.org/2000/svg"
   xmlns:sodipodi="http://sodipodi.sourceforge.net/DTD/sodipodi-0.dtd"
   xmlns:inkscape="http://www.inkscape.org/namespaces/inkscape"
   version="1.1"
   id="Layer_1"
   x="0px"
   y="0px"
   width="45px"
   height="30px"
   viewBox="0 0 45 30"
   enable-background="new 0 0 45 30"
   xml:space="preserve"
   inkscape:version="0.48.2 r9819"
   sodipodi:docname="drag_left.svg"><metadata
   id="metadata17"><rdf:RDF><cc:Work
       rdf:about=""><dc:format>image/svg+xml</dc:format><dc:type
         rdf:resource="http://purl.org/dc/dcmitype/StillImage" /></cc:Work></rdf:RDF></metadata><defs
   id="defs15" /><sodipodi:namedview
   pagecolor="#ffffff"
   bordercolor="#666666"
   borderopacity="1"
   objecttolerance="10"
   gridtolerance="10"
   guidetolerance="10"
   inkscape:pageopacity="0"
   inkscape:pageshadow="2"
   inkscape:window-width="640"
   inkscape:window-height="480"
   id="namedview13"
   showgrid="false"
   inkscape:zoom="7.1555556"
   inkscape:cx="13.571186"
   inkscape:cy="15"
   inkscape:window-x="0"
   inkscape:window-y="0"
   inkscape:window-maximized="0"
   inkscape:current-layer="Layer_1" />
	<g
   i:extraneous="self"
   id="g3"
   transform="translate(-15,0)">
		<g
   id="g5">
			<polygon
   points="3.36,16 10,16 10,14 3.361,14 6.562,10 4,10 0,15.001 4,20 6.562,20 "
   id="polygon7" />
			<g
   id="g9">
				<path
   d="M 38.098,25.153 C 37.924,13.162 35.983,8 30,8 24.017,8 22.076,13.162 21.903,25.153 18.919,22.77 17,19.107 17,15 17,7.831 22.831,2 30,2 c 7.168,0 13,5.831 13,13 0,4.107 -1.918,7.77 -4.902,10.153 m -8.117,-5.164 c -6.017,0 -5.127,-7.31 -5.127,-7.31 0,0 1.027,-2.316 5.127,-2.316 4.102,0 5.17,2.316 5.17,2.316 0,0 0.846,7.31 -5.17,7.31 M 30,0 C 21.729,0 15,6.729 15,15 15,23.271 21.729,30 30,30 38.271,30 45,23.271 45,15 45,6.729 38.272,0 30,0"
   id="path11"
   inkscape:connector-curvature="0" />
			</g>
		</g>
	</g>
</svg>