<?xml version="1.0" encoding="UTF-8" standalone="no"?>
<!-- Generator: Adobe Illustrator 15.1.0, SVG Export Plug-In . SVG Version: 6.00 Build 0)  -->

<svg
   xmlns:dc="http://purl.org/dc/elements/1.1/"
   xmlns:cc="http://creativecommons.org/ns#"
   xmlns:rdf="http://www.w3.org/1999/02/22-rdf-syntax-ns#"
   xmlns:svg="http://www.w3.org/2000/svg"
   xmlns="http://www.w3.org/2000/svg"
   xmlns:sodipodi="http://sodipodi.sourceforge.net/DTD/sodipodi-0.dtd"
   xmlns:inkscape="http://www.inkscape.org/namespaces/inkscape"
   version="1.1"
   x="0px"
   y="0px"
   width="30px"
   height="51px"
   viewBox="0 0 30 51"
   style="enable-background:new 0 0 30 51;"
   xml:space="preserve"
   id="svg3147"
   inkscape:version="0.48.2 r9819"
   sodipodi:docname="flick_up.svg"><metadata
   id="metadata3166"><rdf:RDF><cc:Work
       rdf:about=""><dc:format>image/svg+xml</dc:format><dc:type
         rdf:resource="http://purl.org/dc/dcmitype/StillImage" /></cc:Work></rdf:RDF></metadata><defs
   id="defs3164" /><sodipodi:namedview
   pagecolor="#ffffff"
   bordercolor="#666666"
   borderopacity="1"
   objecttolerance="10"
   gridtolerance="10"
   guidetolerance="10"
   inkscape:pageopacity="0"
   inkscape:pageshadow="2"
   inkscape:window-width="845"
   inkscape:window-height="591"
   id="namedview3162"
   showgrid="false"
   inkscape:zoom="4.627451"
   inkscape:cx="15"
   inkscape:cy="25.5"
   inkscape:window-x="0"
   inkscape:window-y="0"
   inkscape:window-maximized="0"
   inkscape:current-layer="svg3147" />
<g
   id="Layer_1">
</g>
<g
   id="Gestures"
   transform="translate(0,-21)">
	<g
   id="g3151">
		<g
   id="Flick_Up_2_">
			<g
   id="Tap__x28_Stroked_x29__8_">
				<path
   style="fill:#010101"
   d="M 1,37 C 0.447,37 0,36.552 0,36 0,27.729 6.729,21 15.001,21 23.271,21 30,27.729 30,35.999 c 0,0.553 -0.447,1 -1,1 -0.553,0 -1,-0.447 -1,-1 C 28,28.832 22.168,23 15.001,23 7.832,23 2,28.832 2,36 2,36.552 1.553,37 1,37 z"
   id="path3155"
   inkscape:connector-curvature="0" />
				<path
   style="fill:#010101"
   d="M 15,29 C 8.716,29 6.886,34.678 6.886,48.004 v 0.6 C 9.227,50.114 12.008,51 15,51 c 2.992,0 5.773,-0.887 8.114,-2.396 v -0.6 C 23.114,34.678 21.284,29 15,29 z m -0.019,11.989 c -6.018,0 -5.127,-7.311 -5.127,-7.311 0,0 1.026,-2.314 5.127,-2.314 4.101,0 5.17,2.314 5.17,2.314 0,0 0.845,7.311 -5.17,7.311 z"
   id="path3157"
   inkscape:connector-curvature="0" />
			</g>
			<polygon
   style="fill:#010101"
   points="20,12.562 16,9.36 16,16 14,16 14,9.361 10,12.562 10,10 15.001,6 20,10 "
   id="polygon3159" />
			<polygon
   id="Arrow_15_"
   style="fill:#010101"
   points="10,6.562 10,4 15.001,0 20,4 20,6.562 15,2.557 " />
		</g>
	</g>
</g>
</svg>