<?xml version="1.0" encoding="UTF-8" standalone="no"?>
<!-- Generator: Adobe Illustrator 15.1.0, SVG Export Plug-In . SVG Version: 6.00 Build 0)  -->

<svg
   xmlns:dc="http://purl.org/dc/elements/1.1/"
   xmlns:cc="http://creativecommons.org/ns#"
   xmlns:rdf="http://www.w3.org/1999/02/22-rdf-syntax-ns#"
   xmlns:svg="http://www.w3.org/2000/svg"
   xmlns="http://www.w3.org/2000/svg"
   xmlns:sodipodi="http://sodipodi.sourceforge.net/DTD/sodipodi-0.dtd"
   xmlns:inkscape="http://www.inkscape.org/namespaces/inkscape"
   version="1.1"
   x="0px"
   y="0px"
   width="51px"
   height="30px"
   viewBox="0 0 51 30"
   style="enable-background:new 0 0 51 30;"
   xml:space="preserve"
   id="svg3071"
   inkscape:version="0.48.2 r9819"
   sodipodi:docname="flick_left.svg"><metadata
   id="metadata3090"><rdf:RDF><cc:Work
       rdf:about=""><dc:format>image/svg+xml</dc:format><dc:type
         rdf:resource="http://purl.org/dc/dcmitype/StillImage" /></cc:Work></rdf:RDF></metadata><defs
   id="defs3088" /><sodipodi:namedview
   pagecolor="#ffffff"
   bordercolor="#666666"
   borderopacity="1"
   objecttolerance="10"
   gridtolerance="10"
   guidetolerance="10"
   inkscape:pageopacity="0"
   inkscape:pageshadow="2"
   inkscape:window-width="729"
   inkscape:window-height="591"
   id="namedview3086"
   showgrid="false"
   inkscape:zoom="6.3137255"
   inkscape:cx="25.5"
   inkscape:cy="15"
   inkscape:window-x="392"
   inkscape:window-y="45"
   inkscape:window-maximized="0"
   inkscape:current-layer="svg3071" />
<g
   id="Layer_1">
</g>
<g
   id="Gestures"
   transform="translate(-21,0)">
	<g
   id="g3075">
		<g
   id="Flick_Left_2_">
			<g
   id="Tap__x28_Stroked_x29__5_">
				<path
   style="fill:#010101"
   d="M 22,16 C 21.448,16 21,15.552 21,15 21,6.729 27.729,0 36.001,0 44.271,0 51,6.729 51,14.999 c 0,0.552 -0.448,1 -1,1 -0.552,0 -1,-0.448 -1,-1 C 49,7.832 43.169,2 36.001,2 28.832,2 23,7.832 23,15 c 0,0.552 -0.448,1 -1,1 z"
   id="path3079"
   inkscape:connector-curvature="0" />
				<path
   style="fill:#010101"
   d="m 36,8 c -6.284,0 -8.114,5.679 -8.114,19.004 v 0.6 C 30.227,29.114 33.007,30 36,30 c 2.993,0 5.773,-0.887 8.114,-2.396 v -0.6 C 44.114,13.679 42.284,8 36,8 z m -0.019,11.989 c -6.018,0 -5.127,-7.31 -5.127,-7.31 0,0 1.026,-2.315 5.127,-2.315 4.101,0 5.17,2.315 5.17,2.315 0,0 0.845,7.31 -5.17,7.31 z"
   id="path3081"
   inkscape:connector-curvature="0" />
			</g>
			<polygon
   style="fill:#010101"
   points="12.562,10 9.36,14 16,14 16,16 9.361,16 12.562,20 10,20 6,14.999 10,10 "
   id="polygon3083" />
			<polygon
   id="Arrow_12_"
   style="fill:#010101"
   points="6.562,20 4,20 0,14.999 4,10 6.562,10 2.557,15 " />
		</g>
	</g>
</g>
</svg>