<?xml version="1.0" encoding="UTF-8" standalone="no"?>
<!-- Generator: Adobe Illustrator 14.0.0, SVG Export Plug-In . SVG Version: 6.00 Build 43363)  -->

<svg
   xmlns:i="http://ns.adobe.com/AdobeIllustrator/10.0/"
   xmlns:dc="http://purl.org/dc/elements/1.1/"
   xmlns:cc="http://creativecommons.org/ns#"
   xmlns:rdf="http://www.w3.org/1999/02/22-rdf-syntax-ns#"
   xmlns:svg="http://www.w3.org/2000/svg"
   xmlns="http://www.w3.org/2000/svg"
   xmlns:sodipodi="http://sodipodi.sourceforge.net/DTD/sodipodi-0.dtd"
   xmlns:inkscape="http://www.inkscape.org/namespaces/inkscape"
   version="1.1"
   id="Layer_1"
   x="0px"
   y="0px"
   width="60px"
   height="30px"
   viewBox="0 0 60 30"
   enable-background="new 0 0 60 30"
   xml:space="preserve"
   inkscape:version="0.48.2 r9819"
   sodipodi:docname="horizontal_drag.svg"><metadata
   id="metadata3600"><rdf:RDF><cc:Work
       rdf:about=""><dc:format>image/svg+xml</dc:format><dc:type
         rdf:resource="http://purl.org/dc/dcmitype/StillImage" /></cc:Work></rdf:RDF></metadata><defs
   id="defs3598" /><sodipodi:namedview
   pagecolor="#ffffff"
   bordercolor="#666666"
   borderopacity="1"
   objecttolerance="10"
   gridtolerance="10"
   guidetolerance="10"
   inkscape:pageopacity="0"
   inkscape:pageshadow="2"
   inkscape:window-width="841"
   inkscape:window-height="587"
   id="namedview3596"
   showgrid="false"
   inkscape:zoom="5.3666667"
   inkscape:cx="30"
   inkscape:cy="15"
   inkscape:window-x="0"
   inkscape:window-y="0"
   inkscape:window-maximized="0"
   inkscape:current-layer="Layer_1" />
	<g
   i:extraneous="self"
   id="g3584"
   transform="translate(-15,0)">
		<g
   id="g3586">
			<polygon
   points="53.44,10 56.641,14 50,14 50,16 56.639,16 53.44,20 56,20 60,14.999 56,10 "
   id="polygon3588" />
			<polygon
   points="6.562,20 3.36,16 10,16 10,14 3.36,14 6.562,10 4,10 0,15.001 4,20 "
   id="polygon3590" />
			<g
   id="g3592">
				<path
   d="M 38.098,25.153 C 37.924,13.162 35.983,8 30.001,8 24.019,8 22.077,13.162 21.903,25.153 18.919,22.77 17.001,19.107 17.001,15 c 0,-7.169 5.83,-13 13,-13 7.167,0 13,5.831 13,13 -10e-4,4.107 -1.92,7.77 -4.903,10.153 m -8.117,-5.164 c -6.018,0 -5.127,-7.31 -5.127,-7.31 0,0 1.027,-2.316 5.127,-2.316 4.101,0 5.169,2.316 5.169,2.316 0,0 0.847,7.31 -5.169,7.31 M 30.001,0 c -8.271,0 -15,6.729 -15,15 0,8.271 6.729,15 15,15 8.271,0 15,-6.729 15,-15 C 45,6.729 38.272,0 30.001,0"
   id="path3594"
   inkscape:connector-curvature="0" />
			</g>
		</g>
	</g>
</svg>