<?xml version="1.0" encoding="UTF-8" standalone="no"?>
<!-- Generator: Adobe Illustrator 15.1.0, SVG Export Plug-In . SVG Version: 6.00 Build 0)  -->

<svg
   xmlns:dc="http://purl.org/dc/elements/1.1/"
   xmlns:cc="http://creativecommons.org/ns#"
   xmlns:rdf="http://www.w3.org/1999/02/22-rdf-syntax-ns#"
   xmlns:svg="http://www.w3.org/2000/svg"
   xmlns="http://www.w3.org/2000/svg"
   xmlns:sodipodi="http://sodipodi.sourceforge.net/DTD/sodipodi-0.dtd"
   xmlns:inkscape="http://www.inkscape.org/namespaces/inkscape"
   version="1.1"
   x="0px"
   y="0px"
   width="72px"
   height="30px"
   viewBox="0 0 72 30"
   style="enable-background:new 0 0 72 30;"
   xml:space="preserve"
   id="svg3626"
   inkscape:version="0.48.2 r9819"
   sodipodi:docname="horizontal_flick.svg"><metadata
   id="metadata3648"><rdf:RDF><cc:Work
       rdf:about=""><dc:format>image/svg+xml</dc:format><dc:type
         rdf:resource="http://purl.org/dc/dcmitype/StillImage" /></cc:Work></rdf:RDF></metadata><defs
   id="defs3646" /><sodipodi:namedview
   pagecolor="#ffffff"
   bordercolor="#666666"
   borderopacity="1"
   objecttolerance="10"
   gridtolerance="10"
   guidetolerance="10"
   inkscape:pageopacity="0"
   inkscape:pageshadow="2"
   inkscape:window-width="851"
   inkscape:window-height="607"
   id="namedview3644"
   showgrid="false"
   inkscape:zoom="4.4722222"
   inkscape:cx="36"
   inkscape:cy="15"
   inkscape:window-x="0"
   inkscape:window-y="0"
   inkscape:window-maximized="0"
   inkscape:current-layer="svg3626" />
<g
   id="Layer_1">
</g>
<g
   id="Gestures"
   transform="translate(-21,0)">
	<g
   id="g3630">
		<g
   id="Flick_Horizontally_2_">
			<g
   id="Tap__x28_Stroked_x29__3_">
				<path
   style="fill:#010101"
   d="M 22,16 C 21.448,16 21,15.552 21,15 21,6.729 27.729,0 36.001,0 44.271,0 51,6.729 51,14.999 c 0,0.552 -0.447,1 -1,1 -0.553,0 -1,-0.448 -1,-1 C 49,7.832 43.168,2 36.001,2 28.832,2 23,7.832 23,15 c 0,0.552 -0.448,1 -1,1 z"
   id="path3634"
   inkscape:connector-curvature="0" />
				<path
   style="fill:#010101"
   d="m 36,8 c -6.284,0 -8.114,5.679 -8.114,19.005 v 0.599 C 30.227,29.113 33.007,30 36,30 c 2.992,0 5.773,-0.887 8.114,-2.396 V 27.005 C 44.114,13.679 42.284,8 36,8 z m -0.019,11.989 c -6.018,0 -5.127,-7.311 -5.127,-7.311 0,0 1.026,-2.315 5.127,-2.315 4.101,0 5.17,2.315 5.17,2.315 0,0 0.845,7.311 -5.17,7.311 z"
   id="path3636"
   inkscape:connector-curvature="0" />
			</g>
			<polygon
   style="fill:#010101"
   points="59.438,10 62.64,14 56,14 56,16 62.639,16 59.438,20 62,20 66,14.999 62,10 "
   id="polygon3638" />
			<polygon
   id="Arrow_10_"
   style="fill:#010101"
   points="65.438,20 68,20 72,14.999 68,10 65.438,10 69.443,15 " />
			<polygon
   style="fill:#010101"
   points="12.562,10 9.36,14 16,14 16,16 9.361,16 12.562,20 10,20 6,14.999 10,10 "
   id="polygon3641" />
			<polygon
   id="Arrow_8_"
   style="fill:#010101"
   points="6.562,20 4,20 0,14.999 4,10 6.562,10 2.557,15 " />
		</g>
	</g>
</g>
</svg>