<?xml version="1.0" encoding="UTF-8" standalone="no"?>
<!-- Generator: Adobe Illustrator 14.0.0, SVG Export Plug-In . SVG Version: 6.00 Build 43363)  -->

<svg
   xmlns:i="http://ns.adobe.com/AdobeIllustrator/10.0/"
   xmlns:dc="http://purl.org/dc/elements/1.1/"
   xmlns:cc="http://creativecommons.org/ns#"
   xmlns:rdf="http://www.w3.org/1999/02/22-rdf-syntax-ns#"
   xmlns:svg="http://www.w3.org/2000/svg"
   xmlns="http://www.w3.org/2000/svg"
   xmlns:sodipodi="http://sodipodi.sourceforge.net/DTD/sodipodi-0.dtd"
   xmlns:inkscape="http://www.inkscape.org/namespaces/inkscape"
   version="1.1"
   id="Layer_1"
   x="0px"
   y="0px"
   width="60px"
   height="60px"
   viewBox="0 0 60 60"
   enable-background="new 0 0 60 60"
   xml:space="preserve"
   inkscape:version="0.48.2 r9819"
   sodipodi:docname="omnidirectional_drag.svg"><metadata
   id="metadata3965"><rdf:RDF><cc:Work
       rdf:about=""><dc:format>image/svg+xml</dc:format><dc:type
         rdf:resource="http://purl.org/dc/dcmitype/StillImage" /></cc:Work></rdf:RDF></metadata><defs
   id="defs3963" /><sodipodi:namedview
   pagecolor="#ffffff"
   bordercolor="#666666"
   borderopacity="1"
   objecttolerance="10"
   gridtolerance="10"
   guidetolerance="10"
   inkscape:pageopacity="0"
   inkscape:pageshadow="2"
   inkscape:window-width="781"
   inkscape:window-height="572"
   id="namedview3961"
   showgrid="false"
   inkscape:zoom="3.9333333"
   inkscape:cx="30"
   inkscape:cy="30"
   inkscape:window-x="447"
   inkscape:window-y="182"
   inkscape:window-maximized="0"
   inkscape:current-layer="Layer_1" />
	<g
   i:extraneous="self"
   id="g3945"
   transform="translate(-15,-15)">
		<g
   id="g3947">
			<polygon
   points="56.641,29 50,29 50,31 56.639,31 53.439,35 56,35 60,29.999 56,25 53.439,25 "
   id="polygon3949" />
			<polygon
   points="3.359,31 10,31 10,29 3.361,29 6.561,25 4,25 0,30.001 4,35 6.561,35 "
   id="polygon3951" />
			<polygon
   points="31,56.64 31,50 29,50 29,56.639 25,53.438 25,56 30.002,60 35,56 35,53.438 "
   id="polygon3953" />
			<polygon
   points="29,3.359 29,10 31,10 31,3.36 35,6.562 35,4 29.998,0 25,4 25,6.562 "
   id="polygon3955" />
			<g
   id="g3957">
				<path
   d="M 38.098,40.152 C 37.924,28.162 35.982,23 30,23 24.018,23 22.076,28.162 21.902,40.152 18.92,37.769 17,34.106 17,30 c 0,-7.169 5.83,-13 13,-13 7.17,0 13,5.831 13,13 0,4.106 -1.92,7.769 -4.902,10.152 M 29.98,34.988 c -6.016,0 -5.127,-7.31 -5.127,-7.31 0,0 1.027,-2.316 5.127,-2.316 4.102,0 5.17,2.316 5.17,2.316 0,0 0.846,7.31 -5.17,7.31 M 30,15 c -8.271,0 -15,6.729 -15,15 0,8.271 6.729,15 15,15 8.271,0 15,-6.729 15,-15 0,-8.271 -6.729,-15 -15,-15"
   id="path3959"
   inkscape:connector-curvature="0" />
			</g>
		</g>
	</g>
</svg>