<?xml version="1.0" encoding="UTF-8" standalone="no"?>
<!-- Generator: Adobe Illustrator 15.1.0, SVG Export Plug-In . SVG Version: 6.00 Build 0)  -->

<svg
   xmlns:dc="http://purl.org/dc/elements/1.1/"
   xmlns:cc="http://creativecommons.org/ns#"
   xmlns:rdf="http://www.w3.org/1999/02/22-rdf-syntax-ns#"
   xmlns:svg="http://www.w3.org/2000/svg"
   xmlns="http://www.w3.org/2000/svg"
   xmlns:sodipodi="http://sodipodi.sourceforge.net/DTD/sodipodi-0.dtd"
   xmlns:inkscape="http://www.inkscape.org/namespaces/inkscape"
   version="1.1"
   x="0px"
   y="0px"
   width="72px"
   height="72px"
   viewBox="0 0 72 72"
   style="enable-background:new 0 0 72 72;"
   xml:space="preserve"
   id="svg4009"
   inkscape:version="0.48.2 r9819"
   sodipodi:docname="omnidirectional_flick.svg"><metadata
   id="metadata4037"><rdf:RDF><cc:Work
       rdf:about=""><dc:format>image/svg+xml</dc:format><dc:type
         rdf:resource="http://purl.org/dc/dcmitype/StillImage" /></cc:Work></rdf:RDF></metadata><defs
   id="defs4035" /><sodipodi:namedview
   pagecolor="#ffffff"
   bordercolor="#666666"
   borderopacity="1"
   objecttolerance="10"
   gridtolerance="10"
   guidetolerance="10"
   inkscape:pageopacity="0"
   inkscape:pageshadow="2"
   inkscape:window-width="925"
   inkscape:window-height="702"
   id="namedview4033"
   showgrid="false"
   inkscape:zoom="3.2777778"
   inkscape:cx="36"
   inkscape:cy="36"
   inkscape:window-x="337"
   inkscape:window-y="79"
   inkscape:window-maximized="0"
   inkscape:current-layer="svg4009" />
<g
   id="Layer_1">
</g>
<g
   id="Gestures"
   transform="translate(-21,-21)">
	<g
   id="g4013">
		<g
   id="Flick_Omnidirectionally_2_">
			<g
   id="Tap__x28_Stroked_x29__1_">
				<path
   style="fill:#010101"
   d="M 22,37 C 21.448,37 21,36.552 21,36 21,27.729 27.729,21 36.001,21 44.271,21 51,27.729 51,35.999 c 0,0.552 -0.447,1 -1,1 -0.553,0 -1,-0.448 -1,-1 C 49,28.832 43.168,23 36.001,23 28.832,23 23,28.832 23,36 c 0,0.552 -0.448,1 -1,1 z"
   id="path4017"
   inkscape:connector-curvature="0" />
				<path
   style="fill:#010101"
   d="m 36,29 c -6.284,0 -8.114,5.679 -8.114,19.004 v 0.6 C 30.227,50.114 33.007,51 36,51 c 2.992,0 5.773,-0.887 8.114,-2.396 v -0.6 C 44.114,34.679 42.284,29 36,29 z m -0.019,11.989 c -6.018,0 -5.127,-7.31 -5.127,-7.31 0,0 1.026,-2.315 5.127,-2.315 4.101,0 5.17,2.315 5.17,2.315 0,0 0.845,7.31 -5.17,7.31 z"
   id="path4019"
   inkscape:connector-curvature="0" />
			</g>
			<polygon
   style="fill:#010101"
   points="62.64,35 56,35 56,37 62.639,37 59.438,41 62,41 66,35.999 62,31 59.438,31 "
   id="polygon4021" />
			<polygon
   id="Arrow_5_"
   style="fill:#010101"
   points="68,41 72,35.999 68,31 65.438,31 69.443,36 65.438,41 " />
			<polygon
   style="fill:#010101"
   points="9.36,35 16,35 16,37 9.361,37 12.562,41 10,41 6,35.999 10,31 12.562,31 "
   id="polygon4024" />
			<polygon
   id="Arrow_4_"
   style="fill:#010101"
   points="4,41 0,35.999 4,31 6.562,31 2.557,36 6.562,41 " />
			<polygon
   style="fill:#010101"
   points="37,62.639 37,56 35,56 35,62.639 31,59.438 31,62 36.001,66 41,62 41,59.438 "
   id="polygon4027" />
			<polygon
   id="Arrow_3_"
   style="fill:#010101"
   points="31,68 36.001,72 41,68 41,65.438 36,69.444 31,65.438 " />
			<polygon
   style="fill:#010101"
   points="37,9.36 37,16 35,16 35,9.361 31,12.562 31,10 36.001,6 41,10 41,12.562 "
   id="polygon4030" />
			<polygon
   id="Arrow_2_"
   style="fill:#010101"
   points="31,4 36.001,0 41,4 41,6.562 36,2.557 31,6.562 " />
		</g>
	</g>
</g>
</svg>