<?xml version="1.0" encoding="UTF-8" standalone="no"?>
<!-- Generator: Adobe Illustrator 14.0.0, SVG Export Plug-In . SVG Version: 6.00 Build 43363)  -->

<svg
   xmlns:i="http://ns.adobe.com/AdobeIllustrator/10.0/"
   xmlns:dc="http://purl.org/dc/elements/1.1/"
   xmlns:cc="http://creativecommons.org/ns#"
   xmlns:rdf="http://www.w3.org/1999/02/22-rdf-syntax-ns#"
   xmlns:svg="http://www.w3.org/2000/svg"
   xmlns="http://www.w3.org/2000/svg"
   xmlns:sodipodi="http://sodipodi.sourceforge.net/DTD/sodipodi-0.dtd"
   xmlns:inkscape="http://www.inkscape.org/namespaces/inkscape"
   version="1.1"
   id="Layer_1"
   x="0px"
   y="0px"
   width="60.002px"
   height="60px"
   viewBox="0 0 60.002 60"
   enable-background="new 0 0 60.002 60"
   xml:space="preserve"
   inkscape:version="0.48.2 r9819"
   sodipodi:docname="omnidirectional_swipe.svg"><metadata
   id="metadata4199"><rdf:RDF><cc:Work
       rdf:about=""><dc:format>image/svg+xml</dc:format><dc:type
         rdf:resource="http://purl.org/dc/dcmitype/StillImage" /></cc:Work></rdf:RDF></metadata><defs
   id="defs4197" /><sodipodi:namedview
   pagecolor="#ffffff"
   bordercolor="#666666"
   borderopacity="1"
   objecttolerance="10"
   gridtolerance="10"
   guidetolerance="10"
   inkscape:pageopacity="0"
   inkscape:pageshadow="2"
   inkscape:window-width="813"
   inkscape:window-height="588"
   id="namedview4195"
   showgrid="false"
   inkscape:zoom="3.9333333"
   inkscape:cx="30.000999"
   inkscape:cy="30"
   inkscape:window-x="468"
   inkscape:window-y="216"
   inkscape:window-maximized="0"
   inkscape:current-layer="Layer_1" />
	<g
   i:extraneous="self"
   id="g4177"
   transform="translate(-15,-15)">
		<g
   id="g4179">
			<polygon
   points="56.641,29 50.002,29 50.002,31 56.641,31 53.439,35 56.002,35 60.002,29.999 56.002,25 53.439,25 "
   id="polygon4181" />
			<polygon
   points="3.361,31 10,31 10,29 3.361,29 6.562,25 4,25 0,30.001 4,35 6.562,35 "
   id="polygon4183" />
			<polygon
   points="31.002,56.64 31.002,50 29.002,50 29.002,56.638 25.002,53.437 25.002,56 30.002,60 35.002,56 35.002,53.437 "
   id="polygon4185" />
			<polygon
   points="29.002,3.359 29.002,10 31.002,10 31.002,3.361 35.002,6.562 35.002,4 30,0 25.002,4 25.002,6.562 "
   id="polygon4187" />
			<g
   id="g4189">
				<path
   d="m 16.002,31 c -0.553,0 -1,-0.448 -1,-1 0,-8.271 6.729,-15 15,-15 8.27,0 15,6.729 15,14.999 0,0.552 -0.449,1 -1,1 -0.553,0 -1,-0.448 -1,-1 0,-7.168 -5.832,-12.999 -13,-12.999 -7.168,0 -13,5.831 -13,13 0,0.552 -0.449,1 -1,1"
   id="path4191"
   inkscape:connector-curvature="0" />
				<path
   d="m 29.982,34.989 c -6.018,0 -5.127,-7.311 -5.127,-7.311 0,0 1.027,-2.315 5.127,-2.315 4.102,0 5.17,2.315 5.17,2.315 0,0 0.846,7.311 -5.17,7.311 M 30.002,23 c -6.285,0 -8.115,5.679 -8.115,19.005 v 0.598 c 2.342,1.512 5.121,2.397 8.115,2.397 2.992,0 5.771,-0.885 8.113,-2.396 V 42.006 C 38.115,28.679 36.285,23 30.002,23"
   id="path4193"
   inkscape:connector-curvature="0" />
			</g>
		</g>
	</g>
</svg>