<?xml version="1.0" encoding="UTF-8" standalone="no"?>
<!-- Generator: Adobe Illustrator 14.0.0, SVG Export Plug-In . SVG Version: 6.00 Build 43363)  -->

<svg
   xmlns:i="http://ns.adobe.com/AdobeIllustrator/10.0/"
   xmlns:dc="http://purl.org/dc/elements/1.1/"
   xmlns:cc="http://creativecommons.org/ns#"
   xmlns:rdf="http://www.w3.org/1999/02/22-rdf-syntax-ns#"
   xmlns:svg="http://www.w3.org/2000/svg"
   xmlns="http://www.w3.org/2000/svg"
   xmlns:sodipodi="http://sodipodi.sourceforge.net/DTD/sodipodi-0.dtd"
   xmlns:inkscape="http://www.inkscape.org/namespaces/inkscape"
   version="1.1"
   id="Layer_1"
   x="0px"
   y="0px"
   width="95px"
   height="30px"
   viewBox="0 0 95 30"
   enable-background="new 0 0 95 30"
   xml:space="preserve"
   inkscape:version="0.48.2 r9819"
   sodipodi:docname="pinch.svg"><metadata
   id="metadata4330"><rdf:RDF><cc:Work
       rdf:about=""><dc:format>image/svg+xml</dc:format><dc:type
         rdf:resource="http://purl.org/dc/dcmitype/StillImage" /></cc:Work></rdf:RDF></metadata><defs
   id="defs4328" /><sodipodi:namedview
   pagecolor="#ffffff"
   bordercolor="#666666"
   borderopacity="1"
   objecttolerance="10"
   gridtolerance="10"
   guidetolerance="10"
   inkscape:pageopacity="0"
   inkscape:pageshadow="2"
   inkscape:window-width="1041"
   inkscape:window-height="728"
   id="namedview4326"
   showgrid="false"
   inkscape:zoom="3.3894737"
   inkscape:cx="47.5"
   inkscape:cy="15"
   inkscape:window-x="486"
   inkscape:window-y="160"
   inkscape:window-maximized="0"
   inkscape:current-layer="Layer_1" />
	<g
   i:extraneous="self"
   id="g4312"
   transform="translate(-32.5,0)">
		<g
   id="g4314">
			<g
   id="g4316">
				<path
   d="M 23.097,25.153 C 22.924,13.162 20.982,8 15,8 9.018,8 7.076,13.162 6.903,25.153 3.919,22.769 2,19.106 2,15 2,7.832 7.831,2 15,2 c 7.168,0 13,5.832 13,13 0,4.106 -1.919,7.769 -4.903,10.153 m -8.116,-5.164 c -6.017,0 -5.127,-7.311 -5.127,-7.311 0,0 1.027,-2.315 5.127,-2.315 4.101,0 5.17,2.315 5.17,2.315 0,0 0.845,7.311 -5.17,7.311 M 15,0 C 6.729,0 0,6.729 0,15 0,23.271 6.729,30 15,30 23.271,30 30,23.271 30,15 30,6.729 23.271,0 15,0"
   id="path4318"
   inkscape:connector-curvature="0" />
				<path
   d="M 88.097,25.153 C 87.924,13.162 85.982,8 80,8 74.018,8 72.076,13.162 71.902,25.153 68.919,22.769 67,19.106 67,15 67,7.832 72.83,2 80,2 c 7.167,0 13,5.832 13,13 0,4.106 -1.918,7.769 -4.903,10.153 m -8.116,-5.164 c -6.017,0 -5.127,-7.311 -5.127,-7.311 0,0 1.027,-2.315 5.127,-2.315 4.101,0 5.171,2.315 5.171,2.315 0,0 0.844,7.311 -5.171,7.311 M 80,0 C 71.729,0 65,6.729 65,15 65,23.271 71.729,30 80,30 88.271,30 95,23.271 95,15 95,6.729 88.271,0 80,0"
   id="path4320"
   inkscape:connector-curvature="0" />
			</g>
			<polygon
   points="38.439,10 41.64,14 35,14 35,16 41.639,16 38.439,20 41,20 45,14.999 41,10 "
   id="polygon4322" />
			<polygon
   points="56.561,20 53.36,16 60,16 60,14 53.362,14 56.561,10 54,10 50,15.001 54,20 "
   id="polygon4324" />
		</g>
	</g>
</svg>