<?xml version="1.0" encoding="UTF-8" standalone="no"?>
<!-- Generator: Adobe Illustrator 14.0.0, SVG Export Plug-In . SVG Version: 6.00 Build 43363)  -->

<svg
   xmlns:i="http://ns.adobe.com/AdobeIllustrator/10.0/"
   xmlns:dc="http://purl.org/dc/elements/1.1/"
   xmlns:cc="http://creativecommons.org/ns#"
   xmlns:rdf="http://www.w3.org/1999/02/22-rdf-syntax-ns#"
   xmlns:svg="http://www.w3.org/2000/svg"
   xmlns="http://www.w3.org/2000/svg"
   xmlns:sodipodi="http://sodipodi.sourceforge.net/DTD/sodipodi-0.dtd"
   xmlns:inkscape="http://www.inkscape.org/namespaces/inkscape"
   version="1.1"
   id="Layer_1"
   x="0px"
   y="0px"
   width="65px"
   height="72.021px"
   viewBox="0 0 65 72.021"
   enable-background="new 0 0 65 72.021"
   xml:space="preserve"
   inkscape:version="0.48.2 r9819"
   sodipodi:docname="rotate_clockwise.svg"><metadata
   id="metadata4410"><rdf:RDF><cc:Work
       rdf:about=""><dc:format>image/svg+xml</dc:format><dc:type
         rdf:resource="http://purl.org/dc/dcmitype/StillImage" /></cc:Work></rdf:RDF></metadata><defs
   id="defs4408" /><sodipodi:namedview
   pagecolor="#ffffff"
   bordercolor="#666666"
   borderopacity="1"
   objecttolerance="10"
   gridtolerance="10"
   guidetolerance="10"
   inkscape:pageopacity="0"
   inkscape:pageshadow="2"
   inkscape:window-width="836"
   inkscape:window-height="529"
   id="namedview4406"
   showgrid="false"
   inkscape:zoom="3.2768219"
   inkscape:cx="32.5"
   inkscape:cy="49.532975"
   inkscape:window-x="524"
   inkscape:window-y="330"
   inkscape:window-maximized="0"
   inkscape:current-layer="Layer_1" />
	<g
   i:extraneous="self"
   id="g4394"
   transform="translate(-15,-21.000998)">
		<g
   id="g4396">
			<path
   d="m 37,36.011 c 0,-7.168 5.832,-13 13,-13 7.168,0 13,5.832 13,13 0,4.106 -1.919,7.77 -4.902,10.152 C 57.924,34.173 55.982,29.011 50,29.011 c -5.981,0 -7.924,5.162 -8.097,17.152 C 38.92,43.78 37,40.117 37,36.011 m 7.85,-2.322 c 0,0 1.068,-2.315 5.17,-2.315 4.1,0 5.126,2.315 5.126,2.315 0,0 0.89,7.311 -5.126,7.311 -6.016,0 -5.17,-7.311 -5.17,-7.311 M 35,36.011 c 0,8.271 6.729,15 15,15 8.271,0 15,-6.729 15,-15 0,-8.272 -6.729,-15 -15,-15 -8.271,0 -15,6.727 -15,15"
   id="path4398"
   inkscape:connector-curvature="0" />
			<path
   d="m 2,36.011 c 0,-7.168 5.832,-13 13,-13 7.168,0 13,5.832 13,13 0,4.106 -1.918,7.77 -4.902,10.152 C 22.924,34.173 20.982,29.011 15,29.011 9.019,29.011 7.076,34.173 6.903,46.163 3.92,43.78 2,40.117 2,36.011 m 7.85,-2.322 c 0,0 1.068,-2.315 5.17,-2.315 4.1,0 5.127,2.315 5.127,2.315 0,0 0.889,7.311 -5.127,7.311 C 9.004,41 9.85,33.689 9.85,33.689 M 0,36.011 c 0,8.271 6.729,15 15,15 8.271,0 15,-6.729 15,-15 0,-8.272 -6.729,-15 -15,-15 -8.271,0 -15,6.727 -15,15"
   id="path4400"
   inkscape:connector-curvature="0" />
			<path
   d="m 40.432,70.671 6.365,1.351 2.089,-1.644 -4.987,-1.058 c 4.416,-2.954 7.12,-7.963 7.12,-13.31 h -2 c 0,4.772 -2.465,9.231 -6.467,11.795 l 0.146,-5.285 -2.088,1.645 -0.178,6.506 z"
   id="path4402"
   inkscape:connector-curvature="0" />
			<path
   d="m 14,16.011 h 2 C 16,11.239 18.465,6.78 22.467,4.217 L 22.321,9.501 24.409,7.856 24.588,1.349 18.221,0 16.135,1.644 21.121,2.7 C 16.705,5.654 14,10.663 14,16.011"
   id="path4404"
   inkscape:connector-curvature="0" />
		</g>
	</g>
</svg>