<?xml version="1.0" encoding="UTF-8" standalone="no"?>
<!-- Generator: Adobe Illustrator 14.0.0, SVG Export Plug-In . SVG Version: 6.00 Build 43363)  -->

<svg
   xmlns:i="http://ns.adobe.com/AdobeIllustrator/10.0/"
   xmlns:dc="http://purl.org/dc/elements/1.1/"
   xmlns:cc="http://creativecommons.org/ns#"
   xmlns:rdf="http://www.w3.org/1999/02/22-rdf-syntax-ns#"
   xmlns:svg="http://www.w3.org/2000/svg"
   xmlns="http://www.w3.org/2000/svg"
   xmlns:sodipodi="http://sodipodi.sourceforge.net/DTD/sodipodi-0.dtd"
   xmlns:inkscape="http://www.inkscape.org/namespaces/inkscape"
   version="1.1"
   id="Layer_1"
   x="0px"
   y="0px"
   width="65px"
   height="72.021px"
   viewBox="0 0 65 72.021"
   enable-background="new 0 0 65 72.021"
   xml:space="preserve"
   inkscape:version="0.48.2 r9819"
   sodipodi:docname="rotate_counter_clockwise.svg"><metadata
   id="metadata4865"><rdf:RDF><cc:Work
       rdf:about=""><dc:format>image/svg+xml</dc:format><dc:type
         rdf:resource="http://purl.org/dc/dcmitype/StillImage" /></cc:Work></rdf:RDF></metadata><defs
   id="defs4863" /><sodipodi:namedview
   pagecolor="#ffffff"
   bordercolor="#666666"
   borderopacity="1"
   objecttolerance="10"
   gridtolerance="10"
   guidetolerance="10"
   inkscape:pageopacity="0"
   inkscape:pageshadow="2"
   inkscape:window-width="640"
   inkscape:window-height="480"
   id="namedview4861"
   showgrid="false"
   inkscape:zoom="3.2768219"
   inkscape:cx="32.5"
   inkscape:cy="36.010502"
   inkscape:window-x="0"
   inkscape:window-y="0"
   inkscape:window-maximized="0"
   inkscape:current-layer="Layer_1" />
	<g
   i:extraneous="self"
   id="g4849"
   transform="translate(-15,-20.999998)">
		<g
   id="g4851">
			<path
   d="M 23.097,46.162 C 22.924,34.172 20.981,29.01 15,29.01 9.018,29.01 7.075,34.172 6.903,46.162 3.919,43.78 2,40.117 2,36.01 c 0,-7.168 5.831,-13 13,-13 7.168,0 13,5.832 13,13 0,4.107 -1.919,7.77 -4.903,10.152 m -8.116,-5.163 c -6.018,0 -5.127,-7.31 -5.127,-7.31 0,0 1.026,-2.316 5.127,-2.316 4.101,0 5.17,2.316 5.17,2.316 0,0 0.844,7.31 -5.17,7.31 M 15,21.01 c -8.271,0 -15,6.729 -15,15 0,8.272 6.729,15 15,15 8.271,0 15,-6.728 15,-15 0,-8.272 -6.729,-15 -15,-15"
   id="path4853"
   inkscape:connector-curvature="0" />
			<path
   d="M 58.097,46.162 C 57.924,34.172 55.981,29.01 50,29.01 c -5.982,0 -7.925,5.162 -8.097,17.152 C 38.919,43.78 37,40.117 37,36.01 c 0,-7.168 5.831,-13 13,-13 7.168,0 13,5.832 13,13 0,4.107 -1.919,7.77 -4.903,10.152 m -8.116,-5.163 c -6.018,0 -5.127,-7.31 -5.127,-7.31 0,0 1.026,-2.316 5.127,-2.316 4.101,0 5.17,2.316 5.17,2.316 0,0 0.844,7.31 -5.17,7.31 M 50,21.01 c -8.271,0 -15,6.729 -15,15 0,8.272 6.729,15 15,15 8.271,0 15,-6.728 15,-15 0,-8.272 -6.729,-15 -15,-15"
   id="path4855"
   inkscape:connector-curvature="0" />
			<path
   d="m 24.391,64.164 -2.089,-1.645 0.146,5.286 C 18.446,65.241 15.981,60.782 15.981,56.01 h -2 c 0,5.347 2.704,10.354 7.12,13.309 l -4.986,1.059 2.087,1.643 6.366,-1.35 -0.177,-6.507 z"
   id="path4857"
   inkscape:connector-curvature="0" />
			<path
   d="M 43.88,2.7 48.866,1.643 46.778,0 40.413,1.35 40.591,7.856 42.679,9.5 42.533,4.216 C 46.535,6.778 49,11.237 49,16.011 h 2 C 50.999,10.663 48.296,5.654 43.88,2.7"
   id="path4859"
   inkscape:connector-curvature="0" />
		</g>
	</g>
</svg>