<?xml version="1.0" encoding="UTF-8" standalone="no"?>
<!-- Generator: Adobe Illustrator 14.0.0, SVG Export Plug-In . SVG Version: 6.00 Build 43363)  -->

<svg
   xmlns:i="http://ns.adobe.com/AdobeIllustrator/10.0/"
   xmlns:dc="http://purl.org/dc/elements/1.1/"
   xmlns:cc="http://creativecommons.org/ns#"
   xmlns:rdf="http://www.w3.org/1999/02/22-rdf-syntax-ns#"
   xmlns:svg="http://www.w3.org/2000/svg"
   xmlns="http://www.w3.org/2000/svg"
   xmlns:sodipodi="http://sodipodi.sourceforge.net/DTD/sodipodi-0.dtd"
   xmlns:inkscape="http://www.inkscape.org/namespaces/inkscape"
   version="1.1"
   id="Layer_1"
   x="0px"
   y="0px"
   width="95px"
   height="30px"
   viewBox="0 0 95 30"
   enable-background="new 0 0 95 30"
   xml:space="preserve"
   inkscape:version="0.48.2 r9819"
   sodipodi:docname="spread.svg"><metadata
   id="metadata4978"><rdf:RDF><cc:Work
       rdf:about=""><dc:format>image/svg+xml</dc:format><dc:type
         rdf:resource="http://purl.org/dc/dcmitype/StillImage" /></cc:Work></rdf:RDF></metadata><defs
   id="defs4976" /><sodipodi:namedview
   pagecolor="#ffffff"
   bordercolor="#666666"
   borderopacity="1"
   objecttolerance="10"
   gridtolerance="10"
   guidetolerance="10"
   inkscape:pageopacity="0"
   inkscape:pageshadow="2"
   inkscape:window-width="640"
   inkscape:window-height="480"
   id="namedview4974"
   showgrid="false"
   inkscape:zoom="3.3894737"
   inkscape:cx="47.5"
   inkscape:cy="15"
   inkscape:window-x="0"
   inkscape:window-y="0"
   inkscape:window-maximized="0"
   inkscape:current-layer="Layer_1" />
	<g
   i:extraneous="self"
   id="g4962"
   transform="translate(-32.5,0)">
		<g
   id="g4964">
			<path
   d="M 38.098,25.153 C 37.925,13.162 35.983,8 30.001,8 24.019,8 22.077,13.162 21.904,25.153 18.92,22.769 17.001,19.106 17.001,15 c 0,-7.168 5.831,-13 13,-13 7.168,0 13,5.832 13,13 0,4.106 -1.919,7.769 -4.903,10.153 m -8.116,-5.164 c -6.017,0 -5.127,-7.311 -5.127,-7.311 0,0 1.027,-2.315 5.127,-2.315 4.101,0 5.17,2.315 5.17,2.315 0,0 0.845,7.311 -5.17,7.311 M 30.001,0 c -8.271,0 -15,6.729 -15,15 0,8.271 6.729,15 15,15 8.271,0 15,-6.729 15,-15 0,-8.271 -6.729,-15 -15,-15"
   id="path4966"
   inkscape:connector-curvature="0" />
			<path
   d="M 73.098,25.153 C 72.924,13.162 70.983,8 65,8 59.019,8 57.076,13.162 56.903,25.153 53.92,22.769 52,19.106 52,15 52,7.832 57.832,2 65,2 c 7.168,0 13,5.832 13,13 0,4.106 -1.917,7.769 -4.902,10.153 m -8.116,-5.164 c -6.017,0 -5.127,-7.311 -5.127,-7.311 0,0 1.026,-2.315 5.127,-2.315 4.101,0 5.17,2.315 5.17,2.315 0,0 0.845,7.311 -5.17,7.311 M 65,0 C 56.73,0 50,6.729 50,15 50,23.271 56.729,30 65,30 73.271,30 80,23.271 80,15 80,6.729 73.272,0 65,0"
   id="path4968"
   inkscape:connector-curvature="0" />
			<polygon
   points="85,14 85,16 91.64,16 88.44,20 91,20 95,14.999 91,10 88.44,10 91.641,14 "
   id="polygon4970" />
			<polygon
   points="6.562,20 3.361,16 10,16 10,14 3.362,14 6.562,10 4,10 0,15.001 4,20 "
   id="polygon4972" />
		</g>
	</g>
</svg>