<?xml version="1.0" encoding="UTF-8" standalone="no"?>
<!-- Generator: Adobe Illustrator 14.0.0, SVG Export Plug-In . SVG Version: 6.00 Build 43363)  -->

<svg
   xmlns:i="http://ns.adobe.com/AdobeIllustrator/10.0/"
   xmlns:dc="http://purl.org/dc/elements/1.1/"
   xmlns:cc="http://creativecommons.org/ns#"
   xmlns:rdf="http://www.w3.org/1999/02/22-rdf-syntax-ns#"
   xmlns:svg="http://www.w3.org/2000/svg"
   xmlns="http://www.w3.org/2000/svg"
   xmlns:sodipodi="http://sodipodi.sourceforge.net/DTD/sodipodi-0.dtd"
   xmlns:inkscape="http://www.inkscape.org/namespaces/inkscape"
   version="1.1"
   id="Layer_1"
   x="0px"
   y="0px"
   width="30px"
   height="38px"
   viewBox="0 0 30 38"
   enable-background="new 0 0 30 38"
   xml:space="preserve"
   inkscape:version="0.48.2 r9819"
   sodipodi:docname="triple_tap.svg"><metadata
   id="metadata5284"><rdf:RDF><cc:Work
       rdf:about=""><dc:format>image/svg+xml</dc:format><dc:type
         rdf:resource="http://purl.org/dc/dcmitype/StillImage" /></cc:Work></rdf:RDF></metadata><defs
   id="defs5282" /><sodipodi:namedview
   pagecolor="#ffffff"
   bordercolor="#666666"
   borderopacity="1"
   objecttolerance="10"
   gridtolerance="10"
   guidetolerance="10"
   inkscape:pageopacity="0"
   inkscape:pageshadow="2"
   inkscape:window-width="819"
   inkscape:window-height="555"
   id="namedview5280"
   showgrid="false"
   inkscape:zoom="6.2105263"
   inkscape:cx="15"
   inkscape:cy="19"
   inkscape:window-x="402"
   inkscape:window-y="210"
   inkscape:window-maximized="0"
   inkscape:current-layer="Layer_1" />
	<g
   i:extraneous="self"
   id="g5268"
   transform="translate(0,-8)">
		<g
   id="g5270">
			<path
   d="M 1,24 C 0.448,24 0,23.552 0,23 0,14.729 6.729,8 15.002,8 23.271,8 30,14.729 30,22.999 c 0,0.552 -0.447,1 -1,1 -0.551,0 -1,-0.448 -1,-1 C 28,15.831 22.167,10 15.002,10 7.832,10 2,15.831 2,23 2,23.552 1.553,24 1,24"
   id="path5272"
   inkscape:connector-curvature="0" />
			<path
   d="M 1,12.712 C 0.779,12.712 0.557,12.639 0.371,12.49 -0.059,12.143 -0.124,11.512 0.223,11.084 3.859,6.582 9.246,4 15.002,4 c 5.755,0 11.14,2.582 14.775,7.083 0.35,0.429 0.281,1.06 -0.148,1.406 C 29.199,12.835 28.57,12.77 28.223,12.34 24.968,8.312 20.15,6 15.002,6 9.854,6 5.033,8.312 1.777,12.34 1.58,12.585 1.292,12.712 1,12.712"
   id="path5274"
   inkscape:connector-curvature="0" />
			<path
   d="M 29,7.042 C 28.775,7.042 28.551,6.967 28.363,6.813 24.609,3.709 19.863,2 15.002,2 10.137,2 5.391,3.709 1.638,6.813 1.212,7.165 0.582,7.106 0.23,6.68 -0.123,6.253 -0.063,5.623 0.363,5.272 4.475,1.872 9.673,0 15.002,0 20.328,0 25.525,1.872 29.638,5.271 30.064,5.623 30.122,6.252 29.771,6.679 29.572,6.919 29.287,7.042 29,7.042"
   id="path5276"
   inkscape:connector-curvature="0" />
			<path
   d="m 14.981,27.989 c -6.017,0 -5.127,-7.309 -5.127,-7.309 0,0 1.026,-2.316 5.127,-2.316 4.1,0 5.17,2.316 5.17,2.316 0,0 0.845,7.309 -5.17,7.309 M 15,16 C 8.717,16 6.887,21.68 6.887,35.004 v 0.6 C 9.227,37.114 12.008,38 15,38 c 2.994,0 5.773,-0.887 8.115,-2.396 v -0.6 C 23.115,21.68 21.285,16 15,16"
   id="path5278"
   inkscape:connector-curvature="0" />
		</g>
	</g>
</svg>