<?xml version="1.0" encoding="UTF-8" standalone="no"?>
<!-- Generator: Adobe Illustrator 14.0.0, SVG Export Plug-In . SVG Version: 6.00 Build 43363)  -->

<svg
   xmlns:i="http://ns.adobe.com/AdobeIllustrator/10.0/"
   xmlns:dc="http://purl.org/dc/elements/1.1/"
   xmlns:cc="http://creativecommons.org/ns#"
   xmlns:rdf="http://www.w3.org/1999/02/22-rdf-syntax-ns#"
   xmlns:svg="http://www.w3.org/2000/svg"
   xmlns="http://www.w3.org/2000/svg"
   xmlns:sodipodi="http://sodipodi.sourceforge.net/DTD/sodipodi-0.dtd"
   xmlns:inkscape="http://www.inkscape.org/namespaces/inkscape"
   version="1.1"
   id="Layer_1"
   x="0px"
   y="0px"
   width="58px"
   height="34.001px"
   viewBox="0 0 58 34.001"
   enable-background="new 0 0 58 34.001"
   xml:space="preserve"
   inkscape:version="0.48.2 r9819"
   sodipodi:docname="two_finger_double_tap.svg"><metadata
   id="metadata5332"><rdf:RDF><cc:Work
       rdf:about=""><dc:format>image/svg+xml</dc:format><dc:type
         rdf:resource="http://purl.org/dc/dcmitype/StillImage" /></cc:Work></rdf:RDF></metadata><defs
   id="defs5330" /><sodipodi:namedview
   pagecolor="#ffffff"
   bordercolor="#666666"
   borderopacity="1"
   objecttolerance="10"
   gridtolerance="10"
   guidetolerance="10"
   inkscape:pageopacity="0"
   inkscape:pageshadow="2"
   inkscape:window-width="875"
   inkscape:window-height="532"
   id="namedview5328"
   showgrid="false"
   inkscape:zoom="5.5517241"
   inkscape:cx="29"
   inkscape:cy="17.0005"
   inkscape:window-x="265"
   inkscape:window-y="209"
   inkscape:window-maximized="0"
   inkscape:current-layer="Layer_1" />
	<g
   i:extraneous="self"
   id="g5316"
   transform="translate(-14.000001,-4.0000001)">
		<g
   id="g5318">
			<path
   d="m 14.981,23.989 c -6.017,0 -5.127,-7.31 -5.127,-7.31 0,0 1.027,-2.316 5.127,-2.316 4.101,0 5.17,2.316 5.17,2.316 0,0 0.845,7.31 -5.17,7.31 M 15,12.001 c -6.284,0 -8.114,5.679 -8.114,19.004 v 0.6 c 2.341,1.51 5.121,2.396 8.114,2.396 2.993,0 5.773,-0.887 8.114,-2.396 v -0.6 C 23.114,17.68 21.284,12.001 15,12.001"
   id="path5320"
   inkscape:connector-curvature="0" />
			<path
   d="m 29,20.001 c -0.552,0 -1,-0.448 -1,-1 0,-7.17 -5.832,-13 -12.999,-13 -7.169,0 -13.001,5.83 -13.001,13 0,0.552 -0.448,1 -1,1 -0.552,0 -1,-0.448 -1,-1 0,-8.271 6.729,-15 15.001,-15 6.373,0 11.83,3.994 13.999,9.612 C 31.169,7.995 36.627,4.001 43.001,4.001 51.271,4.001 58,10.729 58,19 c 0,0.552 -0.449,1 -1,1 -0.553,0 -1,-0.448 -1,-1 0,-7.169 -5.832,-12.999 -12.999,-12.999 -7.169,0 -13.001,5.83 -13.001,13 0,0.552 -0.448,1 -1,1"
   id="path5322"
   inkscape:connector-curvature="0" />
			<path
   d="m 42.98,23.989 c -6.017,0 -5.127,-7.31 -5.127,-7.31 0,0 1.027,-2.316 5.127,-2.316 4.102,0 5.17,2.316 5.17,2.316 0,0 0.846,7.31 -5.17,7.31 M 43,12.001 c -6.284,0 -8.114,5.679 -8.114,19.004 v 0.6 c 2.341,1.51 5.121,2.396 8.114,2.396 2.992,0 5.773,-0.887 8.113,-2.396 v -0.6 C 51.113,17.68 49.283,12.001 43,12.001"
   id="path5324"
   inkscape:connector-curvature="0" />
			<path
   d="M 1,8.713 C 0.779,8.713 0.557,8.64 0.372,8.49 -0.058,8.143 -0.124,7.513 0.223,7.084 3.859,2.582 9.245,0 15.001,0 20.358,0 25.397,2.237 29,6.179 32.604,2.237 37.643,0 43.002,0 c 5.754,0 11.141,2.582 14.775,7.083 0.348,0.43 0.281,1.06 -0.148,1.406 C 57.197,8.835 56.568,8.769 56.223,8.341 52.969,4.312 48.149,2 43.002,2 37.853,2 33.032,4.312 29.777,8.341 29.587,8.574 29.302,8.712 29,8.712 28.697,8.712 28.412,8.574 28.222,8.341 24.968,4.312 20.149,2 15.001,2 9.853,2 5.033,4.312 1.777,8.341 1.58,8.585 1.292,8.713 1,8.713"
   id="path5326"
   inkscape:connector-curvature="0" />
		</g>
	</g>
</svg>