<?xml version="1.0" encoding="UTF-8" standalone="no"?>
<!-- Generator: Adobe Illustrator 14.0.0, SVG Export Plug-In . SVG Version: 6.00 Build 43363)  -->

<svg
   xmlns:i="http://ns.adobe.com/AdobeIllustrator/10.0/"
   xmlns:dc="http://purl.org/dc/elements/1.1/"
   xmlns:cc="http://creativecommons.org/ns#"
   xmlns:rdf="http://www.w3.org/1999/02/22-rdf-syntax-ns#"
   xmlns:svg="http://www.w3.org/2000/svg"
   xmlns="http://www.w3.org/2000/svg"
   xmlns:sodipodi="http://sodipodi.sourceforge.net/DTD/sodipodi-0.dtd"
   xmlns:inkscape="http://www.inkscape.org/namespaces/inkscape"
   version="1.1"
   id="Layer_1"
   x="0px"
   y="0px"
   width="58px"
   height="60px"
   viewBox="0 0 58 60"
   enable-background="new 0 0 58 60"
   xml:space="preserve"
   inkscape:version="0.48.2 r9819"
   sodipodi:docname="two_finger_vertical_swipe.svg"><metadata
   id="metadata6046"><rdf:RDF><cc:Work
       rdf:about=""><dc:format>image/svg+xml</dc:format><dc:type
         rdf:resource="http://purl.org/dc/dcmitype/StillImage" /></cc:Work></rdf:RDF></metadata><defs
   id="defs6044" /><sodipodi:namedview
   pagecolor="#ffffff"
   bordercolor="#666666"
   borderopacity="1"
   objecttolerance="10"
   gridtolerance="10"
   guidetolerance="10"
   inkscape:pageopacity="0"
   inkscape:pageshadow="2"
   inkscape:window-width="640"
   inkscape:window-height="480"
   id="namedview6042"
   showgrid="false"
   inkscape:zoom="3.9333333"
   inkscape:cx="29"
   inkscape:cy="30"
   inkscape:window-x="0"
   inkscape:window-y="0"
   inkscape:window-maximized="0"
   inkscape:current-layer="Layer_1" />
	<g
   i:extraneous="self"
   id="g6026"
   transform="translate(-14,-15)">
		<g
   id="g6028">
			<polygon
   points="30,56.64 30,50 28,50 28,56.638 24,53.437 24,56 29.002,60 34,56 34,53.437 "
   id="polygon6030" />
			<polygon
   points="28,3.359 28,10 30,10 30,3.36 34,6.562 34,4 29,0 24,4 24,6.562 "
   id="polygon6032" />
			<g
   id="g6034">
				<path
   d="m 14.982,34.988 c -6.018,0 -5.127,-7.31 -5.127,-7.31 0,0 1.027,-2.316 5.127,-2.316 4.1,0 5.17,2.316 5.17,2.316 0,0 0.844,7.31 -5.17,7.31 M 15,23 C 8.717,23 6.887,28.679 6.887,42.005 v 0.598 C 9.229,44.113 12.008,45 15,45 c 2.994,0 5.773,-0.887 8.115,-2.396 V 42.006 C 23.115,28.679 21.285,23 15,23"
   id="path6036"
   inkscape:connector-curvature="0" />
				<path
   d="M 43.002,15 C 36.613,15 31.16,19.021 29,24.658 26.844,19.021 21.391,15 15.002,15 6.73,15 0,21.729 0,30 0,30.552 0.449,31 1,31 1.553,31 2,30.552 2,30 2,22.83 7.832,17 15.002,17 22.168,17 28,22.83 28,29.999 V 30 c 0,0.552 0.449,1 1,1 0.553,0 1,-0.448 1,-1 C 30,22.83 35.832,17 43.002,17 50.168,17 56,22.83 56,29.999 c 0,0.552 0.449,1 1,1 0.553,0 1,-0.448 1,-1 C 58,21.729 51.271,15 43.002,15"
   id="path6038"
   inkscape:connector-curvature="0" />
				<path
   d="m 42.982,34.988 c -6.018,0 -5.127,-7.31 -5.127,-7.31 0,0 1.027,-2.316 5.127,-2.316 4.1,0 5.17,2.316 5.17,2.316 0,0 0.844,7.31 -5.17,7.31 M 43,23 c -6.283,0 -8.113,5.679 -8.113,19.005 v 0.598 C 37.229,44.113 40.008,45 43,45 c 2.994,0 5.773,-0.887 8.115,-2.396 V 42.006 C 51.115,28.679 49.285,23 43,23"
   id="path6040"
   inkscape:connector-curvature="0" />
			</g>
		</g>
	</g>
</svg>