<?xml version="1.0" encoding="UTF-8" standalone="no"?>
<!-- Generator: Adobe Illustrator 14.0.0, SVG Export Plug-In . SVG Version: 6.00 Build 43363)  -->

<svg
   xmlns:i="http://ns.adobe.com/AdobeIllustrator/10.0/"
   xmlns:dc="http://purl.org/dc/elements/1.1/"
   xmlns:cc="http://creativecommons.org/ns#"
   xmlns:rdf="http://www.w3.org/1999/02/22-rdf-syntax-ns#"
   xmlns:svg="http://www.w3.org/2000/svg"
   xmlns="http://www.w3.org/2000/svg"
   xmlns:sodipodi="http://sodipodi.sourceforge.net/DTD/sodipodi-0.dtd"
   xmlns:inkscape="http://www.inkscape.org/namespaces/inkscape"
   version="1.1"
   id="Layer_1"
   x="0px"
   y="0px"
   width="88.002px"
   height="30px"
   viewBox="0 0 88.002 30"
   enable-background="new 0 0 88.002 30"
   xml:space="preserve"
   inkscape:version="0.48.2 r9819"
   sodipodi:docname="two_finger_horizontal_swipe.svg"><metadata
   id="metadata5492"><rdf:RDF><cc:Work
       rdf:about=""><dc:format>image/svg+xml</dc:format><dc:type
         rdf:resource="http://purl.org/dc/dcmitype/StillImage" /></cc:Work></rdf:RDF></metadata><defs
   id="defs5490" /><sodipodi:namedview
   pagecolor="#ffffff"
   bordercolor="#666666"
   borderopacity="1"
   objecttolerance="10"
   gridtolerance="10"
   guidetolerance="10"
   inkscape:pageopacity="0"
   inkscape:pageshadow="2"
   inkscape:window-width="771"
   inkscape:window-height="511"
   id="namedview5488"
   showgrid="false"
   inkscape:zoom="3.6590078"
   inkscape:cx="44.000999"
   inkscape:cy="15"
   inkscape:window-x="0"
   inkscape:window-y="0"
   inkscape:window-maximized="0"
   inkscape:current-layer="Layer_1" />
	<g
   i:extraneous="self"
   id="g5472"
   transform="translate(-29,0)">
		<g
   id="g5474">
			<polygon
   points="78.002,14 78.002,16 84.641,16 81.439,20 84.002,20 88.002,14.999 84.002,10 81.439,10 84.641,14 "
   id="polygon5476" />
			<polygon
   points="10,16 10,14 3.361,14 6.562,10 4,10 0,15.001 4,20 6.562,20 3.361,16 "
   id="polygon5478" />
			<g
   id="g5480">
				<path
   d="m 29.982,19.988 c -6.018,0 -5.127,-7.31 -5.127,-7.31 0,0 1.027,-2.316 5.127,-2.316 4.102,0 5.17,2.316 5.17,2.316 0,0 0.846,7.31 -5.17,7.31 M 30.002,8 c -6.285,0 -8.115,5.679 -8.115,19.005 v 0.598 c 2.342,1.51 5.121,2.397 8.115,2.397 2.992,0 5.773,-0.887 8.113,-2.396 V 27.006 C 38.115,13.679 36.285,8 30.002,8"
   id="path5482"
   inkscape:connector-curvature="0" />
				<path
   d="M 58.002,0 C 51.615,0 46.16,4.021 44.002,9.658 41.844,4.021 36.391,0 30.002,0 c -8.271,0 -15,6.729 -15,15 0,0.552 0.447,1 1,1 0.551,0 1,-0.448 1,-1 0,-7.17 5.832,-13 13,-13 7.168,0 13,5.83 13,12.999 V 15 c 0,0.552 0.447,1 1,1 0.551,0 1,-0.448 1,-1 0,-7.17 5.832,-13 13,-13 7.168,0 13,5.83 13,12.999 0,0.552 0.447,1 1,1 0.551,0 1,-0.448 1,-1 C 73.002,6.729 66.273,0 58.002,0"
   id="path5484"
   inkscape:connector-curvature="0" />
				<path
   d="m 57.982,19.988 c -6.018,0 -5.127,-7.31 -5.127,-7.31 0,0 1.027,-2.316 5.127,-2.316 4.102,0 5.17,2.316 5.17,2.316 0,0 0.846,7.31 -5.17,7.31 M 58.002,8 c -6.285,0 -8.115,5.679 -8.115,19.005 v 0.598 c 2.342,1.51 5.121,2.397 8.115,2.397 2.992,0 5.773,-0.887 8.113,-2.396 V 27.006 C 66.115,13.679 64.285,8 58.002,8"
   id="path5486"
   inkscape:connector-curvature="0" />
			</g>
		</g>
	</g>
</svg>