<?xml version="1.0" encoding="UTF-8" standalone="no"?>
<!-- Generator: Adobe Illustrator 14.0.0, SVG Export Plug-In . SVG Version: 6.00 Build 43363)  -->

<svg
   xmlns:i="http://ns.adobe.com/AdobeIllustrator/10.0/"
   xmlns:dc="http://purl.org/dc/elements/1.1/"
   xmlns:cc="http://creativecommons.org/ns#"
   xmlns:rdf="http://www.w3.org/1999/02/22-rdf-syntax-ns#"
   xmlns:svg="http://www.w3.org/2000/svg"
   xmlns="http://www.w3.org/2000/svg"
   xmlns:sodipodi="http://sodipodi.sourceforge.net/DTD/sodipodi-0.dtd"
   xmlns:inkscape="http://www.inkscape.org/namespaces/inkscape"
   version="1.1"
   id="Layer_1"
   x="0px"
   y="0px"
   width="58px"
   height="45px"
   viewBox="0 0 58 45"
   enable-background="new 0 0 58 45"
   xml:space="preserve"
   inkscape:version="0.48.2 r9819"
   sodipodi:docname="two_finger_swipe_up.svg"><metadata
   id="metadata5864"><rdf:RDF><cc:Work
       rdf:about=""><dc:format>image/svg+xml</dc:format><dc:type
         rdf:resource="http://purl.org/dc/dcmitype/StillImage" /></cc:Work></rdf:RDF></metadata><defs
   id="defs5862" /><sodipodi:namedview
   pagecolor="#ffffff"
   bordercolor="#666666"
   borderopacity="1"
   objecttolerance="10"
   gridtolerance="10"
   guidetolerance="10"
   inkscape:pageopacity="0"
   inkscape:pageshadow="2"
   inkscape:window-width="904"
   inkscape:window-height="680"
   id="namedview5860"
   showgrid="false"
   inkscape:zoom="5.2444444"
   inkscape:cx="29"
   inkscape:cy="22.5"
   inkscape:window-x="0"
   inkscape:window-y="0"
   inkscape:window-maximized="0"
   inkscape:current-layer="Layer_1" />
	<g
   i:extraneous="self"
   id="g5846"
   transform="translate(-14,-15)">
		<g
   id="g5848">
			<polygon
   points="28,3.36 28,10 30,10 30,3.361 34,6.562 34,4 28.998,0 24,4 24,6.562 "
   id="polygon5850" />
			<g
   id="g5852">
				<path
   d="m 14.98,34.989 c -6.018,0 -5.127,-7.31 -5.127,-7.31 0,0 1.027,-2.315 5.127,-2.315 4.102,0 5.17,2.315 5.17,2.315 0,0 0.846,7.31 -5.17,7.31 M 15,23 C 8.715,23 6.885,28.679 6.885,42.004 v 0.6 C 9.227,44.114 12.006,45 15,45 c 2.992,0 5.771,-0.887 8.113,-2.396 v -0.6 C 23.113,28.679 21.283,23 15,23"
   id="path5854"
   inkscape:connector-curvature="0" />
				<path
   d="M 43,15 C 36.613,15 31.158,19.021 29,24.659 26.842,19.021 21.389,15 15,15 6.729,15 0,21.729 0,30 c 0,0.552 0.447,1 1,1 0.551,0 1,-0.448 1,-1 0,-7.169 5.832,-13 13,-13 7.168,0 13,5.831 13,12.999 V 30 c 0,0.552 0.447,1 1,1 0.551,0 1,-0.448 1,-1 0,-7.169 5.832,-13 13,-13 7.168,0 13,5.831 13,12.999 0,0.552 0.447,1 1,1 0.551,0 1,-0.448 1,-1 C 58,21.729 51.27,15 43,15"
   id="path5856"
   inkscape:connector-curvature="0" />
				<path
   d="m 42.98,34.989 c -6.018,0 -5.127,-7.31 -5.127,-7.31 0,0 1.027,-2.315 5.127,-2.315 4.102,0 5.17,2.315 5.17,2.315 0,0 0.846,7.31 -5.17,7.31 M 43,23 c -6.285,0 -8.115,5.679 -8.115,19.004 v 0.6 C 37.227,44.114 40.006,45 43,45 c 2.992,0 5.771,-0.887 8.113,-2.396 v -0.6 C 51.113,28.679 49.283,23 43,23"
   id="path5858"
   inkscape:connector-curvature="0" />
			</g>
		</g>
	</g>
</svg>