<?xml version="1.0" encoding="UTF-8" standalone="no"?>
<!-- Generator: Adobe Illustrator 14.0.0, SVG Export Plug-In . SVG Version: 6.00 Build 43363)  -->

<svg
   xmlns:i="http://ns.adobe.com/AdobeIllustrator/10.0/"
   xmlns:dc="http://purl.org/dc/elements/1.1/"
   xmlns:cc="http://creativecommons.org/ns#"
   xmlns:rdf="http://www.w3.org/1999/02/22-rdf-syntax-ns#"
   xmlns:svg="http://www.w3.org/2000/svg"
   xmlns="http://www.w3.org/2000/svg"
   xmlns:sodipodi="http://sodipodi.sourceforge.net/DTD/sodipodi-0.dtd"
   xmlns:inkscape="http://www.inkscape.org/namespaces/inkscape"
   version="1.1"
   id="Layer_1"
   x="0px"
   y="0px"
   width="58px"
   height="30px"
   viewBox="0 0 58 30"
   enable-background="new 0 0 58 30"
   xml:space="preserve"
   inkscape:version="0.48.2 r9819"
   sodipodi:docname="two_finger_tap.svg"><metadata
   id="metadata5947"><rdf:RDF><cc:Work
       rdf:about=""><dc:format>image/svg+xml</dc:format><dc:type
         rdf:resource="http://purl.org/dc/dcmitype/StillImage" /></cc:Work></rdf:RDF></metadata><defs
   id="defs5945" /><sodipodi:namedview
   pagecolor="#ffffff"
   bordercolor="#666666"
   borderopacity="1"
   objecttolerance="10"
   gridtolerance="10"
   guidetolerance="10"
   inkscape:pageopacity="0"
   inkscape:pageshadow="2"
   inkscape:window-width="640"
   inkscape:window-height="480"
   id="namedview5943"
   showgrid="false"
   inkscape:zoom="5.5517241"
   inkscape:cx="29"
   inkscape:cy="15"
   inkscape:window-x="0"
   inkscape:window-y="0"
   inkscape:window-maximized="0"
   inkscape:current-layer="Layer_1" />
	<g
   i:extraneous="self"
   id="g5933"
   transform="translate(-14,0)">
		<g
   id="g5935">
			<path
   d="m 14.981,19.989 c -6.017,0 -5.127,-7.31 -5.127,-7.31 0,0 1.027,-2.316 5.127,-2.316 4.101,0 5.17,2.316 5.17,2.316 0,0 0.845,7.31 -5.17,7.31 M 15,8 C 8.716,8 6.886,13.68 6.886,27.004 v 0.6 C 9.227,29.114 12.007,30 15,30 c 2.993,0 5.773,-0.887 8.114,-2.396 v -0.6 C 23.114,13.68 21.284,8 15,8"
   id="path5937"
   inkscape:connector-curvature="0" />
			<path
   d="M 43.001,0 C 36.613,0 31.16,4.021 29,9.659 26.842,4.021 21.389,0 15.001,0 6.729,0 0,6.729 0,15 0,15.552 0.448,16 1,16 1.552,16 2,15.552 2,15 2,7.831 7.832,2 15.001,2 22.168,2 28,7.831 28,14.999 V 15 c 0,0.552 0.448,1 1,1 0.552,0 1,-0.448 1,-1 C 30,7.831 35.832,2 43.002,2 50.167,2 56,7.831 56,14.999 c 0,0.552 0.449,1 1,1 0.553,0 1,-0.448 1,-1 C 58,6.729 51.271,0 43.001,0"
   id="path5939"
   inkscape:connector-curvature="0" />
			<path
   d="m 42.981,19.989 c -6.017,0 -5.127,-7.31 -5.127,-7.31 0,0 1.026,-2.316 5.127,-2.316 4.101,0 5.17,2.316 5.17,2.316 0,0 0.845,7.31 -5.17,7.31 M 43,8 c -6.283,0 -8.113,5.68 -8.113,19.004 v 0.6 C 37.227,29.114 40.007,30 43,30 c 2.994,0 5.773,-0.887 8.114,-2.396 v -0.6 C 51.114,13.68 49.285,8 43,8"
   id="path5941"
   inkscape:connector-curvature="0" />
		</g>
	</g>
</svg>