<?xml version="1.0" encoding="UTF-8" standalone="no"?>
<!-- Generator: Adobe Illustrator 14.0.0, SVG Export Plug-In . SVG Version: 6.00 Build 43363)  -->

<svg
   xmlns:i="http://ns.adobe.com/AdobeIllustrator/10.0/"
   xmlns:dc="http://purl.org/dc/elements/1.1/"
   xmlns:cc="http://creativecommons.org/ns#"
   xmlns:rdf="http://www.w3.org/1999/02/22-rdf-syntax-ns#"
   xmlns:svg="http://www.w3.org/2000/svg"
   xmlns="http://www.w3.org/2000/svg"
   xmlns:sodipodi="http://sodipodi.sourceforge.net/DTD/sodipodi-0.dtd"
   xmlns:inkscape="http://www.inkscape.org/namespaces/inkscape"
   version="1.1"
   id="Layer_1"
   x="0px"
   y="0px"
   width="73px"
   height="30px"
   viewBox="0 0 73 30"
   enable-background="new 0 0 73 30"
   xml:space="preserve"
   inkscape:version="0.48.2 r9819"
   sodipodi:docname="two_finger_swipe_right.svg"><metadata
   id="metadata5822"><rdf:RDF><cc:Work
       rdf:about=""><dc:format>image/svg+xml</dc:format><dc:type
         rdf:resource="http://purl.org/dc/dcmitype/StillImage" /></cc:Work></rdf:RDF></metadata><defs
   id="defs5820" /><sodipodi:namedview
   pagecolor="#ffffff"
   bordercolor="#666666"
   borderopacity="1"
   objecttolerance="10"
   gridtolerance="10"
   guidetolerance="10"
   inkscape:pageopacity="0"
   inkscape:pageshadow="2"
   inkscape:window-width="869"
   inkscape:window-height="692"
   id="namedview5818"
   showgrid="false"
   inkscape:zoom="4.4109589"
   inkscape:cx="36.5"
   inkscape:cy="15"
   inkscape:window-x="0"
   inkscape:window-y="19"
   inkscape:window-maximized="0"
   inkscape:current-layer="Layer_1" />
	<g
   i:extraneous="self"
   id="g5804"
   transform="translate(-14,0)">
		<g
   id="g5806">
			<polygon
   points="66.439,10 69.641,14 63,14 63,16 69.639,16 66.439,20 69,20 73,14.999 69,10 "
   id="polygon5808" />
			<g
   id="g5810">
				<path
   d="m 14.98,19.989 c -6.018,0 -5.127,-7.311 -5.127,-7.311 0,0 1.027,-2.315 5.127,-2.315 4.102,0 5.17,2.315 5.17,2.315 0,0 0.846,7.311 -5.17,7.311 M 15,8 C 8.715,8 6.885,13.679 6.885,27.004 v 0.6 C 9.227,29.114 12.006,30 15,30 c 2.992,0 5.773,-0.887 8.113,-2.396 v -0.6 C 23.113,13.679 21.283,8 15,8"
   id="path5812"
   inkscape:connector-curvature="0" />
				<path
   d="M 43,0 C 36.613,0 31.158,4.021 29,9.659 26.842,4.021 21.389,0 15,0 6.729,0 0,6.729 0,15 0,15.552 0.447,16 1,16 1.551,16 2,15.552 2,15 2,7.831 7.832,2 15,2 22.168,2 28,7.831 28,14.999 V 15 c 0,0.552 0.447,1 1,1 0.551,0 1,-0.448 1,-1 0,-7.169 5.832,-13 13,-13 7.168,0 13,5.831 13,12.999 0,0.552 0.447,1 1,1 0.551,0 1,-0.448 1,-1 C 58,6.729 51.271,0 43,0"
   id="path5814"
   inkscape:connector-curvature="0" />
				<path
   d="m 42.98,19.989 c -6.018,0 -5.127,-7.311 -5.127,-7.311 0,0 1.027,-2.315 5.127,-2.315 4.102,0 5.17,2.315 5.17,2.315 0,0 0.846,7.311 -5.17,7.311 M 43,8 c -6.285,0 -8.115,5.679 -8.115,19.004 v 0.6 C 37.227,29.114 40.006,30 43,30 c 2.992,0 5.773,-0.887 8.113,-2.396 v -0.6 C 51.113,13.679 49.283,8 43,8"
   id="path5816"
   inkscape:connector-curvature="0" />
			</g>
		</g>
	</g>
</svg>