<?xml version="1.0" encoding="UTF-8" standalone="no"?>
<!-- Generator: Adobe Illustrator 14.0.0, SVG Export Plug-In . SVG Version: 6.00 Build 43363)  -->

<svg
   xmlns:i="http://ns.adobe.com/AdobeIllustrator/10.0/"
   xmlns:dc="http://purl.org/dc/elements/1.1/"
   xmlns:cc="http://creativecommons.org/ns#"
   xmlns:rdf="http://www.w3.org/1999/02/22-rdf-syntax-ns#"
   xmlns:svg="http://www.w3.org/2000/svg"
   xmlns="http://www.w3.org/2000/svg"
   xmlns:sodipodi="http://sodipodi.sourceforge.net/DTD/sodipodi-0.dtd"
   xmlns:inkscape="http://www.inkscape.org/namespaces/inkscape"
   version="1.1"
   id="Layer_1"
   x="0px"
   y="0px"
   width="88.002px"
   height="60px"
   viewBox="0 0 88.002 60"
   enable-background="new 0 0 88.002 60"
   xml:space="preserve"
   inkscape:version="0.48.2 r9819"
   sodipodi:docname="two_finger_omnidirectional_swipe.svg"><metadata
   id="metadata5546"><rdf:RDF><cc:Work
       rdf:about=""><dc:format>image/svg+xml</dc:format><dc:type
         rdf:resource="http://purl.org/dc/dcmitype/StillImage" /></cc:Work></rdf:RDF></metadata><defs
   id="defs5544" /><sodipodi:namedview
   pagecolor="#ffffff"
   bordercolor="#666666"
   borderopacity="1"
   objecttolerance="10"
   gridtolerance="10"
   guidetolerance="10"
   inkscape:pageopacity="0"
   inkscape:pageshadow="2"
   inkscape:window-width="936"
   inkscape:window-height="541"
   id="namedview5542"
   showgrid="false"
   inkscape:zoom="3.6590078"
   inkscape:cx="44.000999"
   inkscape:cy="30"
   inkscape:window-x="417"
   inkscape:window-y="223"
   inkscape:window-maximized="0"
   inkscape:current-layer="Layer_1" />
	<g
   i:extraneous="self"
   id="g5522"
   transform="translate(-29,-15)">
		<g
   id="g5524">
			<polygon
   points="84.641,29 78.002,29 78.002,31 84.641,31 81.439,35 84.002,35 88.002,29.999 84.002,25 81.439,25 "
   id="polygon5526" />
			<polygon
   points="3.361,31 10,31 10,29 3.361,29 6.562,25 4,25 0,30.001 4,35 6.562,35 "
   id="polygon5528" />
			<polygon
   points="45.002,56.64 45.002,50 43.002,50 43.002,56.638 39.002,53.437 39.002,56 44.002,60 49.002,56 49.002,53.437 "
   id="polygon5530" />
			<polygon
   points="43.002,3.359 43.002,10 45.002,10 45.002,3.36 49.002,6.562 49.002,4 44,0 39.002,4 39.002,6.562 "
   id="polygon5532" />
			<g
   id="g5534">
				<path
   d="m 29.982,34.988 c -6.018,0 -5.127,-7.31 -5.127,-7.31 0,0 1.027,-2.316 5.127,-2.316 4.102,0 5.17,2.316 5.17,2.316 0,0 0.846,7.31 -5.17,7.31 M 30.002,23 c -6.285,0 -8.115,5.679 -8.115,19.005 v 0.598 c 2.342,1.51 5.121,2.397 8.115,2.397 2.992,0 5.771,-0.887 8.113,-2.396 V 42.006 C 38.115,28.679 36.285,23 30.002,23"
   id="path5536"
   inkscape:connector-curvature="0" />
				<path
   d="m 58.002,15 c -6.389,0 -11.842,4.021 -14,9.658 C 41.844,19.02 36.391,15 30.002,15 c -8.271,0 -15,6.729 -15,15 0,0.552 0.447,1 1,1 0.551,0 1,-0.448 1,-1 0,-7.17 5.832,-13 13,-13 7.168,0 13,5.83 13,12.999 V 30 c 0,0.552 0.447,1 1,1 0.551,0 1,-0.448 1,-1 0,-7.17 5.832,-13 13,-13 7.168,0 13,5.83 13,12.999 0,0.552 0.447,1 1,1 0.551,0 1,-0.448 1,-1 0,-8.27 -6.731,-14.999 -15,-14.999"
   id="path5538"
   inkscape:connector-curvature="0" />
				<path
   d="m 57.982,34.988 c -6.018,0 -5.127,-7.31 -5.127,-7.31 0,0 1.027,-2.316 5.127,-2.316 4.102,0 5.17,2.316 5.17,2.316 0,0 0.846,7.31 -5.17,7.31 M 58.002,23 c -6.285,0 -8.115,5.679 -8.115,19.005 v 0.598 c 2.342,1.51 5.121,2.397 8.115,2.397 2.992,0 5.771,-0.887 8.113,-2.396 V 42.006 C 66.115,28.679 64.285,23 58.002,23"
   id="path5540"
   inkscape:connector-curvature="0" />
			</g>
		</g>
	</g>
</svg>