<?xml version="1.0" encoding="UTF-8" standalone="no"?>
<!-- Generator: Adobe Illustrator 14.0.0, SVG Export Plug-In . SVG Version: 6.00 Build 43363)  -->

<svg
   xmlns:i="http://ns.adobe.com/AdobeIllustrator/10.0/"
   xmlns:dc="http://purl.org/dc/elements/1.1/"
   xmlns:cc="http://creativecommons.org/ns#"
   xmlns:rdf="http://www.w3.org/1999/02/22-rdf-syntax-ns#"
   xmlns:svg="http://www.w3.org/2000/svg"
   xmlns="http://www.w3.org/2000/svg"
   xmlns:sodipodi="http://sodipodi.sourceforge.net/DTD/sodipodi-0.dtd"
   xmlns:inkscape="http://www.inkscape.org/namespaces/inkscape"
   version="1.1"
   id="Layer_1"
   x="0px"
   y="0px"
   width="73px"
   height="30px"
   viewBox="0 0 73 30"
   enable-background="new 0 0 73 30"
   xml:space="preserve"
   inkscape:version="0.48.2 r9819"
   sodipodi:docname="two_finger_swipe_left.svg"><metadata
   id="metadata5748"><rdf:RDF><cc:Work
       rdf:about=""><dc:format>image/svg+xml</dc:format><dc:type
         rdf:resource="http://purl.org/dc/dcmitype/StillImage" /></cc:Work></rdf:RDF></metadata><defs
   id="defs5746" /><sodipodi:namedview
   pagecolor="#ffffff"
   bordercolor="#666666"
   borderopacity="1"
   objecttolerance="10"
   gridtolerance="10"
   guidetolerance="10"
   inkscape:pageopacity="0"
   inkscape:pageshadow="2"
   inkscape:window-width="839"
   inkscape:window-height="515"
   id="namedview5744"
   showgrid="false"
   inkscape:zoom="4.4109589"
   inkscape:cx="36.5"
   inkscape:cy="15"
   inkscape:window-x="0"
   inkscape:window-y="0"
   inkscape:window-maximized="0"
   inkscape:current-layer="Layer_1" />
	<g
   i:extraneous="self"
   id="g5730"
   transform="translate(-29,0)">
		<g
   id="g5732">
			<polygon
   points="3.359,16 10,16 10,14 3.359,14 6.561,10 4,10 0,15.001 4,20 6.561,20 "
   id="polygon5734" />
			<g
   id="g5736">
				<path
   d="m 29.98,19.989 c -6.018,0 -5.127,-7.311 -5.127,-7.311 0,0 1.027,-2.315 5.127,-2.315 4.102,0 5.17,2.315 5.17,2.315 0,0 0.846,7.311 -5.17,7.311 M 30,8 c -6.285,0 -8.115,5.679 -8.115,19.004 v 0.6 C 24.227,29.114 27.006,30 30,30 c 2.992,0 5.773,-0.887 8.113,-2.396 v -0.6 C 38.113,13.679 36.283,8 30,8"
   id="path5738"
   inkscape:connector-curvature="0" />
				<path
   d="M 58,0 C 51.613,0 46.158,4.021 44,9.659 41.842,4.021 36.389,0 30,0 21.729,0 15,6.729 15,15 c 0,0.552 0.447,1 1,1 0.551,0 1,-0.448 1,-1 C 17,7.831 22.832,2 30,2 37.168,2 43,7.831 43,14.999 V 15 c 0,0.552 0.447,1 1,1 0.551,0 1,-0.448 1,-1 0,-7.169 5.832,-13 13,-13 7.168,0 13,5.831 13,12.999 0,0.552 0.447,1 1,1 0.551,0 1,-0.448 1,-1 C 73,6.729 66.271,0 58,0"
   id="path5740"
   inkscape:connector-curvature="0" />
				<path
   d="m 57.98,19.989 c -6.018,0 -5.127,-7.311 -5.127,-7.311 0,0 1.027,-2.315 5.127,-2.315 4.102,0 5.17,2.315 5.17,2.315 0,0 0.846,7.311 -5.17,7.311 M 58,8 c -6.285,0 -8.115,5.679 -8.115,19.004 v 0.6 C 52.227,29.114 55.006,30 58,30 c 2.992,0 5.773,-0.887 8.113,-2.396 v -0.6 C 66.113,13.679 64.283,8 58,8"
   id="path5742"
   inkscape:connector-curvature="0" />
			</g>
		</g>
	</g>
</svg>