<?xml version="1.0" encoding="UTF-8" standalone="no"?>
<!-- Generator: Adobe Illustrator 14.0.0, SVG Export Plug-In . SVG Version: 6.00 Build 43363)  -->

<svg
   xmlns:i="http://ns.adobe.com/AdobeIllustrator/10.0/"
   xmlns:dc="http://purl.org/dc/elements/1.1/"
   xmlns:cc="http://creativecommons.org/ns#"
   xmlns:rdf="http://www.w3.org/1999/02/22-rdf-syntax-ns#"
   xmlns:svg="http://www.w3.org/2000/svg"
   xmlns="http://www.w3.org/2000/svg"
   xmlns:sodipodi="http://sodipodi.sourceforge.net/DTD/sodipodi-0.dtd"
   xmlns:inkscape="http://www.inkscape.org/namespaces/inkscape"
   version="1.1"
   id="Layer_1"
   x="0px"
   y="0px"
   width="58px"
   height="38px"
   viewBox="0 0 58 38"
   enable-background="new 0 0 58 38"
   xml:space="preserve"
   inkscape:version="0.48.2 r9819"
   sodipodi:docname="two_finger_triple_tap.svg"><metadata
   id="metadata5989"><rdf:RDF><cc:Work
       rdf:about=""><dc:format>image/svg+xml</dc:format><dc:type
         rdf:resource="http://purl.org/dc/dcmitype/StillImage" /></cc:Work></rdf:RDF></metadata><defs
   id="defs5987" /><sodipodi:namedview
   pagecolor="#ffffff"
   bordercolor="#666666"
   borderopacity="1"
   objecttolerance="10"
   gridtolerance="10"
   guidetolerance="10"
   inkscape:pageopacity="0"
   inkscape:pageshadow="2"
   inkscape:window-width="640"
   inkscape:window-height="480"
   id="namedview5985"
   showgrid="false"
   inkscape:zoom="5.5517241"
   inkscape:cx="29"
   inkscape:cy="19"
   inkscape:window-x="0"
   inkscape:window-y="0"
   inkscape:window-maximized="0"
   inkscape:current-layer="Layer_1" />
	<g
   i:extraneous="self"
   id="g5971"
   transform="translate(-13.999318,-8)">
		<g
   id="g5973">
			<path
   d="m 14.981,27.988 c -6.018,0 -5.127,-7.31 -5.127,-7.31 0,0 1.026,-2.316 5.127,-2.316 4.101,0 5.17,2.316 5.17,2.316 0,0 0.844,7.31 -5.17,7.31 M 15,16 C 8.716,16 6.886,21.679 6.886,35.004 v 0.6 C 9.227,37.114 12.007,38 15,38 c 2.993,0 5.772,-0.887 8.114,-2.396 v -0.6 C 23.114,21.679 21.284,16 15,16"
   id="path5975"
   inkscape:connector-curvature="0" />
			<path
   d="M 29,24 C 28.448,24 28,23.552 28,23 28,15.83 22.168,10 15.001,10 7.832,10 2,15.83 2,23 2,23.552 1.552,24 1,24 0.448,24 0,23.552 0,23 0,14.729 6.729,8 15.001,8 21.374,8 26.831,11.994 29,17.612 31.168,11.994 36.627,8 43,8 c 8.27,0 15,6.729 15,14.999 0,0.552 -0.449,1 -1,1 -0.553,0 -1,-0.448 -1,-1 C 56,15.83 50.168,10 43,10 c -7.168,0 -13,5.83 -13,13 0,0.552 -0.448,1 -1,1"
   id="path5977"
   inkscape:connector-curvature="0" />
			<path
   d="M 56.999,7.042 C 56.774,7.042 56.55,6.967 56.362,6.813 52.61,3.709 47.864,2 43,2 38.135,2 33.389,3.709 29.637,6.812 29.266,7.117 28.732,7.117 28.362,6.812 24.609,3.709 19.863,2 15.001,2 10.136,2 5.39,3.709 1.638,6.812 1.212,7.165 0.581,7.105 0.229,6.679 -0.123,6.253 -0.064,5.622 0.362,5.271 4.474,1.871 9.673,0 15.001,0 c 5.055,0 9.994,1.686 14,4.763 C 33.004,1.686 37.944,0 43,0 c 5.328,0 10.525,1.871 14.637,5.271 0.426,0.352 0.484,0.982 0.133,1.408 -0.197,0.24 -0.482,0.363 -0.771,0.363"
   id="path5979"
   inkscape:connector-curvature="0" />
			<path
   d="m 42.981,27.988 c -6.018,0 -5.127,-7.31 -5.127,-7.31 0,0 1.027,-2.316 5.127,-2.316 4.102,0 5.17,2.316 5.17,2.316 0,0 0.844,7.31 -5.17,7.31 M 43,16 c -6.285,0 -8.115,5.679 -8.115,19.004 v 0.6 C 37.227,37.114 40.006,38 43,38 c 2.992,0 5.771,-0.887 8.113,-2.396 v -0.6 C 51.114,21.679 49.284,16 43,16"
   id="path5981"
   inkscape:connector-curvature="0" />
			<path
   d="m 0.999,12.712 c -0.221,0 -0.443,-0.073 -0.628,-0.223 -0.43,-0.347 -0.495,-0.977 -0.149,-1.406 3.638,-4.502 9.023,-7.084 14.779,-7.084 5.357,0 10.396,2.237 14,6.179 3.603,-3.941 8.64,-6.179 14,-6.179 5.756,0 11.141,2.582 14.777,7.083 0.348,0.43 0.279,1.06 -0.15,1.406 -0.43,0.346 -1.059,0.28 -1.406,-0.148 C 52.967,8.311 48.149,5.999 43,5.999 c -5.149,0 -9.969,2.312 -13.223,6.341 -0.191,0.233 -0.476,0.371 -0.777,0.371 -0.304,0 -0.589,-0.138 -0.779,-0.371 C 24.967,8.311 20.149,5.999 15,5.999 9.853,5.999 5.032,8.311 1.776,12.34 1.58,12.584 1.292,12.712 0.999,12.712"
   id="path5983"
   inkscape:connector-curvature="0" />
		</g>
	</g>
</svg>