<?xml version="1.0" encoding="UTF-8" standalone="no"?>
<!-- Generator: Adobe Illustrator 14.0.0, SVG Export Plug-In . SVG Version: 6.00 Build 43363)  -->

<svg
   xmlns:i="http://ns.adobe.com/AdobeIllustrator/10.0/"
   xmlns:dc="http://purl.org/dc/elements/1.1/"
   xmlns:cc="http://creativecommons.org/ns#"
   xmlns:rdf="http://www.w3.org/1999/02/22-rdf-syntax-ns#"
   xmlns:svg="http://www.w3.org/2000/svg"
   xmlns="http://www.w3.org/2000/svg"
   xmlns:sodipodi="http://sodipodi.sourceforge.net/DTD/sodipodi-0.dtd"
   xmlns:inkscape="http://www.inkscape.org/namespaces/inkscape"
   version="1.1"
   id="Layer_1"
   x="0px"
   y="0px"
   width="30px"
   height="60px"
   viewBox="0 0 30 60"
   enable-background="new 0 0 30 60"
   xml:space="preserve"
   inkscape:version="0.48.2 r9819"
   sodipodi:docname="vertical_drag.svg"><metadata
   id="metadata6160"><rdf:RDF><cc:Work
       rdf:about=""><dc:format>image/svg+xml</dc:format><dc:type
         rdf:resource="http://purl.org/dc/dcmitype/StillImage" /></cc:Work></rdf:RDF></metadata><defs
   id="defs6158" /><sodipodi:namedview
   pagecolor="#ffffff"
   bordercolor="#666666"
   borderopacity="1"
   objecttolerance="10"
   gridtolerance="10"
   guidetolerance="10"
   inkscape:pageopacity="0"
   inkscape:pageshadow="2"
   inkscape:window-width="640"
   inkscape:window-height="480"
   id="namedview6156"
   showgrid="false"
   inkscape:zoom="3.9333333"
   inkscape:cx="15"
   inkscape:cy="30"
   inkscape:window-x="0"
   inkscape:window-y="0"
   inkscape:window-maximized="0"
   inkscape:current-layer="Layer_1" />
	<g
   i:extraneous="self"
   id="g6144"
   transform="translate(0,-15)">
		<g
   id="g6146">
			<polygon
   points="20,53.438 16,56.641 16,50 14,50 14,56.64 10,53.438 10,56 15,60 20,56 "
   id="polygon6148" />
			<polygon
   points="10,6.562 14,3.36 14,10 16,10 16,3.361 20,6.562 20,4 14.998,0 10,4 "
   id="polygon6150" />
			<g
   id="g6152">
				<path
   d="M 23.096,40.153 C 22.924,28.162 20.98,23 15,23 9.018,23 7.076,28.162 6.902,40.153 3.918,37.77 2,34.107 2,30 2,22.831 7.832,17 15,17 c 7.168,0 13,5.831 13,13 0,4.107 -1.92,7.77 -4.904,10.153 M 14.98,34.989 c -6.018,0 -5.127,-7.31 -5.127,-7.31 0,0 1.027,-2.316 5.127,-2.316 4.102,0 5.17,2.316 5.17,2.316 0,0 0.846,7.31 -5.17,7.31 M 15,15 C 6.729,15 0,21.729 0,30 0,38.271 6.729,45 15,45 23.27,45 30,38.271 30,30 30,21.729 23.27,15 15,15"
   id="path6154"
   inkscape:connector-curvature="0" />
			</g>
		</g>
	</g>
</svg>