<?xml version="1.0" encoding="UTF-8" standalone="no"?>
<!-- Generator: Adobe Illustrator 15.1.0, SVG Export Plug-In . SVG Version: 6.00 Build 0)  -->

<svg
   xmlns:dc="http://purl.org/dc/elements/1.1/"
   xmlns:cc="http://creativecommons.org/ns#"
   xmlns:rdf="http://www.w3.org/1999/02/22-rdf-syntax-ns#"
   xmlns:svg="http://www.w3.org/2000/svg"
   xmlns="http://www.w3.org/2000/svg"
   xmlns:sodipodi="http://sodipodi.sourceforge.net/DTD/sodipodi-0.dtd"
   xmlns:inkscape="http://www.inkscape.org/namespaces/inkscape"
   version="1.1"
   x="0px"
   y="0px"
   width="30px"
   height="72px"
   viewBox="0 0 30 72"
   style="enable-background:new 0 0 30 72;"
   xml:space="preserve"
   id="svg6241"
   inkscape:version="0.48.2 r9819"
   sodipodi:docname="vertical_flick.svg"><metadata
   id="metadata6263"><rdf:RDF><cc:Work
       rdf:about=""><dc:format>image/svg+xml</dc:format><dc:type
         rdf:resource="http://purl.org/dc/dcmitype/StillImage" /></cc:Work></rdf:RDF></metadata><defs
   id="defs6261" /><sodipodi:namedview
   pagecolor="#ffffff"
   bordercolor="#666666"
   borderopacity="1"
   objecttolerance="10"
   gridtolerance="10"
   guidetolerance="10"
   inkscape:pageopacity="0"
   inkscape:pageshadow="2"
   inkscape:window-width="789"
   inkscape:window-height="480"
   id="namedview6259"
   showgrid="false"
   inkscape:zoom="3.2777778"
   inkscape:cx="15"
   inkscape:cy="36"
   inkscape:window-x="0"
   inkscape:window-y="0"
   inkscape:window-maximized="0"
   inkscape:current-layer="svg6241" />
<g
   id="Layer_1">
</g>
<g
   id="Gestures"
   transform="translate(0,-21)">
	<g
   id="g6245">
		<g
   id="Flick_Vertically_2_">
			<g
   id="Tap__x28_Stroked_x29__2_">
				<path
   style="fill:#010101"
   d="M 1,37 C 0.448,37 0,36.552 0,36 0,27.729 6.729,21 15.001,21 23.271,21 30,27.729 30,35.999 c 0,0.552 -0.447,1 -1,1 -0.553,0 -1,-0.448 -1,-1 C 28,28.832 22.168,23 15.001,23 7.832,23 2,28.832 2,36 2,36.552 1.552,37 1,37 z"
   id="path6249"
   inkscape:connector-curvature="0" />
				<path
   style="fill:#010101"
   d="M 15,29 C 8.716,29 6.886,34.679 6.886,48.005 v 0.599 C 9.227,50.113 12.007,51 15,51 c 2.992,0 5.773,-0.887 8.114,-2.396 V 48.005 C 23.114,34.679 21.284,29 15,29 z m -0.019,11.989 c -6.018,0 -5.127,-7.311 -5.127,-7.311 0,0 1.026,-2.315 5.127,-2.315 4.101,0 5.17,2.315 5.17,2.315 0,0 0.845,7.311 -5.17,7.311 z"
   id="path6251"
   inkscape:connector-curvature="0" />
			</g>
			<polygon
   style="fill:#010101"
   points="20,59.438 16,62.64 16,56 14,56 14,62.639 10,59.438 10,62 15.001,66 20,62 "
   id="polygon6253" />
			<polygon
   id="Arrow_7_"
   style="fill:#010101"
   points="10,65.438 10,68 15.001,72 20,68 20,65.438 15,69.443 " />
			<polygon
   style="fill:#010101"
   points="20,12.562 16,9.36 16,16 14,16 14,9.361 10,12.562 10,10 15.001,6 20,10 "
   id="polygon6256" />
			<polygon
   id="Arrow_6_"
   style="fill:#010101"
   points="10,6.562 10,4 15.001,0 20,4 20,6.562 15,2.557 " />
		</g>
	</g>
</g>
</svg>