<?xml version="1.0" encoding="UTF-8" standalone="no"?>
<!-- Generator: Adobe Illustrator 14.0.0, SVG Export Plug-In . SVG Version: 6.00 Build 43363)  -->

<svg
   xmlns:i="http://ns.adobe.com/AdobeIllustrator/10.0/"
   xmlns:dc="http://purl.org/dc/elements/1.1/"
   xmlns:cc="http://creativecommons.org/ns#"
   xmlns:rdf="http://www.w3.org/1999/02/22-rdf-syntax-ns#"
   xmlns:svg="http://www.w3.org/2000/svg"
   xmlns="http://www.w3.org/2000/svg"
   xmlns:sodipodi="http://sodipodi.sourceforge.net/DTD/sodipodi-0.dtd"
   xmlns:inkscape="http://www.inkscape.org/namespaces/inkscape"
   version="1.1"
   id="Layer_1"
   x="0px"
   y="0px"
   width="30px"
   height="60px"
   viewBox="0 0 30 60"
   enable-background="new 0 0 30 60"
   xml:space="preserve"
   inkscape:version="0.48.2 r9819"
   sodipodi:docname="vertical_swipe.svg"><metadata
   id="metadata6305"><rdf:RDF><cc:Work
       rdf:about=""><dc:format>image/svg+xml</dc:format><dc:type
         rdf:resource="http://purl.org/dc/dcmitype/StillImage" /></cc:Work></rdf:RDF></metadata><defs
   id="defs6303" /><sodipodi:namedview
   pagecolor="#ffffff"
   bordercolor="#666666"
   borderopacity="1"
   objecttolerance="10"
   gridtolerance="10"
   guidetolerance="10"
   inkscape:pageopacity="0"
   inkscape:pageshadow="2"
   inkscape:window-width="640"
   inkscape:window-height="480"
   id="namedview6301"
   showgrid="false"
   inkscape:zoom="3.9333333"
   inkscape:cx="15"
   inkscape:cy="30"
   inkscape:window-x="0"
   inkscape:window-y="0"
   inkscape:window-maximized="0"
   inkscape:current-layer="Layer_1" />
	<g
   i:extraneous="self"
   id="g6287"
   transform="translate(0,-15)">
		<g
   id="g6289">
			<polygon
   points="20,53.438 16,56.641 16,50 14,50 14,56.639 10,53.438 10,56 15.002,60 20,56 "
   id="polygon6291" />
			<polygon
   points="10,6.562 14,3.36 14,10 16,10 16,3.361 20,6.562 20,4 15,0 10,4 "
   id="polygon6293" />
			<g
   id="g6295">
				<path
   d="M 1,31 C 0.449,31 0,30.552 0,30 0,21.729 6.73,15 15.002,15 23.271,15 30,21.729 30,29.999 c 0,0.552 -0.447,1 -1,1 -0.551,0 -1,-0.448 -1,-1 C 28,22.831 22.168,17 15.002,17 7.832,17 2,22.831 2,30 2,30.552 1.553,31 1,31"
   id="path6297"
   inkscape:connector-curvature="0" />
				<path
   d="m 14.982,34.989 c -6.018,0 -5.127,-7.311 -5.127,-7.311 0,0 1.025,-2.315 5.127,-2.315 4.1,0 5.17,2.315 5.17,2.315 0,0 0.844,7.311 -5.17,7.311 M 15,23 C 8.717,23 6.887,28.679 6.887,42.004 v 0.6 C 9.229,44.114 12.008,45 15,45 c 2.994,0 5.773,-0.887 8.115,-2.396 v -0.6 C 23.115,28.679 21.285,23 15,23"
   id="path6299"
   inkscape:connector-curvature="0" />
			</g>
		</g>
	</g>
</svg>