<?xml version="1.0" encoding="UTF-8" standalone="no"?>
<!-- Generator: Adobe Illustrator 12.0.1, SVG Export Plug-In . SVG Version: 6.00 Build 51448)  -->

<svg
   xmlns:dc="http://purl.org/dc/elements/1.1/"
   xmlns:cc="http://creativecommons.org/ns#"
   xmlns:rdf="http://www.w3.org/1999/02/22-rdf-syntax-ns#"
   xmlns:svg="http://www.w3.org/2000/svg"
   xmlns="http://www.w3.org/2000/svg"
   xmlns:sodipodi="http://sodipodi.sourceforge.net/DTD/sodipodi-0.dtd"
   xmlns:inkscape="http://www.inkscape.org/namespaces/inkscape"
   version="1.1"
   id="Layer_1"
   width="300"
   height="300"
   viewBox="0 0 299.99999 299.99999"
   overflow="visible"
   enable-background="new 0 0 127.079 347.252"
   xml:space="preserve"
   inkscape:version="0.48.2 r9819"
   sodipodi:docname="boy.svg"
   style="overflow:visible"><metadata
   id="metadata9"><rdf:RDF><cc:Work
       rdf:about=""><dc:format>image/svg+xml</dc:format><dc:type
         rdf:resource="http://purl.org/dc/dcmitype/StillImage" /></cc:Work></rdf:RDF></metadata><defs
   id="defs7" /><sodipodi:namedview
   pagecolor="#ffffff"
   bordercolor="#666666"
   borderopacity="1"
   objecttolerance="10"
   gridtolerance="10"
   guidetolerance="10"
   inkscape:pageopacity="0"
   inkscape:pageshadow="2"
   inkscape:window-width="843"
   inkscape:window-height="612"
   id="namedview5"
   showgrid="false"
   inkscape:zoom="0.67962169"
   inkscape:cx="63.539501"
   inkscape:cy="173.62601"
   inkscape:window-x="0"
   inkscape:window-y="0"
   inkscape:window-maximized="0"
   inkscape:current-layer="Layer_1" />
<path
   d="m 194.59409,28.704847 c 0,0 -0.16786,-19.9143917 -21.73497,-22.8907767 -21.56209,-2.9788914 -69.43898,1.144956 -63.96223,30.5806087 l 3.64449,-1.783827 c 0,0 -3.93177,-13.702732 11.37023,-9.934648 -5.65547,8.01219 -6.56743,21.920362 -6.54989,30.013559 -1.69113,0.159509 -3.15092,1.841451 -3.3572,4.10297 -0.1996,2.260683 0.93952,4.167274 2.58388,4.60822 -12.14857,29.526681 9.05442,28.402603 15.40555,35.201357 2.70497,2.89371 4.20318,6.73111 5.03998,10.23696 -5.30221,-0.37497 -8.9659,-1.31114 -8.9659,-1.31114 0,0 -16.70167,18.72266 -18.52892,56.33252 0,0 3.28705,1.92831 8.95922,3.97019 v 88.78715 c 0,0 -6.52567,4.59319 -21.562096,1.783 v 7.73826 c 0,0 24.534306,5.83586 41.469806,1.95754 v 5.02244 c -6.52567,8.1717 -27.65016,14.1253 -27.65016,14.1253 v 7.5796 c 39.04043,1.78132 47.39001,-10.55682 47.39001,-10.55682 10.176,1.19423 19.13271,-1.78299 19.13271,-1.78299 l 0.57039,-70.42275 c 12.67887,0.0668 20.19667,-12.17279 15.68449,-17.73138 -4.7051,-5.79076 -7.13698,-2.97638 -7.13698,2.38178 0,5.35649 -3.65033,-1.18922 -3.65033,-1.18922 v -8.0481 c 3.78896,-1.70282 5.47675,-3.69793 5.47675,-3.69793 3.64949,-42.20889 -19.29557,-85.77236 -19.29557,-85.77236 -3.55846,4.24745 -7.98964,6.92152 -12.61373,8.57757 0.17204,-7.70486 2.04272,-11.988221 3.93678,-11.988221 20.87897,0 25.21494,-20.67018 25.21494,-20.67018 0,0 9.62231,0.6681 11.99907,-5.194478 4.64246,-11.427851 1.17251,-14.289825 -2.48617,-14.719079 4.43619,-0.911122 7.34994,-1.824749 7.34994,-1.824749 0,0 4.26247,-20.503155 -7.73409,-23.480376 z"
   id="path3"
   inkscape:connector-curvature="0" />
</svg>