<?xml version="1.0" encoding="UTF-8" standalone="no"?>
<!-- Created with Inkscape (http://www.inkscape.org/) -->

<svg
   xmlns:dc="http://purl.org/dc/elements/1.1/"
   xmlns:cc="http://creativecommons.org/ns#"
   xmlns:rdf="http://www.w3.org/1999/02/22-rdf-syntax-ns#"
   xmlns:svg="http://www.w3.org/2000/svg"
   xmlns="http://www.w3.org/2000/svg"
   xmlns:sodipodi="http://sodipodi.sourceforge.net/DTD/sodipodi-0.dtd"
   xmlns:inkscape="http://www.inkscape.org/namespaces/inkscape"
   width="300"
   height="300"
   id="svg2"
   version="1.1"
   inkscape:version="0.48.2 r9819"
   sodipodi:docname="cello.svg">
  <defs
     id="defs4" />
  <sodipodi:namedview
     id="base"
     pagecolor="#ffffff"
     bordercolor="#666666"
     borderopacity="1.0"
     inkscape:pageopacity="0.0"
     inkscape:pageshadow="2"
     inkscape:zoom="1.3566667"
     inkscape:cx="61.916464"
     inkscape:cy="150"
     inkscape:document-units="px"
     inkscape:current-layer="layer1"
     showgrid="false"
     inkscape:window-width="776"
     inkscape:window-height="663"
     inkscape:window-x="200"
     inkscape:window-y="200"
     inkscape:window-maximized="0" />
  <metadata
     id="metadata7">
    <rdf:RDF>
      <cc:Work
         rdf:about="">
        <dc:format>image/svg+xml</dc:format>
        <dc:type
           rdf:resource="http://purl.org/dc/dcmitype/StillImage" />
        <dc:title />
      </cc:Work>
    </rdf:RDF>
  </metadata>
  <g
     inkscape:label="Layer 1"
     inkscape:groupmode="layer"
     id="layer1"
     transform="translate(0,-752.36218)">
    <g
       id="g5"
       transform="matrix(0.63094839,0,0,0.63094839,93.657656,757.41104)">
      <path
         id="path7"
         style="fill-rule:evenodd;stroke:#000000;stroke-width:0.036;stroke-miterlimit:10"
         d="m 87.558,133.928 c -2.736,3.42 -6.552,7.308 -11.736,11.808 -5.256,4.536 -12.888,9.9 -19.152,14.976 -6.3,4.932 -12.816,9.108 -18,14.328 -5.328,5.112 -9.612,11.34 -12.996,16.164 -3.456,4.716 -5.472,7.128 -6.876,11.952 -1.404,4.68 -1.728,11.088 -1.368,16.164 0.252,4.968 1.872,10.224 3.06,13.824 1.188,3.492 3.096,5.185 3.78,7.416 0.432,2.269 -0.18,4.177 -0.576,5.868 -0.396,1.548 -0.9,2.628 -1.656,3.384 l 0,0 c 3.96,0.108 7.308,1.116 10.188,3.024 2.736,1.8 5.292,3.852 6.696,8.1 1.368,4.068 1.98,11.305 1.404,16.849 -0.756,5.544 -2.16,12.275 -5.58,16.164 -3.528,3.708 -8.316,5.832 -14.94,6.372 l 0,0 c 2.376,1.403 3.96,2.987 4.608,4.896 0.612,1.8 0.972,3.276 -0.72,6.229 -1.908,2.916 -6.732,7.056 -9.756,11.447 -3.06,4.212 -5.58,8.425 -7.848,14.148 -2.376,5.652 -4.932,11.952 -5.58,19.728 -0.756,7.668 -0.972,18.145 1.836,26.425 2.952,8.279 8.352,16.56 15.228,22.752 6.696,5.903 14.976,10.188 24.84,13.428 9.756,3.24 20.988,5.688 33.696,6.228 12.708,0.324 28.944,-0.72 41.904,-3.708 12.852,-3.06 26.243,-8.855 34.775,-14.328 8.424,-5.544 11.304,-11.124 15.588,-18.684 4.177,-7.704 7.345,-16.596 9.504,-27.108 l 0,0 c 0.685,-4.571 0.864,-9.684 0.54,-15.768 -0.468,-6.156 -0.936,-14.472 -2.664,-20.376 -1.836,-6.084 -5.363,-11.304 -7.523,-14.976 -2.196,-3.673 -4.248,-4.933 -5.185,-6.553 -1.008,-1.691 -0.72,-2.268 -0.54,-3.384 0.217,-1.151 0.721,-2.52 1.513,-3.528 0.611,-1.151 1.548,-2.123 2.52,-3.06 l 0,0 c -2.844,-0.324 -5.399,-1.476 -7.668,-3.06 -2.448,-1.729 -4.68,-3.889 -6.155,-6.912 -1.549,-3.204 -2.809,-7.488 -2.664,-11.448 0,-4.068 1.115,-8.856 3.491,-12.132 2.376,-3.24 6.013,-5.544 10.908,-7.057 l 0,0 c -1.368,-1.979 -2.016,-3.672 -1.944,-5.075 0.072,-1.477 1.332,-1.225 2.377,-3.528 1.044,-2.484 2.951,-6.588 3.491,-10.764 0.324,-4.356 0.181,-9.145 -1.26,-14.508 -1.584,-5.364 -3.6,-10.908 -7.56,-17.316 -4.032,-6.516 -6.84,-11.844 -16.2,-21.24 -9.504,-9.468 -30.744,-27.144 -40.104,-34.992 -9.36,-7.849 -14.544,-11.953 -15.696,-12.169 l 0,0 z"
         inkscape:connector-curvature="0" />
      <path
         id="path9"
         style="fill-rule:evenodd;stroke:#000000;stroke-width:0.036;stroke-miterlimit:10"
         d="m 106.313,245.78 c -0.612,0.72 -2.809,1.332 -6.444,1.691 -3.888,0.288 -10.763,1.008 -15.624,0.648 -4.824,-0.433 -9.108,-1.332 -12.996,-2.844 l 0,0 9,-179.893 16.956,0 0,0 c 3.024,60.122 6.048,120.242 9.108,180.398 l 0,0 z"
         inkscape:connector-curvature="0" />
      <path
         id="path11"
         style="fill-rule:evenodd;stroke:#000000;stroke-width:0.036;stroke-miterlimit:10"
         d="m 97.638,34.388 8.1,0.108 0,0 c 0.36,-1.548 0.864,-2.664 1.8,-3.636 0.9,-1.008 1.98,-1.908 3.384,-2.016 1.332,-0.18 3.133,0.216 4.429,1.332 1.151,1.116 2.231,2.88 2.664,5.148 0.359,2.16 0.575,6.012 -0.469,7.812 -1.332,1.764 -4.283,2.844 -6.336,2.412 -1.943,-0.576 -3.708,-2.592 -5.292,-5.904 l 0,0 -7.452,0 0,0 c -0.253,-1.728 -0.541,-3.492 -0.828,-5.256 l 0,0 z"
         inkscape:connector-curvature="0" />
      <path
         id="path13"
         style="fill-rule:evenodd;stroke:#000000;stroke-width:0.036;stroke-miterlimit:10"
         d="m 97.709,53.504 8.137,0.108 0,0 c 0.252,-1.548 0.936,-2.664 1.764,-3.636 0.864,-1.08 2.052,-1.944 3.42,-2.052 1.332,-0.216 3.132,0.288 4.428,1.368 1.188,1.152 2.16,2.808 2.628,5.112 0.36,2.124 0.576,6.084 -0.468,7.848 -1.188,1.728 -4.392,2.844 -6.3,2.376 -1.944,-0.576 -3.708,-2.592 -5.292,-5.904 l 0,0 -7.452,0 0,0 c -0.289,-1.728 -0.577,-3.456 -0.865,-5.22 l 0,0 z"
         inkscape:connector-curvature="0" />
      <path
         id="path15"
         style="fill-rule:evenodd;stroke:#000000;stroke-width:0.036;stroke-miterlimit:10"
         d="m 83.526,39.392 -8.1,0.108 0,0 c -0.396,-1.548 -0.9,-2.664 -1.8,-3.636 -0.936,-1.08 -2.124,-1.944 -3.42,-2.052 -1.44,-0.216 -3.24,0.288 -4.428,1.368 -1.26,1.152 -2.268,2.808 -2.628,5.112 -0.468,2.124 -0.684,6.084 0.468,7.848 1.116,1.764 4.284,2.844 6.3,2.412 1.908,-0.612 3.672,-2.592 5.292,-5.94 l 0,0 7.452,0 0,0 c 0.288,-1.728 0.576,-3.456 0.864,-5.22 l 0,0 z"
         inkscape:connector-curvature="0" />
      <path
         id="path17"
         style="fill-rule:evenodd;stroke:#000000;stroke-width:0.036;stroke-miterlimit:10"
         d="m 81.078,59.624 -8.136,0.108 0,0 c -0.288,-1.548 -0.972,-2.664 -1.764,-3.636 -0.936,-1.008 -2.124,-1.908 -3.42,-2.016 -1.44,-0.18 -3.24,0.216 -4.428,1.332 -1.26,1.116 -2.268,2.88 -2.628,5.148 -0.468,2.16 -0.684,6.012 0.468,7.812 1.116,1.764 4.284,2.844 6.3,2.412 1.908,-0.576 3.672,-2.592 5.292,-5.904 l 0,0 7.452,0 0,0 c 0.288,-1.728 0.576,-3.492 0.864,-5.256 l 0,0 z"
         inkscape:connector-curvature="0" />
      <path
         id="path19"
         style="fill-rule:evenodd;stroke:#000000;stroke-width:0.036;stroke-miterlimit:10"
         d="m 84.426,69.992 c -1.8,0.072 -3.168,0.072 -4.248,0 -1.116,-0.145 -1.692,0 -2.16,-0.684 -0.54,-0.828 -1.152,-1.332 -0.864,-3.996 0.072,-2.88 1.08,-6.624 1.908,-12.492 0.792,-5.94 1.872,-13.392 3.096,-22.644 l 0,0 C 80.862,28.844 79.962,27.26 79.602,25.424 79.206,23.588 79.35,21.5 79.89,19.16 l 0,0 c -0.504,-0.324 -0.828,-0.756 -1.116,-1.584 -0.324,-0.936 -0.612,-2.052 -0.576,-3.204 -0.072,-1.26 0.144,-3.06 0.648,-3.744 0.468,-0.756 1.224,-0.9 2.268,-0.576 l 0,0 c 0.684,-2.844 1.44,-4.824 2.268,-6.48 0.72,-1.692 1.26,-2.484 2.736,-3.06 1.476,-0.576 4.572,-0.648 6.228,-0.216 1.439,0.432 2.52,1.836 3.096,2.844 0.54,0.864 0.72,1.944 0.396,2.844 l 0,0 c 0.576,-0.36 1.368,-0.36 1.98,0 0.576,0.396 1.512,1.08 1.979,2.052 0.433,0.828 0.576,1.8 0.576,3.06 l 0,0 c 0.72,-0.54 1.332,-0.396 1.692,0.432 0.396,0.756 0.54,3.168 0.576,4.464 -0.072,1.188 -0.324,2.268 -0.756,2.952 -0.54,0.612 -1.332,0.828 -2.377,0.792 l 0,0 c 0.072,1.584 0.072,2.664 0,3.528 -0.144,0.72 -0.359,1.224 -0.647,1.224 l 0,0 c 0.144,1.944 0.252,5.292 0.468,10.476 0.108,5.148 0.433,14.508 0.576,20.016 0.036,5.292 0.468,9.36 0.18,12.06 -0.396,2.664 -1.224,3.528 -1.907,3.96 -0.685,0.36 -1.404,-0.288 -2.16,-1.8 l 0,0 c -1.656,0.828 -3.492,1.152 -5.364,1.368 -1.944,0.18 -4.068,-0.144 -6.228,-0.576 l 0,0 z"
         inkscape:connector-curvature="0" />
      <path
         id="path21"
         style="fill-rule:evenodd;stroke:#000000;stroke-width:0.036;stroke-miterlimit:10"
         d="m 77.694,345.932 c 0,1.116 0.864,2.017 1.908,2.017 1.044,0 1.908,-0.9 1.908,-2.017 0,-1.08 -0.864,-1.979 -1.908,-1.979 -1.044,-10e-4 -1.908,0.899 -1.908,1.979 l 0,0 z"
         inkscape:connector-curvature="0" />
      <path
         id="path23"
         style="fill-rule:evenodd;stroke:#000000;stroke-width:0.036;stroke-miterlimit:10"
         d="m 83.022,346.256 c 0,1.08 0.864,1.98 1.908,1.98 1.044,0 1.908,-0.9 1.908,-1.98 0,-1.116 -0.864,-1.979 -1.908,-1.979 -1.044,0 -1.908,0.863 -1.908,1.979 l 0,0 z"
         inkscape:connector-curvature="0" />
      <path
         id="path25"
         style="fill-rule:evenodd;stroke:#000000;stroke-width:0.036;stroke-miterlimit:10"
         d="m 87.594,345.932 c 0,1.116 0.828,2.017 1.908,2.017 1.043,0 1.872,-0.9 1.872,-2.017 0,-1.08 -0.828,-1.979 -1.872,-1.979 -1.08,-10e-4 -1.908,0.899 -1.908,1.979 l 0,0 z"
         inkscape:connector-curvature="0" />
      <path
         id="path27"
         style="fill-rule:evenodd;stroke:#000000;stroke-width:0.036;stroke-miterlimit:10"
         d="m 93.93,346.256 c 0,1.08 0.827,1.98 1.907,1.98 1.044,0 1.872,-0.9 1.872,-1.98 0,-1.116 -0.828,-1.979 -1.872,-1.979 -1.08,-10e-4 -1.907,0.863 -1.907,1.979 l 0,0 z"
         inkscape:connector-curvature="0" />
      <path
         id="path29"
         style="fill-rule:evenodd;stroke:#000000;stroke-width:0.036;stroke-miterlimit:10"
         d="m 86.298,424.988 c -0.144,3.204 -0.144,5.544 0.144,7.451 0.216,1.801 0.612,2.412 1.188,3.385 0.504,0.828 1.224,1.512 2.016,1.908 l 0,0 0.216,15.552 0,0 c -0.72,1.26 -1.296,2.376 -1.44,3.348 -0.396,0.937 -0.396,1.872 0.144,2.412 0.612,0.396 2.771,0.504 3.708,0.324 0.792,-0.252 1.548,-1.008 1.439,-1.98 -0.288,-1.116 -1.872,-3.6 -2.268,-4.248 -0.396,-0.72 -0.396,-0.72 0,0 l 0,0 0.108,-15.155 0,0 c 0.756,-0.288 1.512,-1.188 1.871,-2.305 0.36,-1.332 0.396,-2.952 0.54,-4.859 0.036,-1.872 0.072,-3.996 -0.035,-6.372 l 0,0 c -2.52,0.179 -5.075,0.359 -7.631,0.539 l 0,0 z"
         inkscape:connector-curvature="0" />
      <path
         id="path31"
         style="fill-rule:evenodd;stroke:#000000;stroke-width:0.036;stroke-miterlimit:10"
         d="m 86.658,428.588 -3.204,0.072 0,0 c -0.252,-0.721 -0.648,-1.152 -1.188,-1.296 -0.576,-0.252 -1.8,-0.217 -2.16,0.252 -0.468,0.54 -0.504,1.836 -0.396,2.771 0.036,0.864 0.324,1.62 0.864,2.124 0.576,0.324 1.62,0.54 2.304,0.252 0.54,-0.359 0.792,-1.08 0.9,-2.16 l 0,0 2.916,-0.144 0,0 c 0,-0.611 0,-1.223 -0.036,-1.871 l 0,0 z"
         inkscape:connector-curvature="0" />
    </g>
  </g>
</svg>
