<?xml version="1.0" encoding="utf-8"?>
<!-- Generator: Adobe Illustrator 15.1.0, SVG Export Plug-In . SVG Version: 6.00 Build 0)  -->
<!DOCTYPE svg PUBLIC "-//W3C//DTD SVG 1.1//EN" "http://www.w3.org/Graphics/SVG/1.1/DTD/svg11.dtd">
<svg version="1.1"
	 id="Layer_1" sodipodi:docname="cup.svg" inkscape:version="0.48.2 r9819" xmlns:dc="http://purl.org/dc/elements/1.1/" xmlns:cc="http://creativecommons.org/ns#" xmlns:rdf="http://www.w3.org/1999/02/22-rdf-syntax-ns#" xmlns:svg="http://www.w3.org/2000/svg" xmlns:sodipodi="http://sodipodi.sourceforge.net/DTD/sodipodi-0.dtd" xmlns:inkscape="http://www.inkscape.org/namespaces/inkscape"
	 xmlns="http://www.w3.org/2000/svg" xmlns:xlink="http://www.w3.org/1999/xlink" x="0px" y="0px" width="300px" height="300px"
	 viewBox="0 0 300 300" enable-background="new 0 0 300 300" xml:space="preserve">
<sodipodi:namedview  inkscape:current-layer="Layer_1" inkscape:window-height="725" inkscape:window-x="0" inkscape:window-width="1043" inkscape:window-y="0" inkscape:pageshadow="2" inkscape:pageopacity="0" bordercolor="#666666" borderopacity="1" inkscape:cx="139.79601" id="namedview251" inkscape:window-maximized="0" showgrid="false" pagecolor="#ffffff" inkscape:zoom="0.82356226" inkscape:cy="143.28" gridtolerance="10" objecttolerance="10" guidetolerance="10">
	</sodipodi:namedview>
<g id="cup">
	<path id="path237" d="M285.103,142.131c-4.334-7.653-11.136-14.126-20.418-17.38c-3.917-1.378-8.03-2.075-12.11-2.107
		c-0.104-0.004-0.207,0-0.273,0c-11.014,0.002-21.195,4.503-29.408,11.369c-8.311,6.966-14.934,16.552-18.938,27.889l-1.013,2.862
		h0.073c-1.896,6.211-2.832,12.422-2.893,18.418c-0.006,0.192-0.006,0.387-0.006,0.572c0.006,9.339,2.117,18.195,6.377,25.719
		c4.334,7.664,11.142,14.137,20.418,17.386l0.73-2.022l0,0l-0.73,2.029c3.9,1.363,8.002,2.057,12.076,2.094h0.041h0.051
		c0.047-0.005,0.129,0,0.229,0c11.017-0.005,21.188-4.5,29.392-11.36c8.283-6.954,14.898-16.509,18.916-27.814l0.018-0.033
		l0.027-0.076c2.506-7.144,3.734-14.335,3.813-21.25c0-0.188,0-0.363,0-0.547C291.475,158.527,289.363,149.667,285.103,142.131z
		 M218.527,183.358c0.043-5.37,1.008-11.068,3.01-16.735l0.006-0.019l0.013-0.037l0.01-0.017c3.17-9.048,8.438-16.395,14.198-21.201
		c5.702-4.775,11.645-6.915,16.425-6.908c0.075,0,0.144,0,0.213,0c1.851,0.022,3.564,0.309,5.343,0.93
		c4.111,1.429,7.934,4.604,10.822,9.674c2.793,4.896,4.51,11.454,4.5,18.669c0,0.18,0,0.363,0,0.545
		c-0.043,5.343-1.008,11.026-2.992,16.69l-0.004,0.019l-0.027,0.062l-0.014,0.04c-3.17,9.036-8.439,16.382-14.199,21.177
		c-5.701,4.776-11.652,6.923-16.422,6.916c-0.101,0-0.178,0-0.233,0c-1.826-0.021-3.554-0.315-5.347-0.928
		c-4.093-1.425-7.914-4.607-10.803-9.669c-2.802-4.914-4.512-11.479-4.508-18.702c0-0.153,0-0.318,0-0.494l-2.171-0.029
		L218.527,183.358z"/>
	<path id="path239" d="M242.629,199.174c9.421-24.521,11.492-51.291,11.5-82.78c0-1.512-0.623-2.994-1.719-4.059
		c-1.094-1.08-2.597-1.694-4.144-1.694H35.66c-1.552,0-3.061,0.614-4.15,1.684c-1.099,1.074-1.721,2.559-1.721,4.068
		c0.006,31.592,2.863,59.601,12.656,84.688c4.785,12.288,11.273,23.813,19.808,34.596h158.99
		C230.776,224.033,237.717,211.967,242.629,199.174z"/>
	<path id="path241" d="M275.852,246.35c-0.885-2.171-3.05-3.605-5.443-3.605h-49.164H62.253H14.395
		c-2.374,0-4.517,1.398-5.417,3.552c-0.914,2.146-0.415,4.62,1.266,6.269c10.153,9.859,15.517,18.701,26.263,26.396
		c10.785,7.622,25.848,12.784,54.017,15.997l0.677,0.044h102.405l0.844-0.063c27.68-3.936,42.407-9.087,53.123-16.462
		c10.688-7.448,16.266-15.912,26.902-25.83C276.201,251.021,276.746,248.521,275.852,246.35z"/>
	<g id="g243">
		<path id="path245" d="M115.275,101.091c-8.189-9.242-11.936-17.596-11.936-25.488l0,0c0.02-8.356,4.164-14.872,8.388-20.146l0,0
			c4.28-5.309,8.867-9.868,11.482-14.162l0,0c1.759-2.873,2.665-5.402,2.673-8.159l0,0c0.016-4.07-2.103-9.899-10.409-18.41l0,0
			c-2.241-2.289-2.163-5.937,0.174-8.125l0,0c2.343-2.196,6.057-2.128,8.3,0.169l0,0c9.362,9.555,13.656,18.112,13.673,26.366l0,0
			c-0.028,8.197-4.217,14.53-8.411,19.708l0,0c-4.26,5.226-8.811,9.777-11.423,14.175l0,0c-1.768,2.945-2.699,5.609-2.706,8.583l0,0
			c-0.002,4.168,1.911,9.851,9.068,17.959l0,0c2.117,2.409,1.848,6.036-0.606,8.111l0,0c-1.107,0.943-2.468,1.407-3.833,1.407l0,0
			C118.072,103.08,116.436,102.403,115.275,101.091L115.275,101.091z"/>
		<path id="path247" d="M141.645,102.388c-8.194-9.25-11.932-17.604-11.934-25.496l0,0c0.02-8.357,4.163-14.866,8.378-20.143l0,0
			c4.28-5.311,8.867-9.861,11.486-14.163l0,0c1.763-2.869,2.659-5.397,2.666-8.157l0,0c0.024-4.074-2.1-9.892-10.399-18.403l0,0
			c-2.241-2.296-2.163-5.944,0.178-8.135l0,0c2.339-2.197,6.052-2.125,8.298,0.171l0,0c9.359,9.551,13.646,18.113,13.663,26.366l0,0
			c-0.024,8.204-4.211,14.522-8.403,19.713l0,0c-4.263,5.218-8.813,9.771-11.43,14.17l0,0c-1.761,2.942-2.702,5.607-2.702,8.58l0,0
			c-0.007,4.168,1.916,9.853,9.064,17.968l0,0c2.124,2.4,1.854,6.035-0.59,8.112l0,0c-1.11,0.944-2.476,1.405-3.839,1.405l0,0
			C144.439,104.377,142.801,103.702,141.645,102.388L141.645,102.388z"/>
		<path id="path249" d="M170.644,102.382c-8.183-9.235-11.925-17.589-11.925-25.479l0,0c0.007-8.361,4.16-14.877,8.377-20.152l0,0
			c4.279-5.306,8.873-9.861,11.486-14.163l0,0c1.758-2.867,2.666-5.397,2.672-8.157l0,0c0.016-4.068-2.1-9.892-10.413-18.403l0,0
			c-2.235-2.296-2.157-5.944,0.18-8.135l0,0c2.337-2.198,6.05-2.125,8.3,0.171l0,0c9.355,9.551,13.656,18.113,13.666,26.366l0,0
			c-0.027,8.204-4.209,14.522-8.402,19.713l0,0c-4.264,5.218-8.813,9.776-11.433,14.179l0,0c-1.759,2.941-2.698,5.6-2.704,8.582l0,0
			c0,4.157,1.918,9.842,9.068,17.959l0,0c2.125,2.399,1.855,6.034-0.594,8.111l0,0c-1.112,0.944-2.477,1.398-3.836,1.398l0,0
			C173.443,104.371,171.797,103.702,170.644,102.382L170.644,102.382z"/>
	</g>
</g>
</svg>
