<?xml version="1.0" encoding="utf-8"?>
<!-- Generator: Adobe Illustrator 15.1.0, SVG Export Plug-In . SVG Version: 6.00 Build 0)  -->
<!DOCTYPE svg PUBLIC "-//W3C//DTD SVG 1.1//EN" "http://www.w3.org/Graphics/SVG/1.1/DTD/svg11.dtd">
<svg version="1.1" id="Layer_1" xmlns="http://www.w3.org/2000/svg" xmlns:xlink="http://www.w3.org/1999/xlink" x="0px" y="0px"
	 width="300px" height="300px" viewBox="18.943 -20.529 300 300" enable-background="new 18.943 -20.529 300 300"
	 xml:space="preserve">
<path fill="#231F20" d="M260.212,190.99c-3.521,13.164-10.529,22.842-18.539,31.517c-4.24,2.974-8.19,6.421-12.978,9.064
	c-4.729,2.609-9.816,4.78-15.242,6.797c-3.713,0.61-7.226,1.539-11.536,1.854c-1.364,0.1-2.684,0.635-3.501,0.206
	c-1.444-0.758-0.912-3.511-0.411-5.356c1.109-4.093,2.078-7.133,3.089-10.917c2.437-9.115,4.733-18.439,7.21-27.396
	c-2.8-0.691-6.098-0.655-8.651-1.029c-8.52-1.25-16.049-5.15-22.246-9.064c-2.134-1.347-4.433-2.507-5.974-4.326
	c-2.095-1.153-4.11-2.892-5.768-4.737c-1.615-1.797-3.125-3.779-4.532-5.767c-2.847-4.024-4.603-9.043-8.651-11.948
	c-2.045,0.702-3.237,2.515-4.12,4.12c-2.935,5.333-3.659,12.311-4.738,19.98c-0.482,3.431-1.588,6.778-2.884,9.888
	c-2.202,5.286-5.597,9.108-10.093,12.153c-2.225,1.506-5.339,3.124-8.446,4.119c-2.783,0.892-9.298,2.102-12.977,1.235
	c-1.429-0.337-2.997-1.416-3.089-3.09c-0.04-0.708,0.487-1.666,0.824-2.678c0.67-2.014,0.897-3.531,1.854-5.15
	c-3.268-0.392-7.326-1.079-10.505-2.472c-1.849-0.809-3.211-1.59-4.738-2.678c-0.211-0.149-0.452-0.491-0.618-0.617
	c-0.111-0.085-0.527,0.103-0.618,0c-0.787-0.896-2.01-1.563-2.06-2.679c-0.048-1.07,2.312-4.258,3.09-4.943
	c0.469-0.413,1.168-0.454,1.648-0.823c1.095-0.844,2.214-2.602,3.914-3.092c1.195-2.278,4.118-2.856,5.356-5.149
	c0.075-0.139,0.092-0.455,0.206-0.617c0.273-0.392,1.153-1.54,1.648-2.06c0.704-0.74,1.736-1.134,2.265-1.854
	c0.773-1.053,0.947-2.646,1.442-3.915c-1.824,0.466-3.413,1.496-5.15,2.268c-5.086,2.254-11.265,4.061-17.303,5.768
	c-7.819,2.208-15.11,5.322-21.011,9.887c-1,0.773-1.92,1.829-2.884,2.678c-1.001,0.883-1.971,1.714-2.883,2.678
	c-1.843,1.948-3.208,4.464-5.15,5.974c-1.917,1.491-5.967,2.929-9.063,1.854c-1.5-0.521-2.381-1.665-3.501-2.885
	c-0.082-2.131-0.477-3.787,0-5.768c0.547-2.272,2.092-4.502,2.472-6.385c0.391-1.943,0.187-3.927,0.618-5.769
	c0.624-2.655,2.079-5.732,3.501-8.031c1.456-2.355,3.294-4.428,5.355-6.18c1.183-2.113,2.966-3.626,4.738-5.15
	c0.332-3.514,1.856-5.833,4.12-7.416c-0.017-3.381,1.352-5.378,4.531-5.561c0.882-1.591,1.657-3.288,4.12-3.296
	c0.868-1.468,2.149-2.521,4.326-2.678c0.609-1.244,0.931-2.776,2.472-3.09c-0.125-1.293,0.3-2.034,0.618-2.884
	c-0.417-1.505-0.79-3.055-0.618-5.149c-1.027-1.103-2.375-1.882-2.884-3.502c-0.894-0.273-1.527-0.807-2.472-1.03
	c-0.133-1.103-1.31-1.161-1.236-2.472c-2.009-0.15-4.082-0.606-5.562-1.648c-0.779-0.548-1.267-1.655-2.06-2.266
	c-0.952-0.733-2.273-0.955-3.09-1.648c-0.652-0.554-1.005-1.533-1.648-2.06c-0.759-0.622-1.879-0.785-2.678-1.441
	c-0.566-0.465-1.112-1.276-1.648-1.854c-0.578-0.623-1.36-1.17-1.442-2.061c-1.579-0.292-2.942-1.271-4.326-2.059
	c-1.264-0.719-2.547-1.765-4.119-2.678c-0.552-0.32-1.346-0.593-1.854-1.03c-1.922-1.652-3.068-4.329-3.502-7.416
	c-4.537-3.5-7.668-8.527-9.887-14.831c-0.827-2.35-2.086-6.349-1.648-10.299c0.189-1.704,0.841-3.324,0.618-5.149
	c-0.292-2.373-1.688-4.083-2.472-6.797c-0.52-1.798-0.704-3.697-1.236-4.944c-0.634-1.489-2.152-2.85-2.06-4.532
	c0.101-1.827,1.918-3.887,4.944-3.502c2.019,0.257,4.837,2.854,6.591,4.326c3.216,2.698,5.911,5.696,8.652,9.27
	c2.012,2.622,3.658,5.651,5.973,8.445c0.899,1.084,2.289,2.342,3.502,3.708c1.626,1.83,2.88,4.38,6.386,3.501
	c1.388-1.581,0.019-3.253-1.442-4.943c-1.866-2.16-3.49-4.089-5.149-6.386c-1.255-1.738-2.224-2.887-2.678-5.15
	c-1.186-1.208-2.083-3.122-3.501-4.532c-0.939-0.933-1.654-1.238-2.472-2.472c-0.399-0.602-1.253-2.586-1.442-3.914
	c-0.177-1.246-0.021-2.307-0.412-3.295c-0.763-1.931-3.271-3.564-2.678-7.21c0.379-2.333,2.957-4.688,5.15-4.943
	c3.43-0.398,5.621,2.135,7.621,3.502c3.79,2.587,7.747,5.361,11.741,8.033c1.976,1.322,3.983,2.543,5.974,3.914
	c5.693,3.919,11.729,8.149,18.951,10.917c6.393,2.45,13.658,3.503,19.775,6.591c4.594,2.32,8.249,5.077,11.33,9.064
	c1.004,1.3,2.272,2.573,3.089,3.914c1.802,2.958,2.862,6.576,4.326,9.888c2.111,4.777,4.351,9.961,7.209,14.212
	c2.143,3.187,4.107,5.725,7.416,7.828c2.611,0.386,5.18,1.638,7.416,0.618c0.62-0.283,1.347-0.97,2.06-1.441
	c0.675-0.446,1.474-0.795,2.06-1.236c0.954-0.717,1.727-1.74,2.678-2.677c2.355-2.322,5.72-5.32,7.828-7.622
	c-4.244-1.256-8.763-3.59-12.565-5.974c-1.291-0.809-2.841-1.353-3.708-2.266c-1.621-1.708-2.716-4.895-1.854-7.828
	c0.523-1.78,1.844-3.541,2.884-5.149c4.727-7.309,12.018-11.584,20.805-15.037c0.465-0.182,0.99-0.428,1.441-0.619
	c2.034-0.855,4.591-1.863,7.004-2.883c3.393-1.434,8.444-2.006,9.27-6.18c0.626-3.162,0.033-6.631,0.206-10.093
	c0.278-5.58,0.966-11.695,1.854-16.479c0.146-0.778,0.491-1.349,0.618-2.06c0.53-2.971,0.446-6.548,3.915-6.18
	c2.068,0.221,4.415,1.504,6.591,2.473c14.56,6.474,26.825,15.299,36.048,26.777c2.912,3.625,5.532,6.809,7.827,10.299
	c4.633,7.045,8.676,15.195,11.741,24.101c0.992,2.88,2.233,6.967,3.091,10.505c0.3,1.239,0.372,2.729,0.824,3.502
	c0.896,1.529,2.884,1.736,4.325,3.089c2.656-0.216,5.778,1.473,8.033,2.678c1.923,1.028,3.835,2.219,4.943,3.708
	c5.425,1.167,9.134,4.049,12.359,7.415c3.533,1.41,6.097,3.791,8.651,6.18c0.26,0.495,0.265,1.245,0.618,1.647
	c3.139,2.629,6.538,4.997,7.416,9.888c0.311,0.376,0.889,0.484,1.235,0.823c1.223,3.276,3.345,6.682,3.502,10.711
	c0.019,0.523-0.32,1.492-0.206,2.061c0.252,1.251,1.759,2.219,2.059,3.707c0.634,3.125-0.59,5.163-1.647,8.033
	c0.07,0.686,0.841,0.67,0.824,1.441c-0.419,3.05-2.384,3.996-4.738,5.769c-2.542,1.913-4.795,3.555-6.798,5.974
	c-0.973,1.175-1.698,2.673-2.677,3.707c-0.557,0.589-1.413,1.029-2.061,1.648c-1.727,1.648-3.587,3.405-5.769,4.738
	c-2.993,1.83-6.175,3.022-9.68,4.531c-3.322,1.431-6.949,2.442-10.505,3.707C267.233,188.73,263.78,190.091,260.212,190.99z"/>
</svg>
