<?xml version="1.0" encoding="UTF-8" standalone="no"?>
<!-- Created with Inkscape (http://www.inkscape.org/) -->
<svg
   xmlns:svg="http://www.w3.org/2000/svg"
   xmlns="http://www.w3.org/2000/svg"
   version="1.0"
   width="390.03799"
   height="256.28299"
   viewBox="0 0 390.038 256.283"
   id="Layer_1"
   xml:space="preserve"><defs
   id="defs46" />

<metadata>
<rdf:RDF
      xmlns="http://web.resource.org/cc/"
      xmlns:dc="http://purl.org/dc/elements/1.1/"
      xmlns:rdf="http://www.w3.org/1999/02/22-rdf-syntax-ns#">
      <Work rdf:about="">
         <dc:title>French Horn Silhouette</dc:title>
         <dc:description>French Horn Silhouette</dc:description>
         <dc:subject>
          <rdf:Bag>
            <rdf:li>music</rdf:li>
            <rdf:li>instrument</rdf:li>
	    <rdf:li>horn</rdf:li>
	    <rdf:li>Silhouette</rdf:li>
          </rdf:Bag>
         </dc:subject>
         <dc:publisher><Agent rdf:about="http://www.openclipart.org/"><dc:title>Open Clip Art Project</dc:title></Agent></dc:publisher>
         <dc:creator><Agent rdf:about=""><dc:title>Gerald G.</dc:title></Agent></dc:creator>
         <dc:rights><Agent rdf:about="http://web.resource.org/cc/PublicDomain"><dc:title>Public Domain</dc:title></Agent></dc:rights>
         <dc:date>2006/10/02</dc:date>
         <dc:format>image/svg+xml</dc:format>
         <dc:type>http://purl.org/dc/dcmitype/StillImage</dc:type>
         <license rdf:resource="http://web.resource.org/cc/PublicDomain" />
      </Work>
      <License rdf:about="http://web.resource.org/cc/PublicDomain">
         <permits rdf:resource="http://web.resource.org/cc/Reproduction" />
         <permits rdf:resource="http://web.resource.org/cc/Distribution" />
         <permits rdf:resource="http://web.resource.org/cc/DerivativeWorks" />
      </License>
   </rdf:RDF>
</metadata>

<g
   id="g5">
	<path
   d="M 249.768,121.728 C 248.919,121.228 248.17,120.928 247.72,121.228 C 247.17,121.378 246.371,122.327 246.67,122.927 C 246.869,123.377 247.619,123.777 248.919,124.126 L 248.919,124.126 C 249.168,123.327 249.468,122.527 249.768,121.728 L 249.768,121.728 z "
   style="fill:#9d9fa1;fill-rule:evenodd;stroke:black;stroke-width:0.036;stroke-miterlimit:10"
   id="path7" />
	<path
   d="M 287.392,138.115 L 288.441,134.319 L 262.91,126.574 L 261.711,130.321 L 287.392,138.115 L 287.392,138.115 z M 283.794,146.709 L 258.961,139.314 L 258.262,140.663 L 283.794,148.258 L 283.794,146.709 L 283.794,146.709 z M 280.346,156.552 L 279.797,160.149 L 254.465,152.905 L 255.864,149.308 L 280.346,156.552 L 280.346,156.552 z M 277.199,169.792 L 252.066,162.548 L 251.367,165.846 L 251.367,165.846 C 253.716,165.295 256.013,165.295 258.262,165.645 C 260.46,165.896 262.658,166.895 264.658,167.894 C 266.656,168.793 268.256,169.943 270.004,171.342 C 271.704,172.59 273.002,174.038 274.451,175.689 L 274.451,175.689 C 275.35,173.74 276.249,171.792 277.199,169.792 L 277.199,169.792 z M 301.53,195.974 L 298.084,196.173 L 298.084,196.173 C 297.734,198.821 296.685,201.57 295.136,204.418 C 293.536,207.266 291.238,210.014 288.441,213.061 L 288.441,213.061 C 291.039,211.763 293.087,210.463 295.136,208.415 C 296.985,206.267 299.032,203.518 300.132,201.319 C 301.082,199.122 301.731,197.524 301.53,195.974 L 301.53,195.974 z M 300.481,175.138 C 300.232,175.537 299.482,175.588 298.232,175.49 C 296.883,175.289 295.035,174.889 292.887,174.29 C 290.688,173.689 287.99,172.691 284.991,171.692 L 284.991,171.692 L 279.645,185.332 L 279.645,185.332 C 279.544,188.379 279.544,190.879 279.446,193.227 C 279.195,195.425 279.545,196.824 278.946,198.773 C 278.347,200.572 277.248,202.271 275.847,204.07 L 275.847,204.07 L 277.897,209.765 L 277.897,209.765 C 279.396,208.616 280.895,207.068 282.193,205.318 C 283.592,203.371 284.742,201.172 285.84,198.923 C 286.59,196.524 286.64,194.227 287.54,192.027 C 288.389,189.73 290.038,187.781 291.336,186.181 C 292.586,184.633 293.534,183.484 294.983,182.735 C 296.381,181.885 297.681,181.485 299.43,181.337 L 299.43,181.337 C 299.63,180.486 299.93,179.388 300.129,178.439 C 300.282,177.387 300.332,176.288 300.481,175.138 L 300.481,175.138 z M 245.32,186.93 L 248.268,175.888 L 248.268,175.888 C 249.517,174.989 250.818,174.34 252.566,174.139 C 254.115,173.789 256.462,173.839 258.261,174.489 C 259.861,175.138 261.858,176.539 262.908,178.136 C 263.957,179.585 264.106,181.235 264.306,183.282 C 264.306,185.281 264.156,187.979 263.107,190.028 C 261.709,191.877 259.61,193.425 257.211,194.474 C 254.863,195.372 252.164,195.722 249.116,195.523 L 249.116,195.523 C 248.666,194.624 247.967,193.475 247.418,192.076 C 246.771,190.578 246.07,188.929 245.32,186.93 L 245.32,186.93 z M 233.13,200.67 L 229.682,202.019 L 230.182,205.118 L 230.182,205.118 C 231.281,205.868 233.13,206.366 235.328,207.016 C 237.527,207.367 241.123,208.214 243.621,208.415 C 246.02,208.614 248.018,208.614 249.816,208.415 L 249.816,208.415 C 249.167,207.965 248.667,207.315 248.118,206.666 C 247.567,205.917 247.169,205.117 246.72,204.268 L 246.72,204.268 C 244.521,204.468 242.472,204.368 240.174,203.769 C 237.877,203.168 235.528,202.07 233.13,200.67 L 233.13,200.67 z M 320.317,225.454 C 311.873,226.952 304.579,227.752 298.232,228.051 C 291.687,228.152 286.292,227.502 282.045,226.853 C 277.747,226.154 274.698,225.055 272.9,223.755 L 272.9,223.755 C 268.603,225.354 264.505,226.503 261.009,227.002 C 257.46,227.502 254.563,227.502 251.365,227.002 C 248.017,226.403 245.019,225.503 241.222,223.755 C 237.075,221.856 231.878,218.809 227.931,216.51 C 224.033,214.161 220.836,211.913 218.137,209.765 L 218.137,209.765 L 207.796,205.318 L 207.796,205.318 C 210.093,208.666 213.642,212.114 218.439,215.661 C 223.235,219.109 228.981,223.106 236.226,226.304 C 243.221,229.302 251.116,232.849 260.659,234.249 C 270.102,235.547 282.594,236.047 292.735,234.599 C 302.63,233.098 311.823,230.049 320.317,225.454 L 320.317,225.454 z M 27.976,138.565 C 24.978,139.115 22.23,140.114 19.532,141.163 C 16.734,142.212 14.036,144.161 11.637,145.11 C 9.039,145.86 6.79,146.209 4.892,146.159 C 2.943,145.96 0.945,145.71 0.445,144.262 C -0.204,142.662 -0.404,141.513 1.994,137.366 C 4.292,133.12 8.589,126.574 14.885,119.28 C 21.33,111.836 31.273,101.293 39.517,93.598 C 47.312,85.754 54.456,80.258 62.301,73.263 C 70.146,66.068 78.04,58.723 86.384,52.028 C 94.678,45.333 103.772,38.937 111.366,33.791 C 118.611,28.445 124.606,24.448 130.502,21.2 C 136.198,18.002 142.394,15.554 146.391,14.655 C 150.287,13.506 153.185,13.405 154.135,15.155 C 154.935,16.953 152.936,21.7 151.387,25.347 C 149.589,28.995 146.391,32.542 144.492,36.539 C 142.643,40.386 141.394,43.634 140.345,48.58 C 139.146,53.277 137.897,58.723 137.747,65.668 C 137.447,72.863 138.047,82.606 139.146,90.45 C 139.995,97.895 141.544,104.291 143.793,110.785 C 146.041,117.131 148.889,122.127 152.936,129.221 C 156.833,136.316 162.479,145.61 167.375,153.055 C 172.272,160.4 176.918,167.044 181.865,173.191 L 181.865,173.191 C 181.315,170.492 181.016,167.843 181.165,165.645 C 181.215,163.397 181.615,161.198 182.365,159.45 L 182.365,159.45 C 181.565,158.65 180.816,156.653 180.116,152.905 C 179.316,149.107 177.918,143.211 177.867,137.365 C 177.567,131.27 177.467,124.426 179.116,117.58 C 180.815,110.635 184.312,102.791 188.06,96.345 C 191.707,89.75 196.005,83.854 201.151,78.458 L 201.151,78.458 C 200.352,76.01 200.052,73.212 200.452,70.264 C 200.802,67.117 201.901,63.069 203.2,60.422 C 204.349,57.673 205.848,55.875 207.697,54.076 C 209.446,52.227 211.445,50.179 213.892,49.079 C 216.241,47.83 219.189,46.531 221.986,46.331 C 224.634,45.882 227.582,46.182 230.08,46.681 C 232.429,46.981 234.577,47.931 236.326,48.579 C 237.875,49.179 239.074,49.679 239.724,50.278 L 239.724,50.278 C 242.722,48.979 246.518,47.779 251.116,46.48 C 255.713,45.131 261.059,43.433 266.955,42.533 C 272.701,41.434 278.846,40.735 285.592,40.634 C 292.287,40.434 299.331,40.434 306.927,42.183 C 314.372,43.932 322.715,47.18 330.209,51.326 C 337.605,55.323 344.699,60.57 350.945,66.115 C 356.991,71.562 362.287,77.858 366.633,83.853 C 370.73,89.699 373.627,95.445 376.276,101.291 C 378.875,106.887 380.774,112.384 382.522,117.979 C 384.27,123.425 385.52,128.571 386.468,134.366 C 387.469,140.063 388.367,144.46 388.018,152.154 C 387.418,159.798 387.019,169.442 383.171,179.735 C 379.123,189.827 372.928,202.318 364.584,212.412 C 356.04,222.354 344.299,232.197 333.206,239.243 C 322.015,246.087 311.122,250.984 298.582,253.733 C 285.84,256.429 271.5,256.93 258.26,255.431 C 244.87,253.682 231.379,249.884 219.338,244.439 C 207.247,239.043 197.054,231.898 186.261,223.404 C 175.17,214.76 164.427,202.717 154.434,193.225 C 144.391,183.631 134.998,173.389 126.804,166.544 C 118.56,159.649 113.763,156.8 105.119,152.403 C 96.125,147.956 83.834,142.96 74.241,140.512 C 64.598,138.014 55.805,137.363 48.06,137.214 C 40.218,136.867 33.722,137.315 27.976,138.565 L 27.976,138.565 z M 255.663,204.318 L 258.961,207.766 L 258.961,207.766 C 261.061,206.916 262.658,206.117 263.958,205.367 C 265.107,204.517 265.906,204.218 266.557,202.92 C 267.256,201.471 267.706,199.472 268.105,196.924 L 268.105,196.924 C 267.556,198.123 266.356,199.373 264.308,200.671 C 262.159,201.92 259.411,203.069 255.663,204.318 L 255.663,204.318 z M 236.728,171.242 C 236.527,169.994 236.578,168.444 237.078,166.395 C 237.478,164.347 238.227,161.999 239.327,159.151 L 239.327,159.151 L 235.879,158.501 L 233.63,162.249 L 233.63,162.249 C 234.08,163.048 234.13,164.496 233.98,166.596 C 233.731,168.695 233.281,171.142 232.433,174.49 L 232.433,174.49 C 233.83,173.44 235.278,172.34 236.728,171.242 L 236.728,171.242 z M 216.592,162.249 C 216.491,160.999 216.841,159.8 217.44,158.65 C 218.041,157.352 218.889,156.152 220.189,154.854 L 220.189,154.854 L 218.44,154.004 L 218.44,154.004 C 217.54,154.154 217.04,154.953 216.74,156.402 C 216.441,157.702 216.392,159.651 216.592,162.249 L 216.592,162.249 z M 209.147,153.305 C 206.699,154.454 204.8,155.903 203.45,157.452 C 202.101,159 201.252,160.599 200.902,162.797 C 200.203,164.995 199.903,167.644 200.203,170.193 C 200.502,172.59 201.802,174.839 202.952,176.738 C 204.101,178.337 205.349,179.535 206.899,180.536 C 208.448,181.434 210.046,182.134 212.095,182.434 L 212.095,182.434 C 209.547,178.586 207.998,175.039 207.248,171.392 C 206.398,167.644 207.049,163.698 207.449,160.7 C 207.748,157.601 208.247,155.204 209.147,153.305 L 209.147,153.305 z M 210.347,191.377 C 211.346,191.776 212.795,192.126 214.143,192.227 C 215.493,192.327 217.04,192.227 218.79,191.927 L 218.79,191.927 C 218.889,192.126 219.239,192.526 219.839,193.126 C 220.338,193.675 221.088,194.425 222.088,195.373 L 222.088,195.373 L 216.741,197.423 L 216.741,197.423 C 215.592,196.774 214.492,195.723 213.443,194.824 C 212.395,193.776 211.295,192.626 210.347,191.377 L 210.347,191.377 z M 194.508,153.504 C 196.357,150.108 198.354,147.409 201.252,145.211 C 204.001,142.912 207.349,141.113 210.896,140.215 C 214.344,139.265 217.891,138.965 221.739,139.514 L 221.739,139.514 L 217.092,142.812 L 217.092,142.813 C 214.395,142.713 211.996,142.813 209.347,143.662 C 206.65,144.361 204.001,145.561 201.602,147.259 C 199.054,148.958 196.756,150.857 194.508,153.504 L 194.508,153.504 z M 243.122,145.361 L 239.475,144.861 L 238.426,148.158 L 241.574,149.358 L 243.122,145.361 L 243.122,145.361 z M 234.678,133.369 L 236.577,128.522 L 236.577,128.522 C 235.728,127.124 235.328,125.875 234.828,124.576 C 234.279,123.277 233.729,122.078 233.978,120.779 C 234.279,119.18 235.328,117.431 236.577,116.132 C 237.676,114.883 239.874,114.084 240.875,113.534 C 241.723,112.835 242.073,112.735 241.924,112.685 L 241.924,112.685 L 241.924,109.238 L 241.924,109.238 C 238.426,108.388 235.028,107.289 231.73,106.14 C 228.284,104.89 225.135,103.392 221.888,101.843 C 218.64,99.994 215.493,98.295 212.445,95.997 L 212.445,95.997 L 201.903,133.719 L 201.903,133.719 C 204.351,132.22 206.999,131.12 209.847,130.421 C 212.645,129.722 214.594,128.922 218.791,129.572 C 222.987,130.071 228.083,131.271 234.678,133.369 L 234.678,133.369 z M 204.851,87.752 C 202.253,91.149 199.904,94.947 197.806,98.944 C 195.557,102.941 193.659,106.738 192.11,111.685 C 190.411,116.432 189.062,122.278 188.462,128.073 C 187.912,133.719 187.912,139.765 188.662,146.01 L 188.662,146.01 L 190.561,143.911 L 205.899,90.5 L 205.899,90.5 C 205.55,89.601 205.2,88.702 204.851,87.752 L 204.851,87.752 z M 245.32,100.343 C 242.972,99.743 240.375,99.044 237.726,98.444 C 234.828,97.745 231.181,96.746 228.932,96.196 C 226.633,95.546 225.085,94.847 224.085,94.298 L 224.085,94.298 C 223.835,93.249 224.135,92.449 224.784,91.9 C 225.284,91.3 225.933,90.701 227.883,91.051 C 229.832,91.35 233.229,92.65 236.526,93.799 C 239.574,94.798 243.023,95.997 246.669,97.396 L 246.669,97.396 C 246.221,98.344 245.771,99.344 245.32,100.343 L 245.32,100.343 z M 244.422,87.252 C 243.522,86.303 242.724,85.154 242.224,83.805 C 241.674,82.406 241.324,81.756 241.175,78.959 C 240.775,76.011 240.425,72.013 240.126,66.567 L 240.126,66.567 L 234.98,65.018 L 234.98,65.018 C 233.081,65.668 230.833,66.817 228.234,68.466 C 225.535,70.065 222.688,72.063 219.29,74.661 L 219.29,74.661 L 215.844,86.352 L 215.844,86.352 C 216.543,84.654 217.742,83.455 219.64,82.755 C 221.589,81.905 224.137,81.806 226.886,81.905 C 229.334,82.055 231.832,82.555 234.78,83.604 C 237.727,84.504 240.875,85.653 244.422,87.252 L 244.422,87.252 z M 210.347,69.016 C 212.945,66.017 215.793,63.37 219.09,61.071 C 222.338,58.673 225.836,56.675 229.783,54.876 L 229.783,54.876 C 226.485,53.826 223.637,53.777 220.69,54.526 C 217.742,55.276 214.193,56.824 212.545,59.372 C 210.795,61.82 209.997,64.968 210.347,69.016 L 210.347,69.016 z M 247.72,59.372 C 250.819,57.723 254.066,56.474 258.211,55.425 C 262.208,54.276 267.655,53.526 271.652,52.976 C 275.599,52.427 278.698,52.077 281.495,52.127 L 281.495,52.127 C 279.646,53.326 278.098,55.774 276.299,59.871 C 274.5,63.818 272.802,69.215 271.004,76.059 L 271.004,76.059 C 269.055,76.659 267.405,78.107 265.656,80.406 C 263.908,82.704 262.308,85.852 260.66,89.849 L 260.66,89.849 L 258.211,88.65 L 258.211,88.65 C 258.762,85.602 259.062,82.804 259.111,80.056 C 259.061,77.208 259.01,74.56 258.211,72.112 C 257.363,69.413 255.414,66.865 253.915,65.067 C 252.315,63.269 250.467,62.119 248.569,61.62 L 248.569,61.62 C 248.318,60.871 248.02,60.122 247.72,59.372 L 247.72,59.372 z M 277.848,80.907 C 280.198,80.258 282.245,80.157 284.744,80.407 C 287.142,80.557 289.44,81.056 291.839,82.456 C 294.037,83.754 296.485,86.403 297.835,88.851 C 298.885,91.399 299.033,94.847 299.084,97.295 C 299.134,99.593 298.834,101.242 298.185,102.441 L 298.185,102.441 L 273.204,94.497 L 273.204,94.497 C 274.75,90 276.299,85.454 277.848,80.907 L 277.848,80.907 z M 280.646,71.614 C 281.646,67.567 283.095,64.169 284.594,61.421 C 286.043,58.473 287.892,56.175 289.94,54.726 C 292.038,53.178 294.137,52.428 296.835,52.478 L 296.835,52.478 C 300.933,52.428 305.679,53.327 311.475,55.576 C 317.171,57.775 323.716,60.923 331.112,65.419 L 331.112,65.419 C 332.51,67.368 333.26,69.816 333.16,73.314 C 332.91,76.662 331.612,81.109 330.413,85.706 C 329.264,90.202 327.765,94.899 326.116,100.195 L 326.116,100.195 C 324.617,100.644 323.418,101.444 322.318,103.143 C 321.218,104.791 320.42,106.79 319.719,109.688 L 319.719,109.688 L 316.822,109.688 L 316.822,109.688 C 316.923,109.588 316.173,108.938 314.574,108.289 C 312.775,107.39 310.376,106.491 306.829,105.042 L 306.829,105.042 C 307.929,102.343 308.378,99.595 308.378,96.598 C 308.228,93.4 307.778,90.303 306.48,87.104 C 304.981,83.807 302.783,80.309 300.285,77.961 C 297.686,75.712 294.938,74.164 291.64,73.314 C 288.34,72.213 284.743,71.713 280.646,71.614 L 280.646,71.614 z M 295.086,112.084 L 294.087,114.832 L 269.754,106.937 L 270.653,103.839 L 295.086,112.084 L 295.086,112.084 z M 342.401,75.561 C 345.999,79.258 349.746,83.505 353.443,88.502 C 357.141,93.448 361.638,99.145 364.636,105.19 C 367.484,111.135 369.032,117.531 370.63,123.977 C 372.079,130.272 373.329,135.117 373.229,142.763 C 372.98,150.307 371.78,160.35 369.433,169.044 C 366.884,177.588 363.286,186.882 358.441,194.025 C 353.594,200.921 348.047,206.917 340.653,211.263 C 333.008,215.46 321.516,218.258 313.472,219.857 C 305.327,221.407 298.682,221.805 292.786,221.055 L 292.786,221.055 C 296.183,219.908 298.932,218.608 301.229,216.61 C 303.377,214.51 304.778,212.214 306.227,209.514 C 307.625,206.766 308.825,203.668 309.824,200.221 L 309.824,200.221 C 311.472,200.571 313.272,200.571 315.02,200.221 C 316.769,199.671 318.667,200.471 320.516,197.823 C 322.265,195.024 323.464,190.278 325.662,184.383 C 327.761,178.337 330.308,169.894 332.756,162.499 C 334.906,154.904 336.954,147.359 339.103,140.264 C 341.152,133.12 343.75,125.976 345.348,120.779 C 346.797,115.483 347.797,112.735 347.747,109.437 C 347.496,106.089 346.098,102.992 344.1,101.292 C 342.05,99.544 339.052,98.444 335.306,98.544 L 335.306,98.544 C 337.553,93.248 339.353,88.801 340.501,85.003 C 341.652,81.157 342.352,78.009 342.401,75.561 L 342.401,75.561 z M 312.572,172.34 C 313.772,171.091 314.572,169.593 315.171,168.394 C 315.671,167.044 315.772,165.595 315.87,164.447 C 315.87,163.248 315.621,162.149 315.321,161.149 L 315.321,161.149 C 316.67,159.75 317.469,158.151 318.119,156.152 C 318.568,154.004 318.868,151.855 318.619,149.107 L 318.619,149.107 C 320.568,148.307 322.067,146.858 322.565,144.961 C 323.214,143.012 322.865,140.613 322.067,137.566 L 322.067,137.566 C 323.214,136.816 324.014,135.418 324.464,133.569 C 324.814,131.62 324.814,129.221 324.464,126.175 L 324.464,126.175 C 326.162,126.025 327.312,125.226 328.111,123.777 C 328.81,122.228 328.961,120.23 328.759,117.381 L 328.759,117.381 L 332.756,106.339 L 332.756,106.339 C 334.955,106.089 336.854,106.738 337.902,107.738 C 338.902,108.687 340.251,108.037 339.452,112.735 C 338.553,117.381 335.805,125.776 332.756,136.017 C 329.659,146.31 323.314,165.296 321.015,173.891 C 318.618,182.134 319.367,183.934 318.467,186.631 C 317.468,189.129 315.918,189.878 315.169,190.429 C 314.22,190.978 313.72,191.229 313.272,190.628 L 313.272,190.628 C 314.52,188.379 315.169,186.432 314.67,184.583 C 314.12,182.734 312.971,181.185 310.673,179.736 L 310.673,179.736 C 311.373,178.387 311.821,176.938 312.221,175.789 C 312.523,174.54 312.572,173.39 312.572,172.34 L 312.572,172.34 z "
   style="fill-rule:evenodd;stroke:black;stroke-width:0.036;stroke-miterlimit:10"
   id="path9" />
	<path
   d="M 212.395,107.238 L 212.395,107.238 C 217.056,107.238 220.839,111.021 220.839,115.682 C 220.839,120.343 217.056,124.126 212.395,124.126 C 207.734,124.126 203.951,120.343 203.951,115.682 C 203.951,111.021 207.733,107.238 212.395,107.238 L 212.395,107.238 z M 212.294,108.787 L 212.294,108.787 C 216.128,108.787 219.239,111.898 219.239,115.732 C 219.239,119.566 216.128,122.678 212.294,122.678 C 208.461,122.678 205.349,119.566 205.349,115.732 C 205.349,111.898 208.461,108.787 212.294,108.787 L 212.294,108.787 z "
   style="fill-rule:evenodd;stroke:black;stroke-width:0.036;stroke-miterlimit:10"
   id="path11" />
	<path
   d="M 227.733,107.588 L 227.733,107.588 C 232.394,107.588 236.177,111.371 236.177,116.032 C 236.177,120.693 232.394,124.476 227.733,124.476 C 223.072,124.476 219.289,120.693 219.289,116.032 C 219.289,111.371 223.072,107.588 227.733,107.588 L 227.733,107.588 z M 227.634,109.136 L 227.634,109.136 C 231.494,109.136 234.629,112.248 234.629,116.081 C 234.629,119.915 231.494,123.026 227.634,123.026 C 223.773,123.026 220.639,119.915 220.639,116.081 C 220.639,112.249 223.773,109.136 227.634,109.136 L 227.634,109.136 z "
   style="fill-rule:evenodd;stroke:black;stroke-width:0.036;stroke-miterlimit:10"
   id="path13" />
	<polygon
   points="188.112,112.734 198.605,120.128 200.004,116.531 189.811,109.437 188.112,112.734 "
   style="fill-rule:evenodd;stroke:black;stroke-width:0.036;stroke-miterlimit:10"
   id="polygon15" />
	<polygon
   points="151.238,128.921 153.986,123.926 147.94,118.43 144.693,119.779 151.238,128.921 "
   style="fill-rule:evenodd;stroke:black;stroke-width:0.036;stroke-miterlimit:10"
   id="polygon17" />
	<polygon
   points="108.968,151.257 106.57,153.654 112.766,160.05 117.912,160.35 120.01,157.601 108.968,151.255 108.968,151.257 "
   style="fill-rule:evenodd;stroke:black;stroke-width:0.036;stroke-miterlimit:10"
   id="polygon19" />
	<path
   d="M 335.507,147.559 C 340.004,149.008 344.6,150.457 349.297,151.506 C 353.994,152.355 359.09,153.355 363.438,154.104 C 367.584,154.854 372.731,155.253 374.628,156.652 C 376.277,157.901 375.378,161.399 374.079,162.348 C 372.73,163.297 371.081,163.496 367.034,162.199 C 362.737,160.649 354.892,155.453 349.447,153.554 C 343.951,151.606 339.204,150.756 334.657,151.006 L 334.657,151.006 C 334.908,149.856 335.207,148.707 335.507,147.559 L 335.507,147.559 z "
   style="fill-rule:evenodd;stroke:black;stroke-width:0.036;stroke-miterlimit:10"
   id="path21" />
	<path
   d="M 338.754,133.569 C 343.252,135.117 347.848,136.517 352.545,137.566 C 357.241,138.465 362.338,139.315 366.685,140.114 C 370.832,140.813 375.979,141.362 377.877,142.712 C 379.575,143.96 378.576,147.459 377.377,148.407 C 376.028,149.307 374.379,149.506 370.332,148.208 C 366.035,146.659 358.19,141.412 352.744,139.613 C 347.299,137.664 342.351,136.866 337.904,137.015 L 337.904,137.015 C 338.155,135.866 338.455,134.718 338.754,133.569 L 338.754,133.569 z "
   style="fill-rule:evenodd;stroke:black;stroke-width:0.036;stroke-miterlimit:10"
   id="path23" />
	<path
   d="M 331.709,161.848 C 336.206,163.297 340.804,164.746 345.5,165.795 C 350.196,166.645 355.293,167.644 359.64,168.394 C 363.787,169.093 368.933,169.642 370.832,170.992 C 372.53,172.341 371.531,175.638 370.332,176.638 C 369.084,177.588 367.234,177.787 363.237,176.489 C 358.939,174.94 351.096,169.693 345.649,167.895 C 340.153,165.947 335.406,165.147 330.86,165.296 L 330.86,165.296 C 331.11,164.146 331.409,162.999 331.709,161.848 L 331.709,161.848 z "
   style="fill-rule:evenodd;stroke:black;stroke-width:0.036;stroke-miterlimit:10"
   id="path25" />
	<path
   d="M 338.754,127.873 C 342.502,126.574 346.3,125.775 350.147,125.475 C 353.894,125.076 361.088,125.076 361.689,125.675 C 362.238,126.224 357.091,128.023 353.595,128.773 C 349.847,129.422 345.5,129.572 340.004,129.422 L 340.004,129.422 C 339.604,128.921 339.204,128.423 338.754,127.873 L 338.754,127.873 z "
   style="fill-rule:evenodd;stroke:black;stroke-width:0.036;stroke-miterlimit:10"
   id="path27" />
	<path
   d="M 335.657,129.122 C 333.409,128.871 331.76,129.971 330.31,132.219 C 328.861,134.568 328.461,138.715 327.212,142.712 C 325.764,146.46 323.714,151.056 322.215,154.952 C 320.568,158.699 318.218,161.998 318.269,165.644 C 318.269,169.291 319.768,172.89 322.565,176.636 L 322.565,176.636 L 321.566,179.085 L 321.566,179.085 C 319.419,175.937 317.969,173.189 317.22,170.641 C 316.47,168.043 316.219,166.494 316.869,163.896 C 317.368,161.197 318.517,159.25 320.316,154.602 C 322.066,149.756 325.462,139.913 327.061,135.666 C 328.46,131.37 327.411,130.47 329.11,128.92 C 330.759,127.273 333.057,126.373 336.554,126.023 L 336.554,126.023 C 336.257,127.024 335.957,128.073 335.657,129.122 L 335.657,129.122 z "
   style="fill-rule:evenodd;stroke:black;stroke-width:0.036;stroke-miterlimit:10"
   id="path29" />
	<polygon
   points="322.216,131.32 328.962,132.219 327.063,140.464 319.668,140.663 322.216,131.32 "
   style="fill-rule:evenodd;stroke:black;stroke-width:0.036;stroke-miterlimit:10"
   id="polygon31" />
	<polygon
   points="329.461,155.302 315.671,153.204 327.063,157.901 329.461,155.302 "
   style="fill-rule:evenodd;stroke:black;stroke-width:0.036;stroke-miterlimit:10"
   id="polygon33" />
	<polygon
   points="325.164,168.893 312.424,167.195 322.767,172.542 325.164,168.894 325.164,168.893 "
   style="fill-rule:evenodd;stroke:black;stroke-width:0.036;stroke-miterlimit:10"
   id="polygon35" />
	<path
   d="M 324.115,185.082 C 328.662,189.03 330.26,191.677 329.461,193.027 C 328.512,194.325 324.965,194.325 318.619,193.027 L 318.619,193.027 C 320.418,190.378 322.267,187.73 324.115,185.082 L 324.115,185.082 z "
   style="fill-rule:evenodd;stroke:black;stroke-width:0.036;stroke-miterlimit:10"
   id="path37" />
	<path
   d="M 380.725,119.279 C 382.275,100.093 383.423,82.905 384.173,66.916 C 384.822,50.828 385.172,36.737 385.022,23.847 L 385.022,23.847 L 390.019,2.312 L 390.019,2.312 C 388.769,0.913 386.871,0.164 384.523,0.063 C 382.174,-0.137 379.176,0.313 375.729,1.412 L 375.729,1.412 L 379.676,22.796 L 376.078,107.936 L 376.078,107.936 C 377.626,111.685 379.176,115.482 380.725,119.279 L 380.725,119.279 z "
   style="fill-rule:evenodd;stroke:black;stroke-width:0.036;stroke-miterlimit:10"
   id="path39" />
	<path
   d="M 378.477,70.864 C 378.227,76.26 377.478,79.757 376.228,81.906 C 374.98,84.005 373.481,84.405 370.933,83.105 C 367.985,81.656 363.787,75.861 359.89,73.263 C 356.143,70.515 352.345,68.266 348.498,66.717 L 348.498,66.717 C 353.743,72.963 358.041,77.61 361.588,81.207 C 365.087,84.604 367.285,86.553 369.532,87.603 C 371.43,88.652 372.53,88.652 374.179,87.403 C 375.927,85.854 377.576,83.405 379.675,79.309 L 379.675,79.309 C 379.275,76.51 378.876,73.712 378.477,70.864 L 378.477,70.864 z "
   style="fill-rule:evenodd;stroke:black;stroke-width:0.036;stroke-miterlimit:10"
   id="path41" />
	<path
   d="M 152.188,129.721 C 155.036,132.319 157.684,134.867 160.132,137.566 C 162.53,140.263 164.529,143.812 166.677,145.51 C 168.676,147.009 170.823,146.959 172.373,146.909 C 173.822,146.81 174.422,146.859 175.521,145.16 C 176.42,143.311 177.42,140.313 178.319,136.167 L 178.319,136.167 L 179.218,145.011 L 179.218,145.011 C 178.818,146.709 177.869,148.058 176.57,149.056 C 175.271,150.056 173.523,151.105 171.124,150.856 C 168.676,150.456 165.378,148.957 161.631,146.558 L 161.631,146.558 C 158.483,140.964 155.335,135.368 152.188,129.721 L 152.188,129.721 z "
   style="fill-rule:evenodd;stroke:black;stroke-width:0.036;stroke-miterlimit:10"
   id="path43" />
</g>
</svg>