<?xml version="1.0" encoding="UTF-8" standalone="no"?>
<!-- Generator: Adobe Illustrator 12.0.1, SVG Export Plug-In . SVG Version: 6.00 Build 51448)  -->

<svg
   xmlns:dc="http://purl.org/dc/elements/1.1/"
   xmlns:cc="http://creativecommons.org/ns#"
   xmlns:rdf="http://www.w3.org/1999/02/22-rdf-syntax-ns#"
   xmlns:svg="http://www.w3.org/2000/svg"
   xmlns="http://www.w3.org/2000/svg"
   xmlns:sodipodi="http://sodipodi.sourceforge.net/DTD/sodipodi-0.dtd"
   xmlns:inkscape="http://www.inkscape.org/namespaces/inkscape"
   version="1.1"
   id="Layer_1"
   width="300"
   height="300"
   viewBox="0 0 300.00001 299.99999"
   overflow="visible"
   enable-background="new 0 0 123.24 347.881"
   xml:space="preserve"
   inkscape:version="0.48.2 r9819"
   sodipodi:docname="girl.svg"
   style="overflow:visible"><metadata
   id="metadata13"><rdf:RDF><cc:Work
       rdf:about=""><dc:format>image/svg+xml</dc:format><dc:type
         rdf:resource="http://purl.org/dc/dcmitype/StillImage" /></cc:Work></rdf:RDF></metadata><defs
   id="defs11" /><sodipodi:namedview
   pagecolor="#ffffff"
   bordercolor="#666666"
   borderopacity="1"
   objecttolerance="10"
   gridtolerance="10"
   guidetolerance="10"
   inkscape:pageopacity="0"
   inkscape:pageshadow="2"
   inkscape:window-width="1016"
   inkscape:window-height="763"
   id="namedview9"
   showgrid="false"
   inkscape:zoom="0.67839288"
   inkscape:cx="-114.53162"
   inkscape:cy="173.94051"
   inkscape:window-x="0"
   inkscape:window-y="0"
   inkscape:window-maximized="0"
   inkscape:current-layer="Layer_1" />
<g
   id="g3"
   transform="matrix(0.83362011,0,0,0.83362011,98.631986,5.0002236)">
	<path
   d="m 25.579,266.527 c -0.213,-0.135 -0.431,-0.262 -0.643,-0.4 -0.298,2.334 -0.016,2.188 0.643,0.4 z"
   id="path5"
   inkscape:connector-curvature="0" />
	<path
   d="m 79.647,306.052 4.286,-32.587 C 105.667,269.873 123.24,262.571 123.24,262.571 93.32,181.36 91.896,120.837 91.896,120.837 c 0,0 -4.393,2.038 -10.91,3.013 0.906,-4.5 2.707,-9.722 6.279,-13.543 7.451,-7.981 32.409,-6.593 18.455,-40.989 l 3.105,-0.339 c 2.229,-0.188 3.831,-2.707 3.567,-5.629 -0.257,-2.878 -2.233,-5.066 -4.433,-4.928 l -0.001,-0.008 -0.052,0.005 c -0.005,0 -0.01,-10e-4 -0.016,0 -0.008,0 -0.015,0.004 -0.022,0.005 l -3.345,0.367 c 0.037,-9.661 -0.991,-26.745 -8.013,-36.184 19.788,-5.894 16.017,13.47 16.017,13.47 l 4.298,2.109 C 123.287,3.459 64.501,-2.64 39.062,0.868 13.63,4.382 13.437,27.866 13.437,27.866 -0.714,31.374 0.007,97.307 0.007,97.307 c 0,0 15.585,4.915 31.176,4.211 2.158,-0.097 4.141,-0.396 5.978,-0.855 4.201,2.885 9.671,4.917 16.772,4.917 2.349,0 4.694,5.526 4.682,15.512 -2.217,-0.997 -4.434,-2.254 -6.612,-3.846 0,0 -35.364,43.737 -31.061,93.522 0,0 -0.381,4.294 6.454,5.927 v 7.92 c 0,0 -1.546,2.771 -2.785,3.634 -0.48,-0.2 -0.994,-0.852 -1.52,-2.228 0,-5.992 -2.582,-9.285 -7.575,-3.785 -0.332,0.222 -0.617,0.538 -0.836,0.972 -3.681,4.538 -0.567,12.874 6.656,17.551 2.857,1.94 6.458,3.24 10.705,3.399 -2.604,9.66 -5.211,18.979 -6.461,22.368 7.312,4.606 15.822,7.12 24.718,8.21 l -0.862,54.755 c 0,0 -3.123,9.374 6.354,7.634 0,0 15.521,15.8 40.861,9.099 v -6.533 c -8.676,-7.6 -29.611,-8.366 -35.232,-15.41 l 6.28,-49.022 c 0.177,-0.009 0.354,-0.021 0.532,-0.029 l -0.567,36.032 c 0,0 -3.123,9.375 6.353,7.635 0,0 15.523,15.8 40.864,9.099 v -6.531 c -8.677,-7.603 -29.612,-8.367 -35.234,-15.413 z"
   id="path7"
   inkscape:connector-curvature="0" />
</g>
</svg>