<?xml version="1.0" encoding="UTF-8" standalone="no"?>
<!-- Generator: Adobe Illustrator 15.1.0, SVG Export Plug-In . SVG Version: 6.00 Build 0)  -->

<svg
   xmlns:dc="http://purl.org/dc/elements/1.1/"
   xmlns:cc="http://creativecommons.org/ns#"
   xmlns:rdf="http://www.w3.org/1999/02/22-rdf-syntax-ns#"
   xmlns:svg="http://www.w3.org/2000/svg"
   xmlns="http://www.w3.org/2000/svg"
   xmlns:sodipodi="http://sodipodi.sourceforge.net/DTD/sodipodi-0.dtd"
   xmlns:inkscape="http://www.inkscape.org/namespaces/inkscape"
   version="1.1"
   id="svg2"
   sodipodi:version="0.32"
   sodipodi:docname="seahorse.svg"
   inkscape:version="0.48.2 r9819"
   sodipodi:modified="true"
   inkscape:output_extension="org.inkscape.output.svg.inkscape"
   x="0px"
   y="0px"
   width="300"
   height="300"
   viewBox="0 0 300.00001 300.00001"
   enable-background="new 66.547 922.681 300 300"
   xml:space="preserve"><metadata
   id="metadata8"><rdf:RDF><cc:Work
       rdf:about=""><dc:format>image/svg+xml</dc:format><dc:type
         rdf:resource="http://purl.org/dc/dcmitype/StillImage" /></cc:Work></rdf:RDF></metadata><defs
   id="defs6" />
<sodipodi:namedview
   inkscape:current-layer="layer1"
   inkscape:window-height="939"
   inkscape:window-x="314"
   inkscape:window-width="1009"
   inkscape:window-y="18"
   inkscape:pageshadow="2"
   inkscape:pageopacity="0.0"
   bordercolor="#666666"
   borderopacity="1.0"
   inkscape:cx="261.89769"
   id="base"
   pagecolor="#ffffff"
   inkscape:zoom="0.35"
   inkscape:cy="-43.395005"
   gridtolerance="10000"
   objecttolerance="10"
   guidetolerance="10"
   inkscape:document-units="px"
   showgrid="false"
   width="300px"
   inkscape:window-maximized="0">
	</sodipodi:namedview>
<g
   id="layer1"
   inkscape:label="Layer 1"
   inkscape:groupmode="layer">
	<path
   id="path2170"
   sodipodi:nodetypes="ccczcscscczzcczccccccsszcczzzzczccsccssssc"
   d="m 146.70326,293.32793 c -41.289,-13.203 -64.117998,-53.958 -47.127998,-95.13 8.465998,-18.055 -16.027,-4.479 -24.394,-4.31 3.722,-6.951 4.697,-9.96 2.796,-12.8 -1.9,-2.84 -10.094,-2.395 -17.139,-4.745 4.973,-4.394 16.281,-3.896 17.235,-10.931 0.921,-6.792 -12.108,-3.942 -17.602,-8.926 4.856,-2.646 17.535,-1.386 19.926,-9.313 1.818,-6.026 -9.782,-12.066 -9.964,-16.386 15.004,7.402 25.858,6.646 35.817998,-3.145 0.449,0.028 1.138,1.354 2.88,8.362 1.742,7.008 4.854,11.889 12.484,8.76 7.63,-3.128 9.583,-4.69 -0.223,-14.033 -20.337,-21.122 -15.22,-46.851996 4.17,-70.275976 3.824,-3.776 -4.386,-8.388 -8.139,-10.696 -3.753,-2.31 -3.482,-3.051 -3.162,-4.479 8.51,-6.021 12.702,-8.251 7.823,-20.507 4.048,-2.021 8.733,-0.42 12.667,-3.067 4.87,-2.317 1.229,-10.66 3.825,-13.3570003 4.639,0.427 6.729,5.8610003 11.571,5.4590003 6.018,-1.141 12.362,-11.0040003 16.554,-8.3590003 -0.434,2.856 -1.388,5.8400003 0.754,6.3010003 3.547,0.763 12.012,-4.4400003 13.188,-3.0250003 0.965,1.162 -6.466,8.2570003 2.256,8.2210003 8.722,-0.035 16.836,9.309 18.976,18.616 3.923,19.797 17.049,31.921 32.489,44.09698 6.75,4.502 6.272,8.233 2.074,11.589 -4.197,3.354 -11.152,3.412 -17.163,-0.851 -6.011,-4.262 -8.844,-4.695 -22.758,-5.882 -13.915,-1.187 -18.026,-2.579 -21.51,-5.131 -3.484,-2.55198 -6.021,-10.30098 -6.045,-12.31198 -0.022,-2.011 -3.412,3.936 -5.884,9.048 -2.471,5.11298 -0.994,9.73898 19.02,21.29098 19.978,10.395996 36.474,23.461996 37.265,46.643996 -0.017,15.792 -8.21,32.086 -41.255,44.168 -37.502,13.712 -54.417,44.484 -27.373,75.553 18.479,17.305 45.691,7.738 46.072,-17.629 -0.988,-16.593 -17.729,-23.714 -28.743,-8.086 -5.461,7.746 -8.576,6.882 -6.872,-1.571 2.115,-10.496 15.297,-18.11 28.25,-17.435 22.218,1.159 29.52,22.141 23.547,40.671 -9.447,29.308 -38.502,39.688 -66.286,33.602 z"
   inkscape:connector-curvature="0" />
</g>
</svg>