<?xml version="1.0" encoding="UTF-8" standalone="no"?>
<!-- Created with Inkscape (http://www.inkscape.org/) -->
<svg
   xmlns:svg="http://www.w3.org/2000/svg"
   xmlns="http://www.w3.org/2000/svg"
   version="1.0"
   width="486.00101"
   height="150.381"
   viewBox="0 0 486.001 150.381"
   id="Layer_1"
   xml:space="preserve"><defs
   id="defs228" />

<metadata>
<rdf:RDF
      xmlns="http://web.resource.org/cc/"
      xmlns:dc="http://purl.org/dc/elements/1.1/"
      xmlns:rdf="http://www.w3.org/1999/02/22-rdf-syntax-ns#">
      <Work rdf:about="">
         <dc:title>Trumpet Silhouette</dc:title>
         <dc:description>Trumpet Silhouette</dc:description>
         <dc:subject>
          <rdf:Bag>
            <rdf:li>music</rdf:li>
            <rdf:li>instrument</rdf:li>
	    <rdf:li>trumpet</rdf:li>
	    <rdf:li>silhouette</rdf:li>
          </rdf:Bag>
         </dc:subject>
         <dc:publisher><Agent rdf:about="http://www.openclipart.org/"><dc:title>Open Clip Art Project</dc:title></Agent></dc:publisher>
         <dc:creator><Agent rdf:about=""><dc:title>Gerald G.</dc:title></Agent></dc:creator>
         <dc:rights><Agent rdf:about="http://web.resource.org/cc/PublicDomain"><dc:title>Public Domain</dc:title></Agent></dc:rights>
         <dc:date>2006/10/02</dc:date>
         <dc:format>image/svg+xml</dc:format>
         <dc:type>http://purl.org/dc/dcmitype/StillImage</dc:type>
         <license rdf:resource="http://web.resource.org/cc/PublicDomain" />
      </Work>
      <License rdf:about="http://web.resource.org/cc/PublicDomain">
         <permits rdf:resource="http://web.resource.org/cc/Reproduction" />
         <permits rdf:resource="http://web.resource.org/cc/Distribution" />
         <permits rdf:resource="http://web.resource.org/cc/DerivativeWorks" />
      </License>
   </rdf:RDF>
</metadata>

<g
   id="g5">
	<path
   d="M 129.906,111.491 C 122.742,111.347 117.306,109.584 113.31,106.055 C 109.098,102.419 106.83,96.407 105.966,90.395 C 105.21,84.167 106.614,75.239 108.81,69.984 C 110.934,64.8 114.354,61.848 118.782,59.328 C 123.03,56.664 127.998,55.188 134.658,54.36 C 141.282,53.46 149.274,53.244 158.634,53.856 L 158.634,53.856 L 156.258,46.512 L 156.258,46.512 C 145.602,45.432 136.314,45.576 128.25,47.232 C 120.042,48.744 113.346,51.444 107.874,56.016 C 102.33,60.66 97.614,67.68 95.526,74.736 C 93.438,81.756 93.186,90.359 95.31,97.487 C 97.29,104.435 100.242,111.851 107.622,116.244 C 114.966,120.456 125.226,122.796 138.942,123.12 L 138.942,123.12 C 135.954,119.268 132.93,115.38 129.906,111.491 L 129.906,111.491 z "
   style="fill-rule:evenodd;stroke:black;stroke-width:0.036;stroke-miterlimit:10"
   id="path7" />
	<path
   d="M 5.238,36.324 L 14.274,36.324 L 16.398,39.888 L 16.398,39.888 C 20.358,39.816 23.634,39.888 26.37,40.104 C 29.07,40.248 30.87,40.392 32.742,41.076 C 34.542,41.76 36.054,42.732 37.278,44.136 L 37.278,44.136 C 49.338,43.272 57.222,43.668 61.218,45.324 C 65.07,46.908 65.034,52.164 60.966,53.856 C 56.862,55.476 48.978,55.872 37.026,55.044 L 37.026,55.044 C 35.802,56.376 34.29,57.456 32.49,58.14 C 30.618,58.752 28.818,58.788 26.118,59.076 C 23.382,59.184 20.106,59.4 16.146,59.328 L 16.146,59.328 L 14.022,62.892 L 4.986,62.892 L 4.986,62.892 C 1.53,58.5 0.018,54.324 0.018,49.824 C 0.054,45.288 1.746,40.968 5.238,36.324 L 5.238,36.324 z "
   style="fill-rule:evenodd;stroke:black;stroke-width:0.036;stroke-miterlimit:10"
   id="path9" />
	<polygon
   points="246.295,97.487 337.482,97.487 337.482,108.396 246.295,108.396 246.295,97.487 "
   style="fill-rule:evenodd;stroke:black;stroke-width:0.036;stroke-miterlimit:10"
   id="polygon11" />
	<polygon
   points="246.295,114.372 337.482,114.372 337.482,125.279 246.295,125.279 246.295,114.372 "
   style="fill-rule:evenodd;stroke:black;stroke-width:0.036;stroke-miterlimit:10"
   id="polygon13" />
	<path
   d="M 344.934,97.56 C 346.698,97.272 348.391,97.344 350.155,97.776 C 351.846,98.136 353.79,98.856 355.303,99.936 C 356.705,100.98 357.967,102.312 358.938,104.077 C 359.911,105.768 360.487,107.856 360.811,110.196 C 360.846,112.465 360.522,115.417 359.838,117.505 C 359.154,119.448 358.254,120.853 356.85,122.149 C 355.231,123.265 353.215,124.166 350.946,124.706 C 348.643,125.246 346.122,125.426 343.243,125.39 L 343.243,125.39 L 344.143,114.23 L 344.143,114.23 C 346.086,114.338 347.706,114.194 348.858,113.942 C 350.047,113.69 350.766,113.186 351.163,112.574 C 351.45,111.818 351.343,110.306 350.839,109.694 C 350.263,109.01 349.003,108.614 347.888,108.506 C 346.663,108.29 345.331,108.325 343.747,108.613 L 343.747,108.613 C 344.143,104.939 344.537,101.268 344.934,97.56 L 344.934,97.56 z "
   style="fill-rule:evenodd;stroke:black;stroke-width:0.036;stroke-miterlimit:10"
   id="path15" />
	<path
   d="M 345.582,96.983 C 346.482,97.668 346.986,98.567 347.238,100.115 C 347.383,101.519 347.093,104.111 346.806,105.66 C 346.372,107.136 345.798,108.252 344.933,109.008 L 344.933,109.008 L 335.466,109.008 L 335.466,109.008 C 335.466,109.008 337.157,106.092 337.482,103.104 C 337.807,100.116 336.798,97.056 336.798,97.056 L 336.798,97.056 C 339.715,97.056 342.631,97.02 345.582,96.983 L 345.582,96.983 z "
   style="fill-rule:evenodd;stroke:black;stroke-width:0.036;stroke-miterlimit:10"
   id="path17" />
	<path
   d="M 345.582,113.832 C 346.482,114.479 346.986,115.487 347.238,117 C 347.383,118.403 347.093,120.996 346.806,122.544 C 346.372,124.02 345.798,125.136 344.933,125.892 L 344.933,125.892 L 335.466,125.892 L 335.466,125.892 C 335.466,125.892 337.157,122.94 337.482,119.953 C 337.806,116.965 336.798,113.94 336.798,113.94 L 336.798,113.94 C 339.715,113.903 342.631,113.868 345.582,113.832 L 345.582,113.832 z "
   style="fill-rule:evenodd;stroke:black;stroke-width:0.036;stroke-miterlimit:10"
   id="path19" />
	<polygon
   points="263.357,95.147 317.467,95.147 317.467,96.552 263.357,96.552 263.357,95.147 "
   style="fill-rule:evenodd;stroke:black;stroke-width:0.036;stroke-miterlimit:10"
   id="polygon21" />
	<polygon
   points="305.586,92.987 315.773,92.987 315.773,97.991 305.586,97.991 305.586,92.987 "
   style="fill-rule:evenodd;stroke:black;stroke-width:0.036;stroke-miterlimit:10"
   id="polygon23" />
	<polygon
   points="309.438,89.892 311.922,89.892 311.922,93.132 309.438,93.132 309.438,89.892 "
   style="fill-rule:evenodd;stroke:black;stroke-width:0.036;stroke-miterlimit:10"
   id="polygon25" />
	<polygon
   points="307.35,88.956 314.189,88.956 314.189,90.396 307.35,90.396 307.35,88.956 "
   style="fill-rule:evenodd;stroke:black;stroke-width:0.036;stroke-miterlimit:10"
   id="polygon27" />
	<path
   d="M 351.99,124.235 L 353.826,126.431 L 353.826,126.431 C 353.142,126.935 352.638,127.403 352.314,127.835 C 351.99,128.231 351.81,128.591 351.918,128.915 L 351.918,128.915 C 352.529,129.419 353.215,129.887 353.826,130.318 C 354.365,130.751 355.121,131.182 355.662,131.327 C 356.131,131.362 356.598,131.146 356.922,130.679 L 356.922,130.679 C 358.074,130.787 359.406,130.427 361.063,129.743 C 362.754,128.951 364.77,128.087 366.678,126.322 C 368.369,124.451 370.026,121.894 371.502,118.654 L 371.502,118.654 C 372.979,118.402 373.627,117.862 373.842,117.322 C 373.879,116.638 373.483,115.955 372.258,114.982 L 372.258,114.982 C 372.69,112.678 372.438,110.338 371.502,107.818 C 370.422,105.262 367.182,100.402 366.498,99.898 C 365.887,99.251 367.254,102.49 367.83,104.327 C 368.334,106.091 368.945,108.755 369.269,110.663 C 369.414,112.463 369.269,114.011 368.837,115.307 L 368.837,115.307 L 360.413,113.723 L 359.405,117.323 L 367.432,118.836 L 367.432,118.836 C 367.145,120.852 366.496,122.472 365.489,123.84 C 364.482,125.208 363.077,126.036 361.421,126.756 L 361.421,126.756 C 361.601,126.323 361.493,125.856 361.241,125.496 C 360.952,124.956 360.053,124.596 359.657,124.416 C 359.116,124.308 358.612,124.235 358.145,124.596 L 358.145,124.596 L 355.913,122.4 L 355.913,122.4 C 355.589,122.581 355.157,122.833 354.474,123.156 C 353.789,123.443 352.963,123.804 351.99,124.235 L 351.99,124.235 z "
   style="fill-rule:evenodd;stroke:black;stroke-width:0.036;stroke-miterlimit:10"
   id="path29" />
	<polygon
   points="276.102,128.916 323.803,128.916 323.803,130.319 276.102,130.319 276.102,128.916 "
   style="fill-rule:evenodd;stroke:black;stroke-width:0.036;stroke-miterlimit:10"
   id="polygon31" />
	<polygon
   points="315.127,124.487 320.887,124.487 320.887,132.66 315.127,132.66 315.127,124.487 "
   style="fill-rule:evenodd;stroke:black;stroke-width:0.036;stroke-miterlimit:10"
   id="polygon33" />
	<polygon
   points="275.166,126.828 278.01,126.828 278.01,132.912 275.166,132.912 275.166,126.828 "
   style="fill-rule:evenodd;stroke:black;stroke-width:0.036;stroke-miterlimit:10"
   id="polygon35" />
	<polygon
   points="279.234,126.899 281.754,126.899 281.754,133.02 279.234,133.02 279.234,126.899 "
   style="fill-rule:evenodd;stroke:black;stroke-width:0.036;stroke-miterlimit:10"
   id="polygon37" />
	<polygon
   points="307.063,124.487 312.822,124.487 312.822,132.66 307.063,132.66 307.063,124.487 "
   style="fill-rule:evenodd;stroke:black;stroke-width:0.036;stroke-miterlimit:10"
   id="polygon39" />
	<path
   d="M 193.698,16.776 L 193.698,21.528 L 197.874,21.924 L 197.874,32.904 L 197.874,32.904 C 196.47,32.904 195.39,33.12 194.238,33.408 C 193.086,33.696 192.078,34.2 191.214,34.776 L 191.214,34.776 L 191.214,40.248 L 191.97,41.076 L 191.97,41.076 C 191.934,43.128 191.934,52.308 191.97,69.3 C 191.934,86.292 191.934,110.267 191.97,142.2 L 191.97,142.2 L 190.674,142.668 L 190.674,148.212 L 190.674,148.212 C 190.89,148.68 191.754,149.148 192.87,149.472 C 194.094,149.796 196.074,150.12 197.694,150.3 C 199.278,150.372 200.538,150.407 202.014,150.264 L 202.014,150.264 C 204.03,150.012 205.65,149.724 206.874,149.4 C 208.062,149.077 208.746,148.608 209.07,148.14 L 209.07,148.14 L 209.07,142.596 L 207.774,142.164 L 207.774,142.164 C 207.738,110.124 207.738,86.328 207.774,69.228 C 207.738,52.236 207.738,43.056 207.774,41.004 L 207.774,41.004 L 208.53,40.176 L 208.53,34.704 L 208.53,34.704 C 207.594,34.092 206.586,33.696 205.506,33.372 C 204.318,33.048 203.238,32.868 201.87,32.832 L 201.87,32.832 L 201.87,21.996 L 206.046,21.456 L 206.046,16.704 L 206.046,16.704 C 204.75,16.308 203.31,16.128 201.87,16.02 C 200.358,15.948 198.522,15.948 197.19,16.164 C 195.786,16.236 194.67,16.488 193.698,16.776 L 193.698,16.776 z "
   style="fill-rule:evenodd;stroke:black;stroke-width:0.036;stroke-miterlimit:10"
   id="path41" />
	<polygon
   points="192.474,35.712 192.726,35.712 192.726,39.636 192.474,39.636 192.474,35.712 "
   style="fill-rule:evenodd;stroke:black;stroke-width:0.036;stroke-miterlimit:10"
   id="polygon43" />
	<polygon
   points="194.058,36 194.31,36 194.31,39.924 194.058,39.924 194.058,36 "
   style="fill-rule:evenodd;stroke:black;stroke-width:0.036;stroke-miterlimit:10"
   id="polygon45" />
	<polygon
   points="195.426,36.072 195.678,36.072 195.678,39.996 195.426,39.996 195.426,36.072 "
   style="fill-rule:evenodd;stroke:black;stroke-width:0.036;stroke-miterlimit:10"
   id="polygon47" />
	<polygon
   points="197.622,36.288 197.874,36.288 197.874,40.248 197.622,40.248 197.622,36.288 "
   style="fill-rule:evenodd;stroke:black;stroke-width:0.036;stroke-miterlimit:10"
   id="polygon49" />
	<polygon
   points="199.602,36.288 199.818,36.288 199.818,40.248 199.602,40.248 199.602,36.288 "
   style="fill-rule:evenodd;stroke:black;stroke-width:0.036;stroke-miterlimit:10"
   id="polygon51" />
	<polygon
   points="201.654,36.144 201.87,36.144 201.87,40.104 201.654,40.104 201.654,36.144 "
   style="fill-rule:evenodd;stroke:black;stroke-width:0.036;stroke-miterlimit:10"
   id="polygon53" />
	<polygon
   points="203.778,35.856 203.994,35.856 203.994,39.78 203.778,39.78 203.778,35.856 "
   style="fill-rule:evenodd;stroke:black;stroke-width:0.036;stroke-miterlimit:10"
   id="polygon55" />
	<polygon
   points="205.866,35.532 206.118,35.532 206.118,39.492 205.866,39.492 205.866,35.532 "
   style="fill-rule:evenodd;stroke:black;stroke-width:0.036;stroke-miterlimit:10"
   id="polygon57" />
	<path
   d="M 194.598,18.648 C 194.814,18.828 195.75,19.116 197.55,19.116 C 199.386,19.116 201.762,19.044 205.218,18.9 L 205.218,18.9 L 205.218,20.34 L 205.218,20.34 C 204.498,20.484 203.382,20.628 202.014,20.628 C 200.538,20.628 198.018,20.772 196.794,20.484 C 195.498,20.124 194.814,19.512 194.598,18.648 L 194.598,18.648 z "
   style="fill-rule:evenodd;stroke:black;stroke-width:0.036;stroke-miterlimit:10"
   id="path59" />
	<path
   d="M 199.818,23.508 C 199.674,24.732 199.674,30.204 199.818,31.464 C 199.854,32.652 200.106,32.076 200.286,30.852 C 200.43,29.52 200.574,25.056 200.574,23.868 C 200.466,22.608 199.89,22.212 199.818,23.508 L 199.818,23.508 z "
   style="fill-rule:evenodd;stroke:black;stroke-width:0.036;stroke-miterlimit:10"
   id="path61" />
	<path
   d="M 201.726,48.096 C 201.546,48.312 201.258,55.764 201.402,61.272 C 201.402,66.672 201.51,79.56 202.158,80.496 C 202.806,81.18 204.822,70.884 205.29,66.276 C 205.65,61.632 204.822,52.56 204.606,53.1 C 204.39,53.604 204.138,68.076 203.85,69.3 C 203.346,70.308 202.626,63.432 202.266,59.904 C 201.834,56.268 201.834,47.844 201.726,48.096 L 201.726,48.096 z "
   style="fill-rule:evenodd;stroke:black;stroke-width:0.036;stroke-miterlimit:10"
   id="path63" />
	<polygon
   points="192.222,143.712 192.438,143.712 192.438,147.636 192.222,147.636 192.222,143.712 "
   style="fill-rule:evenodd;stroke:black;stroke-width:0.036;stroke-miterlimit:10"
   id="polygon65" />
	<polygon
   points="194.094,144.323 194.346,144.323 194.346,148.248 194.094,148.248 194.094,144.323 "
   style="fill-rule:evenodd;stroke:black;stroke-width:0.036;stroke-miterlimit:10"
   id="polygon67" />
	<polygon
   points="196.218,144.756 196.47,144.756 196.47,148.716 196.218,148.716 196.218,144.756 "
   style="fill-rule:evenodd;stroke:black;stroke-width:0.036;stroke-miterlimit:10"
   id="polygon69" />
	<polygon
   points="198.414,144.936 198.666,144.936 198.666,148.859 198.414,148.859 198.414,144.936 "
   style="fill-rule:evenodd;stroke:black;stroke-width:0.036;stroke-miterlimit:10"
   id="polygon71" />
	<polygon
   points="200.934,145.008 201.15,145.008 201.15,148.932 200.934,148.932 200.934,145.008 "
   style="fill-rule:evenodd;stroke:black;stroke-width:0.036;stroke-miterlimit:10"
   id="polygon73" />
	<polygon
   points="203.346,144.936 203.562,144.936 203.562,148.859 203.346,148.859 203.346,144.936 "
   style="fill-rule:evenodd;stroke:black;stroke-width:0.036;stroke-miterlimit:10"
   id="polygon75" />
	<polygon
   points="205.47,144.611 205.686,144.611 205.686,148.571 205.47,148.571 205.47,144.611 "
   style="fill-rule:evenodd;stroke:black;stroke-width:0.036;stroke-miterlimit:10"
   id="polygon77" />
	<polygon
   points="207.27,143.928 207.522,143.928 207.522,147.888 207.27,147.888 207.27,143.928 "
   style="fill-rule:evenodd;stroke:black;stroke-width:0.036;stroke-miterlimit:10"
   id="polygon79" />
	<path
   d="M 215.874,16.776 L 215.874,21.528 L 220.05,21.924 L 220.05,32.904 L 220.05,32.904 C 218.646,32.904 217.566,33.12 216.414,33.408 C 215.262,33.696 214.254,34.2 213.39,34.776 L 213.39,34.776 L 213.39,40.248 L 214.146,41.076 L 214.146,41.076 C 214.11,43.128 214.11,52.308 214.146,69.3 C 214.11,86.292 214.11,110.267 214.146,142.2 L 214.146,142.2 L 212.85,142.668 L 212.85,148.212 L 212.85,148.212 C 213.066,148.68 213.93,149.148 215.046,149.472 C 216.27,149.796 218.25,150.12 219.87,150.3 C 221.454,150.372 222.714,150.407 224.19,150.264 L 224.19,150.264 C 226.206,150.012 227.826,149.724 229.05,149.4 C 230.238,149.077 230.922,148.608 231.246,148.14 L 231.246,148.14 L 231.246,142.596 L 229.95,142.164 L 229.95,142.164 C 229.914,110.124 229.914,86.328 229.95,69.228 C 229.914,52.236 229.914,43.056 229.95,41.004 L 229.95,41.004 L 230.706,40.176 L 230.706,34.704 L 230.706,34.704 C 229.77,34.092 228.762,33.696 227.682,33.372 C 226.494,33.048 225.414,32.868 224.046,32.832 L 224.046,32.832 L 224.046,21.996 L 228.222,21.456 L 228.222,16.704 L 228.222,16.704 C 226.926,16.308 225.486,16.128 224.046,16.02 C 222.534,15.948 220.698,15.948 219.366,16.164 C 217.962,16.236 216.846,16.488 215.874,16.776 L 215.874,16.776 z "
   style="fill-rule:evenodd;stroke:black;stroke-width:0.036;stroke-miterlimit:10"
   id="path81" />
	<polygon
   points="214.65,35.712 214.902,35.712 214.902,39.636 214.65,39.636 214.65,35.712 "
   style="fill-rule:evenodd;stroke:black;stroke-width:0.036;stroke-miterlimit:10"
   id="polygon83" />
	<polygon
   points="216.27,36 216.486,36 216.486,39.924 216.27,39.924 216.27,36 "
   style="fill-rule:evenodd;stroke:black;stroke-width:0.036;stroke-miterlimit:10"
   id="polygon85" />
	<polygon
   points="217.602,36.072 217.854,36.072 217.854,39.996 217.602,39.996 217.602,36.072 "
   style="fill-rule:evenodd;stroke:black;stroke-width:0.036;stroke-miterlimit:10"
   id="polygon87" />
	<polygon
   points="219.798,36.288 220.05,36.288 220.05,40.248 219.798,40.248 219.798,36.288 "
   style="fill-rule:evenodd;stroke:black;stroke-width:0.036;stroke-miterlimit:10"
   id="polygon89" />
	<polygon
   points="221.778,36.288 221.994,36.288 221.994,40.248 221.778,40.248 221.778,36.288 "
   style="fill-rule:evenodd;stroke:black;stroke-width:0.036;stroke-miterlimit:10"
   id="polygon91" />
	<polygon
   points="223.83,36.144 224.046,36.144 224.046,40.104 223.83,40.104 223.83,36.144 "
   style="fill-rule:evenodd;stroke:black;stroke-width:0.036;stroke-miterlimit:10"
   id="polygon93" />
	<polygon
   points="225.954,35.856 226.17,35.856 226.17,39.78 225.954,39.78 225.954,35.856 "
   style="fill-rule:evenodd;stroke:black;stroke-width:0.036;stroke-miterlimit:10"
   id="polygon95" />
	<polygon
   points="228.078,35.532 228.294,35.532 228.294,39.492 228.078,39.492 228.078,35.532 "
   style="fill-rule:evenodd;stroke:black;stroke-width:0.036;stroke-miterlimit:10"
   id="polygon97" />
	<path
   d="M 216.774,18.648 C 216.99,18.828 217.926,19.116 219.726,19.116 C 221.562,19.116 223.938,19.044 227.394,18.9 L 227.394,18.9 L 227.394,20.34 L 227.394,20.34 C 226.674,20.484 225.558,20.628 224.19,20.628 C 222.714,20.628 220.194,20.772 218.97,20.484 C 217.674,20.124 216.99,19.512 216.774,18.648 L 216.774,18.648 z "
   style="fill-rule:evenodd;stroke:black;stroke-width:0.036;stroke-miterlimit:10"
   id="path99" />
	<path
   d="M 221.994,23.508 C 221.85,24.732 221.85,30.204 221.994,31.464 C 222.03,32.652 222.282,32.076 222.462,30.852 C 222.606,29.52 222.75,25.056 222.75,23.868 C 222.642,22.608 222.066,22.212 221.994,23.508 L 221.994,23.508 z "
   style="fill-rule:evenodd;stroke:black;stroke-width:0.036;stroke-miterlimit:10"
   id="path101" />
	<path
   d="M 223.902,48.096 C 223.686,48.312 223.542,55.764 223.614,61.272 C 223.614,66.672 223.722,79.56 224.37,80.496 C 224.946,81.18 226.998,70.884 227.466,66.276 C 227.826,61.632 226.998,52.56 226.782,53.1 C 226.566,53.604 226.314,68.076 226.026,69.3 C 225.522,70.308 224.802,63.432 224.442,59.904 C 224.01,56.268 224.01,47.844 223.902,48.096 L 223.902,48.096 z "
   style="fill-rule:evenodd;stroke:black;stroke-width:0.036;stroke-miterlimit:10"
   id="path103" />
	<polygon
   points="214.398,143.712 214.614,143.712 214.614,147.636 214.398,147.636 214.398,143.712 "
   style="fill-rule:evenodd;stroke:black;stroke-width:0.036;stroke-miterlimit:10"
   id="polygon105" />
	<polygon
   points="216.306,144.323 216.522,144.323 216.522,148.248 216.306,148.248 216.306,144.323 "
   style="fill-rule:evenodd;stroke:black;stroke-width:0.036;stroke-miterlimit:10"
   id="polygon107" />
	<polygon
   points="218.394,144.756 218.646,144.756 218.646,148.716 218.394,148.716 218.394,144.756 "
   style="fill-rule:evenodd;stroke:black;stroke-width:0.036;stroke-miterlimit:10"
   id="polygon109" />
	<polygon
   points="220.59,144.936 220.842,144.936 220.842,148.859 220.59,148.859 220.59,144.936 "
   style="fill-rule:evenodd;stroke:black;stroke-width:0.036;stroke-miterlimit:10"
   id="polygon111" />
	<polygon
   points="223.11,145.008 223.326,145.008 223.326,148.932 223.11,148.932 223.11,145.008 "
   style="fill-rule:evenodd;stroke:black;stroke-width:0.036;stroke-miterlimit:10"
   id="polygon113" />
	<polygon
   points="225.522,144.936 225.738,144.936 225.738,148.859 225.522,148.859 225.522,144.936 "
   style="fill-rule:evenodd;stroke:black;stroke-width:0.036;stroke-miterlimit:10"
   id="polygon115" />
	<polygon
   points="227.646,144.611 227.862,144.611 227.862,148.571 227.646,148.571 227.646,144.611 "
   style="fill-rule:evenodd;stroke:black;stroke-width:0.036;stroke-miterlimit:10"
   id="polygon117" />
	<polygon
   points="229.482,143.928 229.698,143.928 229.698,147.888 229.482,147.888 229.482,143.928 "
   style="fill-rule:evenodd;stroke:black;stroke-width:0.036;stroke-miterlimit:10"
   id="polygon119" />
	<path
   d="M 236.682,16.776 L 236.682,21.528 L 240.822,21.924 L 240.822,32.904 L 240.822,32.904 C 239.418,32.904 238.338,33.12 237.186,33.408 C 236.034,33.696 235.026,34.2 234.162,34.776 L 234.162,34.776 L 234.162,40.248 L 234.918,41.076 L 234.918,41.076 C 234.882,43.128 234.882,52.308 234.918,69.3 C 234.882,86.292 234.882,110.267 234.918,142.2 L 234.918,142.2 L 233.622,142.668 L 233.622,148.212 L 233.622,148.212 C 233.91,148.68 234.594,149.148 235.818,149.472 C 236.97,149.796 239.094,150.12 240.678,150.3 C 242.19,150.372 243.63,150.407 244.998,150.264 L 244.998,150.264 C 247.086,150.012 248.562,149.724 249.822,149.4 C 250.902,149.077 251.765,148.608 252.017,148.14 L 252.017,148.14 L 252.017,142.596 L 250.757,142.164 L 250.757,142.164 C 250.722,110.124 250.722,86.328 250.757,69.228 C 250.722,52.236 250.722,43.056 250.757,41.004 L 250.757,41.004 L 251.513,40.176 L 251.513,34.704 L 251.513,34.704 C 250.577,34.092 249.57,33.696 248.49,33.372 C 247.302,33.048 246.222,32.868 244.853,32.832 L 244.853,32.832 L 244.853,21.996 L 248.994,21.456 L 248.994,16.704 L 248.994,16.704 C 247.662,16.308 246.33,16.128 244.853,16.02 C 243.197,15.948 241.578,15.948 240.138,16.164 C 238.734,16.236 237.582,16.488 236.682,16.776 L 236.682,16.776 z "
   style="fill-rule:evenodd;stroke:black;stroke-width:0.036;stroke-miterlimit:10"
   id="path121" />
	<polygon
   points="235.458,35.712 235.674,35.712 235.674,39.636 235.458,39.636 235.458,35.712 "
   style="fill-rule:evenodd;stroke:black;stroke-width:0.036;stroke-miterlimit:10"
   id="polygon123" />
	<polygon
   points="237.042,36 237.258,36 237.258,39.924 237.042,39.924 237.042,36 "
   style="fill-rule:evenodd;stroke:black;stroke-width:0.036;stroke-miterlimit:10"
   id="polygon125" />
	<polygon
   points="238.41,36.072 238.626,36.072 238.626,39.996 238.41,39.996 238.41,36.072 "
   style="fill-rule:evenodd;stroke:black;stroke-width:0.036;stroke-miterlimit:10"
   id="polygon127" />
	<polygon
   points="240.606,36.288 240.822,36.288 240.822,40.248 240.606,40.248 240.606,36.288 "
   style="fill-rule:evenodd;stroke:black;stroke-width:0.036;stroke-miterlimit:10"
   id="polygon129" />
	<polygon
   points="242.55,36.288 242.802,36.288 242.802,40.248 242.55,40.248 242.55,36.288 "
   style="fill-rule:evenodd;stroke:black;stroke-width:0.036;stroke-miterlimit:10"
   id="polygon131" />
	<polygon
   points="244.602,36.144 244.854,36.144 244.854,40.104 244.602,40.104 244.602,36.144 "
   style="fill-rule:evenodd;stroke:black;stroke-width:0.036;stroke-miterlimit:10"
   id="polygon133" />
	<polygon
   points="246.727,35.856 246.941,35.856 246.941,39.78 246.727,39.78 246.727,35.856 "
   style="fill-rule:evenodd;stroke:black;stroke-width:0.036;stroke-miterlimit:10"
   id="polygon135" />
	<polygon
   points="248.85,35.532 249.066,35.532 249.066,39.492 248.85,39.492 248.85,35.532 "
   style="fill-rule:evenodd;stroke:black;stroke-width:0.036;stroke-miterlimit:10"
   id="polygon137" />
	<path
   d="M 237.582,18.648 C 237.798,18.828 238.734,19.116 240.534,19.116 C 242.262,19.116 244.853,19.044 248.166,18.9 L 248.166,18.9 L 248.166,20.34 L 248.166,20.34 C 247.41,20.484 246.402,20.628 244.998,20.628 C 243.522,20.628 241.002,20.772 239.778,20.484 C 238.482,20.124 237.798,19.512 237.582,18.648 L 237.582,18.648 z "
   style="fill-rule:evenodd;stroke:black;stroke-width:0.036;stroke-miterlimit:10"
   id="path139" />
	<path
   d="M 242.802,23.508 C 242.658,24.732 242.658,30.204 242.802,31.464 C 242.874,32.652 243.018,32.076 243.234,30.852 C 243.379,29.52 243.486,25.056 243.558,23.868 C 243.45,22.608 242.874,22.212 242.802,23.508 L 242.802,23.508 z "
   style="fill-rule:evenodd;stroke:black;stroke-width:0.036;stroke-miterlimit:10"
   id="path141" />
	<path
   d="M 244.674,48.096 C 244.457,48.312 244.315,55.764 244.387,61.272 C 244.387,66.672 244.494,79.56 245.143,80.496 C 245.719,81.18 247.77,70.884 248.239,66.276 C 248.598,61.632 247.77,52.56 247.555,53.1 C 247.338,53.604 247.086,68.076 246.799,69.3 C 246.295,70.308 245.574,63.432 245.215,59.904 C 244.781,56.268 244.781,47.844 244.674,48.096 L 244.674,48.096 z "
   style="fill-rule:evenodd;stroke:black;stroke-width:0.036;stroke-miterlimit:10"
   id="path143" />
	<polygon
   points="235.206,143.712 235.422,143.712 235.422,147.636 235.206,147.636 235.206,143.712 "
   style="fill-rule:evenodd;stroke:black;stroke-width:0.036;stroke-miterlimit:10"
   id="polygon145" />
	<polygon
   points="237.078,144.323 237.294,144.323 237.294,148.248 237.078,148.248 237.078,144.323 "
   style="fill-rule:evenodd;stroke:black;stroke-width:0.036;stroke-miterlimit:10"
   id="polygon147" />
	<polygon
   points="239.202,144.756 239.418,144.756 239.418,148.716 239.202,148.716 239.202,144.756 "
   style="fill-rule:evenodd;stroke:black;stroke-width:0.036;stroke-miterlimit:10"
   id="polygon149" />
	<polygon
   points="241.398,144.936 241.614,144.936 241.614,148.859 241.398,148.859 241.398,144.936 "
   style="fill-rule:evenodd;stroke:black;stroke-width:0.036;stroke-miterlimit:10"
   id="polygon151" />
	<polygon
   points="243.882,145.008 244.135,145.008 244.135,148.932 243.882,148.932 243.882,145.008 "
   style="fill-rule:evenodd;stroke:black;stroke-width:0.036;stroke-miterlimit:10"
   id="polygon153" />
	<polygon
   points="246.33,144.936 246.547,144.936 246.547,148.859 246.33,148.859 246.33,144.936 "
   style="fill-rule:evenodd;stroke:black;stroke-width:0.036;stroke-miterlimit:10"
   id="polygon155" />
	<polygon
   points="248.453,144.611 248.67,144.611 248.67,148.571 248.453,148.571 248.453,144.611 "
   style="fill-rule:evenodd;stroke:black;stroke-width:0.036;stroke-miterlimit:10"
   id="polygon157" />
	<polygon
   points="250.254,143.928 250.471,143.928 250.471,147.888 250.254,147.888 250.254,143.928 "
   style="fill-rule:evenodd;stroke:black;stroke-width:0.036;stroke-miterlimit:10"
   id="polygon159" />
	<path
   d="M 229.77,88.523 C 229.086,88.811 228.582,89.244 228.114,89.963 C 227.574,90.539 226.89,91.439 227.034,92.519 C 227.178,93.599 227.682,95.003 228.834,96.587 L 228.834,96.587 C 229.302,96.047 229.914,95.543 230.67,95.362 C 231.354,95.039 232.254,94.894 233.226,95.075 C 234.234,95.255 235.314,95.614 236.61,96.299 L 236.61,96.299 C 237.582,94.967 237.978,93.707 237.798,92.375 C 237.618,91.007 236.718,89.675 235.386,88.379 L 235.386,88.379 C 235.242,89.387 234.702,90.179 234.054,90.467 C 233.334,90.827 231.75,90.503 231.102,90.322 C 230.418,89.928 229.878,89.424 229.77,88.523 L 229.77,88.523 z "
   style="fill-rule:evenodd;stroke:black;stroke-width:0.036;stroke-miterlimit:10"
   id="path161" />
	<path
   d="M 208.062,88.92 C 207.45,89.208 206.766,89.64 206.406,90.359 C 205.83,90.935 205.254,91.836 205.362,92.916 C 205.47,93.996 206.118,95.399 207.162,96.983 L 207.162,96.983 C 207.594,96.443 208.242,95.939 208.962,95.759 C 209.646,95.435 210.546,95.291 211.518,95.471 C 212.526,95.651 213.606,96.011 214.902,96.695 L 214.902,96.695 C 215.946,95.363 216.306,94.103 216.126,92.771 C 215.91,91.403 215.154,90.071 213.714,88.775 L 213.714,88.775 C 213.462,89.891 213.102,90.504 212.346,90.899 C 211.626,91.151 210.042,91.044 209.394,90.719 C 208.71,90.323 208.17,89.819 208.062,88.92 L 208.062,88.92 z "
   style="fill-rule:evenodd;stroke:black;stroke-width:0.036;stroke-miterlimit:10"
   id="path163" />
	<path
   d="M 229.086,132.228 C 228.474,132.516 227.79,132.948 227.43,133.668 C 226.854,134.244 226.278,135.144 226.386,136.224 C 226.494,137.304 227.142,138.708 228.186,140.292 L 228.186,140.292 C 228.618,139.752 229.266,139.248 229.986,139.067 C 230.67,138.744 231.57,138.599 232.542,138.779 C 233.514,138.887 234.702,139.284 235.962,139.967 L 235.962,139.967 C 236.934,138.635 237.33,137.339 237.15,136.079 C 236.97,134.711 236.07,133.379 234.738,132.083 L 234.738,132.083 C 234.522,133.091 234.018,133.883 233.37,134.171 C 232.578,134.53 231.138,134.207 230.454,134.026 C 229.77,133.632 229.266,133.128 229.086,132.228 L 229.086,132.228 z "
   style="fill-rule:evenodd;stroke:black;stroke-width:0.036;stroke-miterlimit:10"
   id="path165" />
	<path
   d="M 207.738,131.976 C 207.054,132.264 206.55,132.696 206.082,133.416 C 205.542,133.991 204.858,134.892 205.002,135.972 C 205.11,137.052 205.722,138.456 206.838,140.04 L 206.838,140.04 C 207.27,139.5 207.918,138.996 208.638,138.815 C 209.322,138.491 210.222,138.347 211.194,138.527 C 212.202,138.635 213.282,139.031 214.578,139.715 L 214.578,139.715 C 215.55,138.383 215.946,137.087 215.766,135.827 C 215.55,134.459 214.758,133.127 213.39,131.831 L 213.39,131.831 C 213.138,132.839 212.778,133.631 212.022,133.919 C 211.302,134.278 209.718,133.955 209.07,133.774 C 208.386,133.38 207.846,132.876 207.738,131.976 L 207.738,131.976 z "
   style="fill-rule:evenodd;stroke:black;stroke-width:0.036;stroke-miterlimit:10"
   id="path167" />
	<path
   d="M 229.158,111.06 C 228.366,111.456 227.718,111.888 227.214,112.752 C 226.602,113.508 225.81,114.372 225.954,115.775 C 226.062,117.036 226.818,118.691 228.078,120.599 L 228.078,120.599 C 228.618,119.879 229.338,119.447 230.238,119.16 C 231.066,118.8 232.074,118.584 233.262,118.8 C 234.414,118.98 235.746,119.412 237.258,120.239 L 237.258,120.239 C 238.482,118.655 238.914,117.107 238.698,115.595 C 238.446,113.939 237.546,112.499 235.854,110.879 L 235.854,110.879 C 235.602,112.103 235.062,112.931 234.234,113.362 C 233.262,113.65 231.642,113.543 230.778,113.182 C 229.878,112.716 229.338,112.14 229.158,111.06 L 229.158,111.06 z "
   style="fill-rule:evenodd;stroke:black;stroke-width:0.036;stroke-miterlimit:10"
   id="path169" />
	<path
   d="M 139.95,45.108 L 138.942,52.308 L 138.942,52.308 C 174.366,53.856 203.922,55.044 229.41,56.016 C 254.681,56.88 266.562,56.844 289.926,57.852 C 313.289,58.86 347.922,60.444 368.551,62.028 C 388.926,63.432 399.547,64.836 411.93,66.924 C 424.243,68.904 434.395,71.676 441.846,74.556 C 449.047,77.399 452.178,80.784 455.274,84.311 C 458.335,87.731 457.831,91.583 460.17,95.435 C 462.475,99.251 465.426,107.459 468.738,107.279 C 471.869,106.956 476.551,99.576 479.177,94.031 C 481.626,88.416 482.849,80.927 483.966,74.34 C 485.009,67.788 485.73,61.344 485.837,54.864 L 485.837,54.864 C 486.089,47.7 486.017,40.86 485.585,33.984 C 485.153,27.108 484.901,19.62 483.28,14.04 C 481.626,8.46 478.313,2.7 475.864,0.828 C 473.417,-1.044 470.897,0.612 468.665,2.916 C 466.47,5.22 464.345,11.34 462.688,14.508 C 461.069,17.64 461.752,18.864 458.981,21.708 C 456.21,24.552 455.02,28.656 446.237,31.428 C 437.382,34.2 426.76,36.468 406.565,38.16 C 386.26,39.816 352.169,40.608 325.817,41.4 C 299.501,42.192 281.069,42.192 249.856,42.804 C 218.574,43.416 182.574,44.172 139.95,45.108 L 139.95,45.108 z "
   style="fill-rule:evenodd;stroke:black;stroke-width:0.036;stroke-miterlimit:10"
   id="path171" />
	<path
   d="M 265.77,22.212 L 265.122,24.264 L 265.122,24.264 C 263.431,24.696 261.954,25.38 260.155,26.712 C 258.319,27.9 255.583,29.736 254.719,31.788 C 253.746,33.876 253.819,36.72 254.934,38.916 C 256.014,41.004 257.131,42.876 261.594,44.244 C 266.059,45.504 272.502,46.296 281.323,46.62 L 281.323,46.62 C 281.575,45.612 282.114,44.748 282.942,44.172 C 283.735,43.524 284.815,43.02 286.182,42.804 L 286.182,42.804 L 286.399,41.364 L 286.399,41.364 C 283.663,41.364 280.567,41.4 276.967,41.472 C 273.258,41.544 267.895,41.94 264.762,41.544 C 261.594,40.968 259.362,39.78 258.067,38.376 C 256.698,36.864 256.446,34.632 256.735,33.048 C 256.95,31.464 257.706,30.384 259.542,28.98 C 261.308,27.432 263.79,25.992 267.14,24.264 L 267.14,24.264 C 267.247,23.4 267.32,22.824 267.212,22.392 C 266.958,21.888 266.636,21.564 266.384,21.564 C 266.166,21.492 265.914,21.708 265.77,22.212 L 265.77,22.212 z "
   style="fill-rule:evenodd;stroke:black;stroke-width:0.036;stroke-miterlimit:10"
   id="path173" />
	<polygon
   points="147.654,97.487 183.942,97.487 183.942,108.396 147.654,108.396 147.654,97.487 "
   style="fill-rule:evenodd;stroke:black;stroke-width:0.036;stroke-miterlimit:10"
   id="polygon175" />
	<path
   d="M 182.322,96.983 C 181.638,97.668 181.242,98.567 181.134,100.115 C 180.954,101.519 181.098,104.111 181.422,105.66 C 181.71,107.136 182.178,108.252 182.826,109.008 L 182.826,109.008 L 188.55,109.008 L 189.81,108.323 L 189.81,108.323 C 191.466,108.252 192.618,107.891 193.662,107.531 C 194.49,107.135 195.066,106.452 195.534,105.767 C 195.966,104.939 196.83,103.931 196.722,102.887 C 196.542,101.735 195.93,100.187 194.742,99.359 C 193.518,98.423 191.862,98.027 189.63,97.775 L 189.63,97.775 L 188.226,96.983 L 188.226,96.983 C 186.282,96.983 184.302,96.983 182.322,96.983 L 182.322,96.983 z "
   style="fill-rule:evenodd;stroke:black;stroke-width:0.036;stroke-miterlimit:10"
   id="path177" />
	<polygon
   points="147.654,114.372 183.942,114.372 183.942,125.279 147.654,125.279 147.654,114.372 "
   style="fill-rule:evenodd;stroke:black;stroke-width:0.036;stroke-miterlimit:10"
   id="polygon179" />
	<path
   d="M 182.322,113.832 C 181.638,114.479 181.242,115.487 181.134,117 C 180.954,118.403 181.098,120.996 181.422,122.544 C 181.71,124.02 182.178,125.136 182.826,125.892 L 182.826,125.892 L 188.55,125.892 L 189.81,125.208 L 189.81,125.208 C 191.466,125.136 192.618,124.775 193.662,124.416 C 194.49,123.912 195.066,123.407 195.534,122.615 C 195.966,121.752 196.83,120.851 196.722,119.771 C 196.542,118.655 195.93,117 194.742,116.208 C 193.518,115.271 191.862,114.876 189.63,114.624 L 189.63,114.624 L 188.226,113.832 L 188.226,113.832 C 186.282,113.832 184.302,113.832 182.322,113.832 L 182.322,113.832 z "
   style="fill-rule:evenodd;stroke:black;stroke-width:0.036;stroke-miterlimit:10"
   id="path181" />
	<path
   d="M 141.39,97.56 C 139.626,97.272 137.826,97.344 136.134,97.776 C 134.298,98.136 132.498,98.856 131.022,99.936 C 129.402,100.98 128.322,102.312 127.35,104.077 C 126.342,105.768 125.586,107.856 125.478,110.196 C 125.298,112.465 125.766,115.417 126.486,117.505 C 127.026,119.448 127.962,120.853 129.438,122.149 C 130.95,123.265 132.966,124.166 135.342,124.706 C 137.61,125.246 140.13,125.426 143.046,125.39 L 143.046,125.39 L 142.182,114.23 L 142.182,114.23 C 140.13,114.338 138.546,114.194 137.43,113.942 C 136.206,113.69 135.45,113.186 135.162,112.574 C 134.766,111.818 134.91,110.306 135.45,109.694 C 135.918,109.01 137.178,108.614 138.402,108.506 C 139.59,108.29 140.922,108.325 142.542,108.613 L 142.542,108.613 C 142.182,104.939 141.786,101.268 141.39,97.56 L 141.39,97.56 z "
   style="fill-rule:evenodd;stroke:black;stroke-width:0.036;stroke-miterlimit:10"
   id="path183" />
	<path
   d="M 140.706,96.983 C 139.806,97.668 139.266,98.567 139.086,100.115 C 138.762,101.519 139.122,104.111 139.482,105.66 C 139.842,107.136 140.526,108.252 141.39,109.008 L 141.39,109.008 L 150.858,109.008 L 150.858,109.008 C 150.858,109.008 149.166,106.092 148.806,103.104 C 148.482,100.116 149.49,97.056 149.49,97.056 L 149.49,97.056 C 146.574,97.056 143.658,97.02 140.706,96.983 L 140.706,96.983 z "
   style="fill-rule:evenodd;stroke:black;stroke-width:0.036;stroke-miterlimit:10"
   id="path185" />
	<path
   d="M 140.706,113.832 C 139.806,114.479 139.266,115.487 139.086,117 C 138.762,118.403 139.122,120.996 139.482,122.544 C 139.842,124.02 140.526,125.136 141.39,125.892 L 141.39,125.892 L 150.858,125.892 L 150.858,125.892 C 150.858,125.892 149.166,122.94 148.806,119.953 C 148.482,116.965 149.49,113.94 149.49,113.94 L 149.49,113.94 C 146.574,113.903 143.658,113.868 140.706,113.832 L 140.706,113.832 z "
   style="fill-rule:evenodd;stroke:black;stroke-width:0.036;stroke-miterlimit:10"
   id="path187" />
	<path
   d="M 205.434,97.56 C 203.454,97.272 201.438,97.344 199.53,97.776 C 197.55,98.136 195.354,98.856 193.77,99.936 C 192.042,100.98 190.674,102.312 189.666,104.077 C 188.514,105.768 187.722,107.856 187.578,110.196 C 187.398,112.465 187.866,115.417 188.694,117.505 C 189.342,119.448 190.35,120.853 192.006,122.149 C 193.626,123.265 196.038,124.166 198.666,124.706 C 201.186,125.246 204.066,125.426 207.306,125.39 L 207.306,125.39 L 206.298,114.23 L 206.298,114.23 C 204.03,114.338 202.302,114.194 200.97,113.942 C 199.638,113.69 198.846,113.186 198.45,112.574 C 198.054,111.818 198.162,110.306 198.774,109.694 C 199.386,109.01 200.682,108.614 202.086,108.506 C 203.418,108.29 204.93,108.325 206.766,108.613 L 206.766,108.613 C 206.334,104.939 205.902,101.268 205.434,97.56 L 205.434,97.56 z "
   style="fill-rule:evenodd;stroke:black;stroke-width:0.036;stroke-miterlimit:10"
   id="path189" />
	<path
   d="M 205.866,96.983 C 205.182,97.668 204.642,98.567 204.534,100.115 C 204.354,101.519 204.462,104.111 204.858,105.66 C 205.182,107.136 205.65,108.252 206.406,109.008 L 206.406,109.008 L 212.85,109.008 L 214.29,108.323 L 214.29,108.323 C 216.09,108.252 217.53,107.891 218.61,107.531 C 219.582,107.135 220.158,106.452 220.734,105.767 C 221.274,104.939 222.138,103.931 222.066,102.887 C 221.85,101.735 221.202,100.187 219.834,99.359 C 218.43,98.423 216.558,98.027 214.074,97.775 L 214.074,97.775 L 212.526,96.983 L 212.526,96.983 C 210.33,96.983 208.098,96.983 205.866,96.983 L 205.866,96.983 z "
   style="fill-rule:evenodd;stroke:black;stroke-width:0.036;stroke-miterlimit:10"
   id="path191" />
	<path
   d="M 205.866,113.832 C 205.182,114.479 204.642,115.487 204.534,117 C 204.354,118.403 204.462,120.996 204.858,122.544 C 205.182,124.02 205.65,125.136 206.406,125.892 L 206.406,125.892 L 212.85,125.892 L 214.29,125.208 L 214.29,125.208 C 216.09,125.136 217.53,124.775 218.61,124.416 C 219.582,123.912 220.158,123.407 220.734,122.615 C 221.274,121.752 222.138,120.851 222.066,119.771 C 221.85,118.655 221.202,117 219.834,116.208 C 218.43,115.271 216.558,114.876 214.074,114.624 L 214.074,114.624 L 212.526,113.832 L 212.526,113.832 C 210.33,113.832 208.098,113.832 205.866,113.832 L 205.866,113.832 z "
   style="fill-rule:evenodd;stroke:black;stroke-width:0.036;stroke-miterlimit:10"
   id="path193" />
	<polygon
   points="56.862,44.136 361.891,44.136 361.891,55.044 56.862,55.044 56.862,44.136 "
   style="fill-rule:evenodd;stroke:black;stroke-width:0.036;stroke-miterlimit:10"
   id="polygon195" />
	<polygon
   points="250.219,111.312 360.701,111.312 360.701,122.22 250.219,122.22 250.219,111.312 "
   style="fill-rule:evenodd;stroke:black;stroke-width:0.036;stroke-miterlimit:10"
   id="polygon197" />
	<path
   d="M 254.43,110.52 C 255.078,111.168 255.475,112.176 255.618,113.688 C 255.763,115.128 255.475,117.612 255.296,119.196 C 255.042,120.673 254.538,121.753 253.927,122.581 L 253.927,122.581 L 248.202,122.581 L 246.907,121.86 L 246.907,121.86 C 245.286,121.789 244.063,121.428 243.091,121.068 C 242.119,120.672 241.579,119.988 241.183,119.304 C 240.607,118.44 239.851,117.54 240.031,116.46 C 240.103,115.344 240.751,113.688 241.975,112.896 C 243.199,111.96 244.782,111.564 247.122,111.312 L 247.122,111.312 L 248.491,110.52 L 248.491,110.52 C 250.471,110.52 252.449,110.52 254.43,110.52 L 254.43,110.52 z "
   style="fill-rule:evenodd;stroke:black;stroke-width:0.036;stroke-miterlimit:10"
   id="path199" />
	<path
   d="M 368.803,44.244 C 370.639,43.92 373.051,44.064 376.326,44.676 C 379.457,45.144 384.353,45.54 388.097,47.808 C 391.878,50.04 396.089,52.632 398.646,58.5 C 400.986,64.44 402.677,74.772 402.605,82.691 C 402.39,90.431 400.806,98.927 398.25,104.868 C 395.693,110.664 392.777,114.624 387.559,117.576 C 382.159,120.42 375.354,121.931 366.606,122.111 L 366.606,122.111 L 364.842,111.311 L 364.842,111.311 C 371.467,112.067 376.723,111.239 381.006,108.971 C 385.289,106.487 388.205,102.059 390.151,97.343 C 391.807,92.591 392.311,86.795 391.95,81.071 C 391.663,75.132 390.475,67.068 388.387,62.856 C 386.047,58.752 382.987,57.672 379.205,56.412 C 375.426,55.044 371.322,54.504 366.353,54.792 L 366.353,54.792 C 367.146,51.3 367.975,47.772 368.803,44.244 L 368.803,44.244 z "
   style="fill-rule:evenodd;stroke:black;stroke-width:0.036;stroke-miterlimit:10"
   id="path201" />
	<path
   d="M 368.945,43.632 C 369.81,44.316 370.422,45.216 370.638,46.764 C 370.853,48.168 370.529,50.76 370.204,52.308 C 369.737,53.784 369.126,54.9 368.225,55.656 L 368.225,55.656 L 358.217,55.656 L 358.217,55.656 C 358.217,55.656 360.016,52.704 360.377,49.752 C 360.736,46.764 359.656,43.704 359.656,43.704 L 359.656,43.704 C 362.754,43.704 365.85,43.668 368.945,43.632 L 368.945,43.632 z "
   style="fill-rule:evenodd;stroke:black;stroke-width:0.036;stroke-miterlimit:10"
   id="path203" />
	<path
   d="M 368.945,110.735 C 369.81,111.383 370.422,112.391 370.638,113.903 C 370.853,115.271 370.529,117.935 370.204,119.412 C 369.737,120.888 369.126,122.004 368.225,122.76 L 368.225,122.76 L 358.217,122.76 L 358.217,122.76 C 358.217,122.76 360.016,119.844 360.377,116.856 C 360.736,113.869 359.656,110.844 359.656,110.844 L 359.656,110.844 C 362.754,110.808 365.85,110.771 368.945,110.735 L 368.945,110.735 z "
   style="fill-rule:evenodd;stroke:black;stroke-width:0.036;stroke-miterlimit:10"
   id="path205" />
	<polygon
   points="347.598,54.252 354.186,54.252 354.186,64.512 347.598,64.512 347.598,54.252 "
   style="fill-rule:evenodd;stroke:black;stroke-width:0.036;stroke-miterlimit:10"
   id="polygon207" />
	<polygon
   points="347.598,101.844 354.186,101.844 354.186,112.104 347.598,112.104 347.598,101.844 "
   style="fill-rule:evenodd;stroke:black;stroke-width:0.036;stroke-miterlimit:10"
   id="polygon209" />
	<polygon
   points="348.715,64.224 352.529,64.224 352.529,102.672 348.715,102.672 348.715,64.224 "
   style="fill-rule:evenodd;stroke:black;stroke-width:0.036;stroke-miterlimit:10"
   id="polygon211" />
	<path
   d="M 395.227,109.655 C 395.731,110.303 396.415,110.807 397.135,111.168 C 397.781,111.491 398.61,111.672 399.475,111.708 L 399.475,111.708 C 400.266,112.536 400.121,113.544 399.043,114.731 C 397.926,115.919 395.873,117.288 392.887,118.835 L 392.887,118.835 C 392.957,118.15 392.778,117.647 392.346,117.322 C 391.914,116.999 391.086,116.854 390.151,116.89 L 390.151,116.89 L 389.323,116.494 L 384.139,119.086 L 384.678,120.058 L 384.678,120.058 C 384.426,120.238 384.246,120.598 384.139,121.138 C 383.957,121.642 383.67,122.47 383.85,123.082 C 383.887,123.622 384.354,123.981 384.967,124.162 C 385.543,124.126 386.551,123.981 387.701,123.334 L 387.701,123.334 C 389.719,124.126 392.131,123.766 394.937,122.254 C 397.71,120.525 401.562,117.79 404.406,113.901 C 407.177,109.977 410.238,103.101 411.642,99.25 C 412.974,95.254 412.505,91.222 412.326,90.897 C 412.074,90.717 411.57,94.75 409.986,97.737 C 408.222,100.546 405.81,103.929 402.318,107.889 L 402.318,107.889 C 401.777,107.349 401.093,106.881 400.265,106.629 C 399.365,106.305 398.322,106.125 397.134,106.089 L 397.134,106.089 C 396.521,107.279 395.873,108.468 395.227,109.655 L 395.227,109.655 z "
   style="fill-rule:evenodd;stroke:black;stroke-width:0.036;stroke-miterlimit:10"
   id="path213" />
	<path
   d="M 206.91,47.304 C 221.202,47.268 217.422,47.232 232.506,47.628 C 247.662,47.88 286.434,48.564 297.162,49.284 C 307.601,49.968 311.777,51.768 295.541,51.912 C 278.91,51.948 224.046,49.932 199.674,49.608 C 175.41,49.212 171.486,49.644 151.11,49.932 C 130.41,50.22 78.93,51.48 77.886,51.228 C 77.202,50.832 124.794,48.204 146.502,47.628 C 168.174,46.908 192.33,47.268 206.91,47.304 L 206.91,47.304 z "
   style="fill-rule:evenodd;stroke:black;stroke-width:0.036;stroke-miterlimit:10"
   id="path215" />
	<path
   d="M 296.514,117.216 C 300.078,116.856 336.942,116.856 341.155,117.216 C 345.114,117.54 327.907,119.124 320.491,119.195 C 312.895,119.124 293.094,117.54 296.514,117.216 L 296.514,117.216 z "
   style="fill-rule:evenodd;stroke:black;stroke-width:0.036;stroke-miterlimit:10"
   id="path217" />
	<path
   d="M 275.525,103.752 C 279.089,103.392 315.953,103.392 320.166,103.752 C 323.982,104.076 306.99,105.66 299.467,105.731 C 291.834,105.66 272.143,104.076 275.525,103.752 L 275.525,103.752 z "
   style="fill-rule:evenodd;stroke:black;stroke-width:0.036;stroke-miterlimit:10"
   id="path219" />
	<path
   d="M 153.378,104.328 C 155.286,104.147 175.446,104.147 177.75,104.328 C 179.838,104.508 170.514,105.336 166.446,105.407 C 162.234,105.336 151.542,104.508 153.378,104.328 L 153.378,104.328 z "
   style="fill-rule:evenodd;stroke:black;stroke-width:0.036;stroke-miterlimit:10"
   id="path221" />
	<path
   d="M 152.046,121.752 C 153.954,121.571 174.114,121.571 176.418,121.752 C 178.47,121.859 169.254,122.76 165.15,122.796 C 160.974,122.76 150.174,121.859 152.046,121.752 L 152.046,121.752 z "
   style="fill-rule:evenodd;stroke:black;stroke-width:0.036;stroke-miterlimit:10"
   id="path223" />
	<path
   d="M 264.078,76.392 L 264.078,76.392 C 269.642,76.392 274.158,80.908 274.158,86.472 C 274.158,92.036 269.642,96.552 264.078,96.552 C 258.514,96.552 253.998,92.036 253.998,86.472 C 253.998,80.908 258.514,76.392 264.078,76.392 L 264.078,76.392 z M 264.186,77.832 L 264.186,77.832 C 268.897,77.832 272.719,81.702 272.719,86.472 C 272.719,91.242 268.897,95.112 264.186,95.112 C 259.477,95.112 255.655,91.242 255.655,86.472 C 255.655,81.702 259.477,77.832 264.186,77.832 L 264.186,77.832 z "
   style="fill-rule:evenodd;stroke:black;stroke-width:0.036;stroke-miterlimit:10"
   id="path225" />
</g>
</svg>