<?xml version="1.0" encoding="UTF-8" standalone="no"?>
<!-- Generator: Adobe Illustrator 13.0.2, SVG Export Plug-In . SVG Version: 6.00 Build 14948)  -->

<svg
   xmlns:dc="http://purl.org/dc/elements/1.1/"
   xmlns:cc="http://creativecommons.org/ns#"
   xmlns:rdf="http://www.w3.org/1999/02/22-rdf-syntax-ns#"
   xmlns:svg="http://www.w3.org/2000/svg"
   xmlns="http://www.w3.org/2000/svg"
   xmlns:sodipodi="http://sodipodi.sourceforge.net/DTD/sodipodi-0.dtd"
   xmlns:inkscape="http://www.inkscape.org/namespaces/inkscape"
   version="1.0"
   id="Layer_1"
   x="0px"
   y="0px"
   width="222.01602"
   height="288"
   viewBox="0 0 222.01602 288"
   enable-background="new 0 0 222.018 288"
   xml:space="preserve"
   inkscape:version="0.48.2 r9819"
   sodipodi:docname="kitchen-coffee_perc.svg"><metadata
   id="metadata253"><rdf:RDF><cc:Work
       rdf:about=""><dc:format>image/svg+xml</dc:format><dc:type
         rdf:resource="http://purl.org/dc/dcmitype/StillImage" /><dc:title></dc:title><cc:license
         rdf:resource="http://creativecommons.org/licenses/publicdomain/" /></cc:Work><cc:License
       rdf:about="http://creativecommons.org/licenses/publicdomain/"><cc:permits
         rdf:resource="http://creativecommons.org/ns#Reproduction" /><cc:permits
         rdf:resource="http://creativecommons.org/ns#Distribution" /><cc:permits
         rdf:resource="http://creativecommons.org/ns#DerivativeWorks" /></cc:License></rdf:RDF></metadata><defs
   id="defs251" /><sodipodi:namedview
   pagecolor="#ffffff"
   bordercolor="#666666"
   borderopacity="1"
   objecttolerance="10"
   gridtolerance="10"
   guidetolerance="10"
   inkscape:pageopacity="0"
   inkscape:pageshadow="2"
   inkscape:window-width="1280"
   inkscape:window-height="968"
   id="namedview249"
   showgrid="false"
   fit-margin-top="0"
   fit-margin-left="0"
   fit-margin-right="0"
   fit-margin-bottom="0"
   inkscape:zoom="0.81944444"
   inkscape:cx="-59.838458"
   inkscape:cy="144"
   inkscape:window-x="-4"
   inkscape:window-y="-4"
   inkscape:window-maximized="1"
   inkscape:current-layer="Layer_1" /><g
   id="percolator"
   transform="translate(-2.6855469e-6,0)">
	<path
   d="m 184.942,283.291 c 0,2.59 -2.143,4.709 -4.764,4.709 H 48.31 c -2.622,0 -4.766,-2.119 -4.766,-4.709 v -7.521 c 0,-2.59 2.144,-4.71 4.766,-4.71 h 131.869 c 2.621,0 4.764,2.12 4.764,4.71 v 7.521 z"
   id="path237"
   inkscape:connector-curvature="0"
   style="fill:#231f20" />
	<path
   d="M 221.54,134.902 C 219.82,113.291 212.538,94.458 205.737,80.949 198.922,67.44 192.543,59.238 192.341,58.974 c -2.389,-3.061 -6.833,-3.631 -9.93,-1.271 -3.097,2.358 -3.674,6.75 -1.289,9.811 v 0.001 c 0.161,0.204 5.353,6.967 11.085,18 l -20.254,1.564 -2.894,-40.03 c -0.186,-2.584 -2.482,-4.698 -5.103,-4.698 H 64.53 c -2.622,0 -4.92,2.114 -5.105,4.698 L 52.813,138.552 36.851,101.739 C 35.819,99.357 32.83,97.409 30.21,97.409 H 14.028 c -2.619,0 -4.064,2.003 -3.212,4.453 l 36.985,106.019 -3.919,54.245 c -0.188,2.581 1.805,4.696 4.427,4.696 h 131.869 c 2.621,0 4.612,-2.115 4.424,-4.696 l -5.223,-72.318 21.832,-1.688 c -0.391,1.154 -0.785,2.261 -1.179,3.316 -1.945,5.216 -3.881,9.231 -5.301,11.899 -0.712,1.334 -1.292,2.33 -1.68,2.971 -0.193,0.318 -0.341,0.55 -0.43,0.69 -0.045,0.068 -0.074,0.115 -0.091,0.141 v 0.001 c -2.176,3.213 -1.303,7.559 1.948,9.707 1.208,0.801 2.575,1.183 3.929,1.183 2.285,0 4.526,-1.09 5.893,-3.107 0.463,-0.706 17.689,-26.341 17.716,-68.013 0.002,-3.867 -0.151,-7.872 -0.476,-12.006 z m -16.927,41.162 c -0.05,0.004 -0.096,0 -0.145,0.004 l -25.938,2.005 -5.729,-79.256 24.746,-1.912 c 4.649,11.076 8.734,24.541 9.875,39.088 0.297,3.764 0.433,7.406 0.433,10.917 0,11.055 -1.346,20.844 -3.242,29.154 z"
   id="path239"
   inkscape:connector-curvature="0"
   style="fill:#231f20" />
	<path
   d="m 168.382,33.419 c 0,0 -0.578,-7.312 -0.578,-8.008 0,-6.103 -18.136,-11.199 -42.318,-12.425 l 2.445,-8.459 C 128.651,2.038 127.095,0 124.476,0 h -20.465 c -2.621,0 -4.176,2.038 -3.455,4.528 l 2.445,8.459 c -24.183,1.226 -42.319,6.322 -42.319,12.425 0,0.696 -0.578,8.008 -0.578,8.008 -0.186,2.584 1.805,4.698 4.427,4.698 h 99.428 c 2.619,-0.001 4.61,-2.115 4.423,-4.699 z"
   id="path241"
   inkscape:connector-curvature="0"
   style="fill:#231f20" />
	<g
   id="g243">
		<path
   d="M 29.054,80.735 C 23.007,73.91 20.243,67.742 20.241,61.913 l 0,0 C 20.25,55.734 23.315,50.926 26.43,47.025 l 0,0 c 3.165,-3.917 6.555,-7.286 8.485,-10.459 l 0,0 c 1.301,-2.12 1.97,-3.99 1.973,-6.027 l 0,0 C 36.902,27.53 35.337,23.226 29.2,16.938 l 0,0 c -1.654,-1.692 -1.599,-4.384 0.13,-6.006 l 0,0 c 1.729,-1.623 4.472,-1.568 6.131,0.125 l 0,0 c 6.912,7.057 10.085,13.385 10.099,19.482 l 0,0 c -0.019,6.057 -3.115,10.728 -6.209,14.56 l 0,0 c -3.148,3.855 -6.512,7.22 -8.444,10.473 l 0,0 c -1.302,2.172 -1.991,4.139 -1.997,6.342 l 0,0 c 0,3.071 1.417,7.267 6.698,13.266 l 0,0 c 1.567,1.773 1.367,4.456 -0.438,5.992 l 0,0 c -0.822,0.695 -1.831,1.033 -2.836,1.033 l 0,0 c -1.215,-0.001 -2.426,-0.497 -3.28,-1.47 l 0,0 z"
   id="path245"
   inkscape:connector-curvature="0"
   style="fill:#808080" />
		<path
   d="M 8.813,80.735 C 2.767,73.91 0.003,67.742 0,61.913 l 0,0 C 0.008,55.734 3.073,50.926 6.189,47.025 l 0,0 c 3.166,-3.917 6.555,-7.286 8.483,-10.459 l 0,0 c 1.304,-2.12 1.972,-3.99 1.974,-6.027 l 0,0 C 16.661,27.53 15.096,23.226 8.959,16.938 l 0,0 C 7.305,15.246 7.361,12.554 9.09,10.932 l 0,0 c 1.728,-1.623 4.471,-1.568 6.131,0.125 l 0,0 c 6.909,7.057 10.084,13.385 10.098,19.482 l 0,0 c -0.021,6.057 -3.116,10.728 -6.209,14.56 l 0,0 c -3.149,3.855 -6.513,7.22 -8.444,10.473 l 0,0 c -1.303,2.172 -1.991,4.139 -1.999,6.342 l 0,0 c 0,3.071 1.419,7.267 6.7,13.266 l 0,0 c 1.566,1.773 1.368,4.456 -0.438,5.992 l 0,0 c -0.821,0.695 -1.831,1.033 -2.835,1.033 l 0,0 C 10.878,82.204 9.669,81.708 8.813,80.735 l 0,0 z"
   id="path247"
   inkscape:connector-curvature="0"
   style="fill:#808080" />
	</g>
</g>
</svg>