<?xml version="1.0" encoding="UTF-8" standalone="no"?>
<!-- Generator: Adobe Illustrator 12.0.0, SVG Export Plug-In . SVG Version: 6.00 Build 51448)  -->

<svg
   xmlns:dc="http://purl.org/dc/elements/1.1/"
   xmlns:cc="http://creativecommons.org/ns#"
   xmlns:rdf="http://www.w3.org/1999/02/22-rdf-syntax-ns#"
   xmlns:svg="http://www.w3.org/2000/svg"
   xmlns="http://www.w3.org/2000/svg"
   xmlns:sodipodi="http://sodipodi.sourceforge.net/DTD/sodipodi-0.dtd"
   xmlns:inkscape="http://www.inkscape.org/namespaces/inkscape"
   height="300"
   id="Layer_1"
   inkscape:version="0.48.2 r9819"
   sodipodi:docname="crow.svg"
   sodipodi:version="0.32"
   space="preserve"
   style="overflow:visible"
   version="1.1"
   viewBox="0 0 300.00001 300"
   width="300">
  <metadata
     id="metadata2996">
    <rdf:RDF>
      <cc:Work
         rdf:about="">
        <dc:title>Uccello profilo 01</dc:title>
        <dc:description />
        <dc:subject>
          <rdf:Bag>
            <rdf:li>bird</rdf:li>
          </rdf:Bag>
        </dc:subject>
        <dc:publisher>
          <cc:Agent
             rdf:about="http://www.openclipart.org/">
            <dc:title>Open Clip Art Library</dc:title>
          </cc:Agent>
        </dc:publisher>
        <dc:creator>
          <cc:Agent>
            <dc:title>Architetto Francesco Rollandin</dc:title>
          </cc:Agent>
        </dc:creator>
        <dc:rights>
          <cc:Agent>
            <dc:title>Architetto Francesco Rollandin</dc:title>
          </cc:Agent>
        </dc:rights>
        <dc:date />
        <dc:format>image/svg+xml</dc:format>
        <dc:type
           rdf:resource="http://purl.org/dc/dcmitype/StillImage" />
        <cc:license
           rdf:resource="http://web.resource.org/cc/PublicDomain" />
        <dc:language>en</dc:language>
      </cc:Work>
      <cc:License
         rdf:about="http://web.resource.org/cc/PublicDomain">
        <cc:permits
           rdf:resource="http://web.resource.org/cc/Reproduction" />
        <cc:permits
           rdf:resource="http://web.resource.org/cc/Distribution" />
        <cc:permits
           rdf:resource="http://web.resource.org/cc/DerivativeWorks" />
      </cc:License>
    </rdf:RDF>
  </metadata>
  <defs
     id="defs8" />
  <sodipodi:namedview
     bordercolor="#666666"
     borderopacity="1.0"
     id="base"
     inkscape:current-layer="Layer_1"
     inkscape:cx="119.10739"
     inkscape:cy="130.101"
     inkscape:pageopacity="0.0"
     inkscape:pageshadow="2"
     inkscape:window-height="757"
     inkscape:window-width="1035"
     inkscape:window-x="110"
     inkscape:window-y="145"
     inkscape:zoom="1.3835405"
     pagecolor="#ffffff"
     showgrid="false"
     inkscape:window-maximized="0" />
  <g
     id="g3"
     transform="matrix(0.70566513,0,0,0.70566513,5.0000003,58.192523)">
    <path
       d="m 122.606,260.202 c 1.831,-10.378 11.34,-16.83 12.03,-27.3 -9.104,2.688 -15.61,5.485 -24.291,7.171 -9.317,1.81 -15.413,-2.667 -21.977,4.165 1.498,-12.848 22.363,-6.912 30.074,-12.262 -6.52,0.776 -7.622,-7.811 -13.88,-0.693 3.884,-11.647 18.359,-1.481 26.141,-4.166 6.071,-2.093 11.624,-9.286 15.961,-14.112 8.111,-9.021 17.935,-18.002 24.521,-28.226 -4.868,-0.433 -9.984,-0.284 -14.805,0.231 0.128,0.666 0.373,1.202 0.462,2.081 -5.458,-3.644 -5.689,0.737 -7.865,1.62 -5.444,2.209 -9.291,2.457 -15.268,2.545 -12.142,0.179 -12.58,2.105 -19.2,10.411 -3.631,4.555 -12.102,6.884 -8.328,12.957 -10.996,-5.117 7.27,-16.997 8.328,-23.368 -8.875,1.924 -41.727,5.548 -45.11,12.031 -0.389,-11.012 21.174,-12.342 29.148,-12.956 0,-0.154 0,-0.31 0,-0.463 -0.231,0.076 -0.309,0 -0.231,-0.232 -6.456,-0.821 -11.64,-6.858 -16.425,-1.619 1.49,-10.05 13.85,-3.411 18.044,-2.314 9.244,2.418 14.545,-2.804 24.521,-4.395 C 80.137,175.328 37.056,139.415 36.55,91.772 36.357,73.502 43.759,54.6 34.7,37.634 27.511,24.17 12.999,21.792 0,16.349 8.644,7.436 23.907,13.218 33.543,9.639 39.182,7.545 45.524,2.838 51.818,1.31 c 16.772,-4.071 31.96,1.751 45.11,11.799 9.051,6.916 16.22,16.759 26.141,22.442 12.684,7.266 28.892,9.455 42.565,14.807 14.303,5.6 26.793,13.759 41.409,18.509 14.507,4.715 29.22,9.514 42.796,16.658 14.904,7.843 29.535,8.264 46.035,11.105 8.45,1.455 25.436,2.479 29.611,10.412 -8.889,1.938 -18.899,3.082 -28.223,5.321 28.062,0 56.642,4.712 84.667,7.519 8.361,0.837 21.742,-1.903 26.372,5.437 1.387,2.199 0.41,6.727 -1.157,7.867 4.031,4.463 -0.497,6.112 -5.09,5.321 12.268,0.715 11.324,6.542 0.463,6.478 -20.495,-0.123 -42.244,-4.212 -62.921,-5.784 -13.054,-0.993 -26.084,-2.052 -39.097,-3.354 -7.064,-0.708 -15.225,3.913 -22.207,5.669 -13.827,3.478 -31.997,1.476 -42.102,10.642 -16.102,14.606 -33.5,23.001 -51.588,30.309 -8.065,3.259 -34.363,27.559 -35.856,37.942 -0.127,0.879 -1.238,2.379 -1.619,3.24 7.732,0.364 28.869,-11.199 28.685,3.237 -6.48,-7.833 -7.866,-0.856 -12.492,1.156 -3.407,1.483 -8.458,1.325 -12.029,2.314 -8.707,2.412 -10.649,5.353 -16.193,13.882 -3.698,5.688 -8.254,11.132 -12.492,15.964"
       id="path5"
       style="fill-rule:evenodd"
       inkscape:connector-curvature="0" />
  </g>
</svg>
