<?xml version="1.0" encoding="utf-8"?>
<!-- Generator: Adobe Illustrator 15.1.0, SVG Export Plug-In . SVG Version: 6.00 Build 0)  -->
<!DOCTYPE svg PUBLIC "-//W3C//DTD SVG 1.1//EN" "http://www.w3.org/Graphics/SVG/1.1/DTD/svg11.dtd">
<svg version="1.1"
	 id="svg3642" sodipodi:version="0.32" sodipodi:docname="MichowwTru_Gold_Finch_Silhouette.svg" inkscape:version="0.45pre1" xmlns:dc="http://purl.org/dc/elements/1.1/" xmlns:cc="http://web.resource.org/cc/" xmlns:rdf="http://www.w3.org/1999/02/22-rdf-syntax-ns#" xmlns:svg="http://www.w3.org/2000/svg" xmlns:sodipodi="http://sodipodi.sourceforge.net/DTD/sodipodi-0.dtd" xmlns:inkscape="http://www.inkscape.org/namespaces/inkscape" sodipodi:modified="true" sodipodi:docbase="C:\Documents and Settings\ryan\My Documents\My Pictures" inkscape:output_extension="org.inkscape.output.svg.inkscape"
	 xmlns="http://www.w3.org/2000/svg" xmlns:xlink="http://www.w3.org/1999/xlink" x="0px" y="0px" width="300px" height="300px"
	 viewBox="-13.661 36.872 300 300" enable-background="new -13.661 36.872 300 300" xml:space="preserve">
<sodipodi:namedview  inkscape:current-layer="layer1" inkscape:window-height="588" inkscape:window-x="27" inkscape:window-width="909" inkscape:window-y="35" inkscape:pageshadow="2" inkscape:pageopacity="0.0" bordercolor="#666666" borderopacity="1.0" inkscape:cx="375" id="base" pagecolor="#ffffff" inkscape:zoom="0.35" inkscape:cy="520" gridtolerance="10000" objecttolerance="10" guidetolerance="10" inkscape:document-units="px">
	</sodipodi:namedview>
<g id="layer1" transform="translate(-23.660981,-19.775798)" inkscape:label="Layer 1" inkscape:groupmode="layer">
	<path id="path1993" fill="#000100" stroke="#000000" stroke-width="0.1725" d="M95.305,61.655c-2.95-0.051-5.987,0.163-8.928,0.825
		c-7.482,1.684-14.805,6.883-14.314,9.316c0.376,1.865,0.416,1.577-0.97,1.577c-5.098,0-16.862,6.381-16.862,6.381
		s8.356-0.51,9.05,0.461c0.693,0.97,0.284,1.508,1.116,2.062c0.832,0.555,4.991,1.258,0,0.704c-4.991-0.555-8.613-0.194-8.613-0.194
		s7.192,2.319,11.767,6.478c0.826,0.751,4.265,2.116,4.512,3.785c0.41,2.773-0.763,1.509-0.558,4.294
		c0.306,4.169,1.04,3.806-0.485,6.162c-1.525,2.357,1.806,1.627-0.631,6.09c-1.688,3.095,0.469,4.647-1.771,6.332
		c0,0-1.132,0.986-1.431,1.286c-0.299,0.299,2.102-0.158,1.504,0.291c-0.599,0.448-5.59,7.166-7.982,15.09
		s-5.431,23.667-4.584,31.126c0.673,5.943,10.271,40.979,11.766,44.567c1.495,3.588,14.539,31.703,28.433,45.343
		c3.724,3.656,5.848,6.637,7.036,8.734c-5.868,1.896-5.653,3.469-5.653,3.469s-0.121,1.335-0.606,1.335
		c-0.484,0-1.456,0.485-2.304,0.85c-0.849,0.362-3.64-0.364-3.882,0.121c-0.243,0.484,0-0.729-1.092-0.971
		c-1.091-0.242-3.396-0.363-4.124,0.85c-0.728,1.212-0.486,1.818-1.82,2.062c-1.333,0.242-3.048-0.037-3.639,0.242
		c-2.304,1.092-3.882,1.092-4.853,1.092c-0.97,0-2.28,1.092-2.766,2.063c-0.479,0.956-0.598,2.384,0.098,3.469
		c-1.004,0.387-3.381,1.523-4.707,4.174c-1.698,3.395,1.092,7.156,1.092,7.156c2.91,4.002,6.527,2.851,8.224,2.427
		c0.016-0.004,0.033-0.021,0.048-0.024c0.177,0.545,0.536,1.119,1.286,1.188c1.083,0.101,1.549,3.494,6.26,4.901
		c1.784,0.532,4.211-0.501,5.701-1.312c2.005,1.638,4.354,2.432,5.144,2.742c1.204,0.474,2.563-1.024,4.706-0.509
		c1.262,0.303,1.116-1.338,1.723-1.359c2.486-0.086,2.754-1.208,2.475-1.722c-0.947-1.738,0.771-3.507,0-4.707
		c-1.214-1.888-0.684-3.18-1.456-4.295c-0.36-0.521-0.948-1.173-1.383-2.013c2.078-0.714,4.156-1.469,6.211-2.256
		c0.432,2.296,0.371,2.683,1.091,2.838c0.424,0.091,1.632,0.241,2.33,0.874c0.386,0.35,0.266,0.315,1.188,0.557
		c0.922,0.243,2.277,1.145,3.542,1.238c4.978,0.369,6.685-1.311,6.866-1.674c0.182-0.364,1.927,0.12,4.148-1.359
		c1.824-1.215,1.771-2.158,2.692-2.329c1.806-0.335,1.468-3.062,1.383-3.614c1.035-0.028,1.432-0.243,1.432-0.243
		s-3.952-1.704-1.722-1.019c2.229,0.686,12.538,4.612,15.453,4.27c2.916-0.343-0.346,0.537-4.634-2.378
		c-4.287-2.915,6.009,1.355,9.438,1.698c3.43,0.343,4.099,1.027-0.703-2.23c-4.802-3.26,6.353,2.242,9.268,3.614
		c2.915,1.372,1.892,0.85-0.68-1.723c-2.572-2.572,1.366-2.064,5.653,0.679c4.287,2.744,7.205,3.615,7.205,3.615
		s-9.264-6.695-4.634-4.294c4.63,2.4,16.115,9.101,20.573,11.33c4.459,2.229,5.844,5.98,16.134,12.154
		c10.289,6.174,11.136,6.526,11.136,6.526s6.688,7.705,9.947,11.136c3.258,3.43,13.222,15.575,13.222,15.575
		s8.493,10.749,14.678,13.659c6.184,2.909,7.159,0.606,10.917-0.606c3.759-1.214,0.606-6.066-0.242-7.643s0.484-2.306-0.485-3.76
		c-0.97-1.456-8.563-9.899-8.563-9.899h0.145c0,0-6.418-8.532-7.763-10.626c-1.346-2.093-5.56-6.914-5.944-9.341
		c-0.543-3.423-0.937-4.014-1.432-5.191c-0.791-1.882-1.685-1.104-3.057-4.294c-1.09-2.535-5.611-4.999-5.847-6.356
		c-0.478-2.758-12.189-15.709-14.969-18.317c-2.068-1.94-1.452-1.68-2.499-4.221c-1.047-2.542-4.718-4.096-4.173-4.73
		c1.399-1.635-0.841-2.681,1.044-4.198c0.598-1.345-1.688-5.849-3.931-9.437c-2.243-3.589-6.438-8.974-7.036-10.021
		c-0.598-1.046-4.787-5.067-4.488-6.113c0.3-1.047-2.253-4.345-2.402-6.138c-0.149-1.795-2.231-4.494-2.231-6.139
		s-3.725-10.817-4.9-12.615c-0.524-0.802-4.103-3.913-3.931-5.555c0.439-4.201-8.076-18.225-11.888-25.887
		c-3.665-7.367-1.112-2.027-11.717-27.245c-1.432-3.404-1.646-5.396-2.693-7.788s-1.201-3.281-1.649-5.823
		c-0.448-2.542-1.649-1.501-1.649-3.445s0-2.246-0.898-4.488c-0.896-2.243-0.283-3.583-1.479-4.779
		c-1.196-1.196,0.437-4.784-0.46-5.532c-0.898-0.748-1.941-4.925-1.941-4.925s1.337-0.895,0.291-1.94
		c-1.047-1.047-0.898-4.634-0.898-4.634s1.957-0.013,1.359-0.461c-0.523-0.393-2.197-2.964-2.305-3.3
		c0.01,0.005,0.027,0.004,0.049,0.025c0.447,0.448,2.304-0.946,2.304-0.946c-2.647-1.868-3.521-13.165-12.882-24.31
		c-4.48-5.332-16.365-13.041-19.895-14.217C112.262,64.46,104.155,61.807,95.305,61.655z M123.521,274.156
		c0.5,0.523,1.016,1.042,1.552,1.528c-0.269,0.771-0.87,2.569-0.776,3.372c0.121,1.031,1.348,1.237,1.771,1.844
		c0.425,0.606-0.076,0.716-0.703,1.383c-0.807,0.857-3.943,0.546-5.338,0.485c-1.395-0.062-3.408-1.391-4.513-2.572
		c-1.031-1.103,0.108-0.334-0.023-1.965c2.276-1.029,4.481-2.119,6.55-3.251c0.489,0.319,0.869,0.517,1.067,0.583
		c0.512,0.171,0.229-0.352-0.267-1.044C123.067,274.392,123.298,274.284,123.521,274.156z M115.248,280.754
		c0.033,0.017,0.169,0.166,0.485,0.533c2.127,2.479,4.647,2.66,4.537,2.499c0,0-0.462,0.629,0.534,1.359
		c0.043,0.086,0.327,0.198-0.461,0.267c-4.235,0.364-5.806-0.319-5.604-0.971c0.202-0.652,0.045-0.571-0.023-1.164
		c-0.067-0.576,0.186-0.566,0.582-0.873C115.936,281.909,115.146,280.705,115.248,280.754z M96.324,285.413
		c0.834,1.039,1.656,1.302,2.014,1.479c0.514,0.258,0.857,3.333,0,3.591c-0.26,0.078-1.035,0.104-1.893,0.704
		c-0.857,0.6-0.927,1.716-0.413,2.401c0.958,1.276-0.62,0.686-0.533,1.285c0.086,0.601-2.743-0.519-5.143-2.062
		c-1.686-1.084-2.411-3.74-2.646-4.853C90.472,287.187,93.372,286.342,96.324,285.413z M87.566,288.008
		c-0.109,1.271-0.124,4.57,2.548,7.036c0.046,0.043,0.098,0.078,0.145,0.121c-5.599,1.443-7.584-1.558-7.23-2.28
		c0.224-0.455-1.2-0.898-0.655-1.869c0.546-0.97,1.213-0.182,1.213-1.213c0-0.266,0.011-0.489,0.024-0.728
		C84.895,288.734,86.205,288.389,87.566,288.008z"/>
</g>
</svg>
