<?xml version="1.0" encoding="UTF-8" standalone="no"?>
<!-- Generator: Adobe Illustrator 15.1.0, SVG Export Plug-In . SVG Version: 6.00 Build 0)  -->

<svg
   xmlns:dc="http://purl.org/dc/elements/1.1/"
   xmlns:cc="http://creativecommons.org/ns#"
   xmlns:rdf="http://www.w3.org/1999/02/22-rdf-syntax-ns#"
   xmlns:svg="http://www.w3.org/2000/svg"
   xmlns="http://www.w3.org/2000/svg"
   xmlns:sodipodi="http://sodipodi.sourceforge.net/DTD/sodipodi-0.dtd"
   xmlns:inkscape="http://www.inkscape.org/namespaces/inkscape"
   version="1.1"
   id="Ñëîé_1"
   x="0px"
   y="0px"
   width="100"
   height="100"
   viewBox="0 0 99.999999 99.999996"
   xml:space="preserve"
   inkscape:version="0.48.2 r9819"
   sodipodi:docname="paint_can.svg"><metadata
   id="metadata57"><rdf:RDF><cc:Work
       rdf:about=""><dc:format>image/svg+xml</dc:format><dc:type
         rdf:resource="http://purl.org/dc/dcmitype/StillImage" /></cc:Work></rdf:RDF></metadata><defs
   id="defs55" /><sodipodi:namedview
   pagecolor="#ffffff"
   bordercolor="#666666"
   borderopacity="1"
   objecttolerance="10"
   gridtolerance="10"
   guidetolerance="10"
   inkscape:pageopacity="0"
   inkscape:pageshadow="2"
   inkscape:window-width="1680"
   inkscape:window-height="988"
   id="namedview53"
   showgrid="false"
   inkscape:zoom="4.6379223"
   inkscape:cx="95.537212"
   inkscape:cy="40.643199"
   inkscape:window-x="-8"
   inkscape:window-y="-8"
   inkscape:window-maximized="1"
   inkscape:current-layer="g5"
   fit-margin-top="0"
   fit-margin-left="0"
   fit-margin-right="0"
   fit-margin-bottom="0" />
<g
   id="g3"
   transform="translate(-14.652,-15.111048)">
	<g
   id="g5"
   transform="matrix(0.58932633,0,0,0.58932633,6.0171906,7.1199412)">
		<path
   d="m 173.336,164.801 c 0,0 -9.845,18.444 -78.1,18.444 -59.724,0 -70.881,-18.444 -70.881,-18.444 V 46.733 h 148.981 v 118.068 z"
   id="path7"
   inkscape:connector-curvature="0" />
		<path
   d="m 168.163,164.165 c 0,0 -9.326,16.157 -73.99,16.157 -56.58,0 -67.15,-16.157 -67.15,-16.157 V 60.734 h 141.141 v 103.431 z"
   id="path9"
   inkscape:connector-curvature="0"
   style="fill:#929292" />
		<path
   d="m 164.845,159.081 c 0,0 -8.661,15.005 -68.709,15.005 -52.542,0 -62.358,-15.005 -62.358,-15.005 V 63.032 h 131.067 v 96.049 z"
   id="path11"
   inkscape:connector-curvature="0"
   style="fill:#cccccc" />
		<path
   d="m 157.954,151.694 c 0,0 -7.924,13.728 -62.861,13.728 -48.07,0 -57.05,-13.728 -57.05,-13.728 V 63.821 h 119.912 v 87.873 z"
   id="path13"
   inkscape:connector-curvature="0"
   style="fill:#dfdfdf" />
		<polygon
   points="68.655,66.753 68.655,163.71 49.623,158.636 49.623,66.753 "
   id="polygon15"
   style="fill:#ffffff" />
		<polygon
   points="130.133,65.878 130.133,162.835 149.166,157.761 149.166,65.878 "
   id="polygon17"
   style="fill:#ebebeb" />
		<rect
   x="87.360001"
   y="76.644997"
   width="12.252"
   height="88.558998"
   id="rect19"
   style="fill:#f0f0f0" />
		<polygon
   points="121.199,76.645 122.367,164.036 108.947,165.204 108.947,76.645 "
   id="polygon21"
   style="fill:#ebebeb" />
		<path
   d="m 184.047,74.498 c -0.777,-11.555 -4.865,-21.565 -8.041,-27.77 -3.794,-16.438 -36.862,-29.29 -77.099,-29.29 -42.499,0 -76.999,14.337 -77.454,32.096 -3.026,8.008 -6.801,20.914 -6.801,35.473 0,24.297 4.707,43.995 10.514,43.995 4.522,0 8.377,-11.948 9.861,-28.71 1.409,1.468 2.997,2.298 4.679,2.298 4.512,0 8.36,-5.95 9.851,-14.303 1.104,0.412 2.294,0.639 3.534,0.639 0.999,0 1.963,-0.149 2.878,-0.421 -10e-4,0.095 -0.007,0.19 -0.007,0.286 0,12.148 4.707,21.998 10.514,21.998 3.789,0 7.109,-4.196 8.959,-10.488 0.034,0.001 0.066,0.006 0.1,0.006 2.494,0 4.671,-3.368 5.837,-8.37 0.952,4.949 3.096,8.52 5.643,8.991 -0.12,1.408 -0.191,2.839 -0.191,4.294 0,19.057 4.99,34.507 11.145,34.507 2.959,0 5.646,-3.577 7.642,-9.402 1.329,1.453 2.745,2.172 4.049,1.882 3.221,-0.718 4.543,-7.319 2.955,-14.743 -0.617,-2.885 -2.07,-5.359 -3.616,-7.309 0.075,-1.612 0.116,-3.258 0.116,-4.935 0,-0.947 -0.035,-1.883 -0.087,-2.813 0.858,-0.725 1.638,-1.866 2.301,-3.329 0.854,8.896 3.415,15.354 6.44,15.354 2.464,0 4.619,-4.285 5.795,-10.678 2.384,4.061 5.369,6.44 8.46,6.223 3.911,-0.275 7.098,-4.641 8.812,-11.133 1.285,13.934 3.984,24.5 6.375,24.332 2.505,-0.177 3.766,-12.086 2.953,-27.047 0.119,0.017 0.238,0.026 0.356,0.018 1.761,-0.124 3.107,-3.063 3.65,-7.33 1.012,2.452 2.228,3.903 3.449,3.818 1.526,-0.107 2.724,-2.596 3.346,-6.375 1.239,5.838 3,9.66 4.707,9.541 0.698,-0.048 1.316,-0.757 1.833,-1.978 2.36,10.08 5.864,16.688 9.343,16.444 5.281,-0.37 8.505,-16.386 7.199,-35.771 z m -43.081,3.172 c -0.049,-0.162 -0.098,-0.324 -0.15,-0.485 0.072,-0.019 0.143,-0.039 0.214,-0.059 -0.022,0.179 -0.043,0.362 -0.064,0.544 z"
   id="path23"
   inkscape:connector-curvature="0" />
		<path
   d="m 182.831,74.312 c -0.763,-11.1 -4.771,-20.717 -7.885,-26.677 -3.721,-15.792 -36.149,-28.138 -75.608,-28.138 -41.677,0 -75.51,13.773 -75.957,30.833 -2.968,7.693 -6.669,20.091 -6.669,34.078 0,23.342 4.616,42.264 10.311,42.264 4.435,0 8.215,-11.478 9.67,-27.581 1.382,1.411 2.939,2.208 4.588,2.208 4.425,0 8.198,-5.716 9.66,-13.74 1.083,0.396 2.25,0.614 3.466,0.614 0.979,0 1.926,-0.143 2.823,-0.404 0,0.092 -0.007,0.182 -0.007,0.274 0,11.671 4.616,21.132 10.311,21.132 3.716,0 6.972,-4.031 8.787,-10.075 0.033,0.001 0.065,0.006 0.098,0.006 2.446,0 4.581,-3.235 5.724,-8.041 0.934,4.754 3.036,8.185 5.534,8.638 -0.118,1.352 -0.188,2.727 -0.188,4.125 0,18.307 4.894,33.149 10.929,33.149 2.902,0 5.537,-3.436 7.494,-9.032 1.303,1.396 2.691,2.087 3.971,1.807 3.159,-0.689 4.456,-7.031 2.897,-14.163 -0.605,-2.771 -2.03,-5.148 -3.546,-7.021 0.073,-1.549 0.113,-3.13 0.113,-4.74 0,-0.911 -0.034,-1.81 -0.085,-2.702 0.841,-0.697 1.605,-1.793 2.256,-3.198 0.837,8.545 3.349,14.75 6.316,14.75 2.417,0 4.529,-4.116 5.684,-10.258 2.338,3.901 5.265,6.187 8.296,5.978 3.835,-0.264 6.96,-4.459 8.642,-10.695 1.26,13.386 3.907,23.536 6.251,23.375 2.457,-0.17 3.693,-11.611 2.896,-25.983 0.116,0.017 0.232,0.025 0.349,0.017 1.727,-0.119 3.047,-2.943 3.579,-7.042 0.993,2.356 2.186,3.75 3.382,3.667 1.497,-0.103 2.671,-2.493 3.281,-6.124 1.216,5.609 2.942,9.281 4.616,9.166 0.685,-0.047 1.29,-0.728 1.798,-1.9 2.314,9.684 5.75,16.032 9.163,15.798 5.178,-0.356 8.339,-15.742 7.06,-34.365 z m -42.248,3.048 c -0.048,-0.156 -0.096,-0.311 -0.146,-0.466 0.07,-0.019 0.139,-0.038 0.209,-0.057 -0.022,0.172 -0.042,0.349 -0.063,0.523 z"
   id="path25"
   inkscape:connector-curvature="0"
   style="fill:#ed1c24" />
		<ellipse
   cx="100.43"
   cy="51.144001"
   rx="74.515999"
   ry="30.361"
   id="ellipse27"
   d="m 174.946,51.144001 c 0,16.767917 -33.36195,30.361 -74.516,30.361 -41.154049,0 -74.515999,-13.593083 -74.515999,-30.361 0,-16.767917 33.36195,-30.361 74.515999,-30.361 41.15405,0 74.516,13.593083 74.516,30.361 z"
   sodipodi:cx="100.43"
   sodipodi:cy="51.144001"
   sodipodi:rx="74.515999"
   sodipodi:ry="30.361"
   style="fill:#ffffff;fill-opacity:0.34509805" />
		<ellipse
   cx="99.666"
   cy="45.092999"
   rx="66.373001"
   ry="22.937"
   id="ellipse29"
   d="m 166.039,45.092999 c 0,12.667755 -29.7162,22.937 -66.373,22.937 -36.656796,0 -66.373001,-10.269245 -66.373001,-22.937 0,-12.667756 29.716205,-22.937001 66.373001,-22.937001 36.6568,0 66.373,10.269245 66.373,22.937001 z"
   sodipodi:cx="99.666"
   sodipodi:cy="45.092999"
   sodipodi:rx="66.373001"
   sodipodi:ry="22.937" />
		<ellipse
   cx="98.966003"
   cy="45.092999"
   rx="59.917999"
   ry="18.379999"
   id="ellipse31"
   d="m 158.884,45.092999 c 0,10.150993 -26.8262,18.379999 -59.917997,18.379999 -33.091797,0 -59.917999,-8.229006 -59.917999,-18.379999 0,-10.150994 26.826202,-18.38 59.917999,-18.38 33.091797,0 59.917997,8.229006 59.917997,18.38 z"
   sodipodi:cx="98.966003"
   sodipodi:cy="45.092999"
   sodipodi:rx="59.917999"
   sodipodi:ry="18.379999"
   style="fill:#ffffff;fill-opacity:0.53439152" />
		<path
   d="m 156.636,50.097 c 0,0 -16.715,15.102 -58.409,15.102 -43.246,0 -56.931,-15.102 -56.931,-15.102 0,0 13.539,-15.101 56.931,-15.101 53.309,0 58.409,15.101 58.409,15.101 z"
   id="path33"
   inkscape:connector-curvature="0"
   style="fill:#ed1c24" />
		<path
   d="m 32.609,100.855 c 0,13.05 -2.468,23.629 -5.514,23.629 -3.046,0 -5.514,-10.579 -5.514,-23.629 0,-13.05 5.514,-23.629 5.514,-23.629 0,0 5.514,10.579 5.514,23.629 z"
   id="path35"
   inkscape:connector-curvature="0"
   style="fill:#ffffff;fill-opacity:0.34391533" />
		<path
   d="m 180.508,87.987 c 0,9.822 -2.468,17.784 -5.514,17.784 -3.046,0 -5.514,-7.962 -5.514,-17.784 0,-9.822 5.514,-17.784 5.514,-17.784 0,0 5.514,7.963 5.514,17.784 z"
   id="path37"
   inkscape:connector-curvature="0"
   style="fill:#ffffff;fill-opacity:0.34509805" />
		<path
   d="m 147.85,105.546 c 0.684,7.212 0.01,13.175 -1.507,13.319 -1.516,0.144 -3.299,-5.586 -3.982,-12.798 -0.684,-7.212 1.507,-13.319 1.507,-13.319 0,0 3.298,5.585 3.982,12.798 z"
   id="path39"
   inkscape:connector-curvature="0"
   style="fill:#ffffff;fill-opacity:0.34509805" />
		<path
   d="m 67.699,97.653 c 0,4.832 -1.214,8.75 -2.713,8.75 -1.499,0 -2.713,-3.918 -2.713,-8.75 0,-4.833 2.713,-8.751 2.713,-8.751 0,0 2.713,3.918 2.713,8.751 z"
   id="path41"
   inkscape:connector-curvature="0"
   style="fill:#ffffff;fill-opacity:0.34509805" />
		<path
   d="m 99.711,128.781 c 0,3.823 -1.214,6.922 -2.713,6.922 -1.499,0 -2.713,-3.099 -2.713,-6.922 0,-3.823 2.713,-6.922 2.713,-6.922 0,0 2.713,3.099 2.713,6.922 z"
   id="path43"
   inkscape:connector-curvature="0"
   style="fill:#ffffff;fill-opacity:0.34509805" />
		<path
   d="m 111.28,121.421 c 0,3.823 -1.214,6.922 -2.713,6.922 -1.499,0 -2.713,-3.099 -2.713,-6.922 0,-3.823 2.713,-6.922 2.713,-6.922 0,0 2.713,3.1 2.713,6.922 z"
   id="path45"
   inkscape:connector-curvature="0"
   style="fill:#ffffff;fill-opacity:0.34509805" />
		<path
   d="m 120.482,101.731 c 0,4.832 -1.214,8.75 -2.713,8.75 -1.499,0 -2.713,-3.918 -2.713,-8.75 0,-4.833 2.713,-8.751 2.713,-8.751 0,0 2.713,3.918 2.713,8.751 z"
   id="path47"
   inkscape:connector-curvature="0"
   style="fill:#ffffff;fill-opacity:0.34509805" />
		<path
   d="m 134.121,100.199 c 0,3.021 -1.214,5.469 -2.713,5.469 -1.499,0 -2.713,-2.449 -2.713,-5.469 0,-3.02 2.713,-5.469 2.713,-5.469 0,0 2.713,2.449 2.713,5.469 z"
   id="path49"
   inkscape:connector-curvature="0"
   style="fill:#ffffff;fill-opacity:0.34509805" />
	</g>
	<path
   d="m 95.750375,36.468394 c 0,0.70483 -1.17276,1.36547 -3.218311,1.93299 -1.022482,0.28346 -2.263603,0.54395 -3.105161,-1.63951 -2.909504,-5.328686 -21.767946,-9.096249 -37.679757,-6.27043 -8.250569,1.69549 -12.375853,4.52072 -10.607874,7.53513 1.767979,2.44865 7.661242,4.14414 15.322484,4.52072 9.429222,0.37658 18.269117,-1.88349 17.67979,-4.89789 -0.589326,-1.13033 -2.946631,-2.26066 -6.482589,-2.82582 -3.535958,-0.56517 -10.607874,0 -9.429222,1.31891 0.589327,0.56458 4.714611,-0.37717 7.071916,0.188 2.946632,0.94174 2.357306,2.82523 -1.178652,3.57897 -4.714611,0.94175 -11.786527,0.18859 -14.143832,-1.5069 -2.357306,-1.88349 0,-4.14415 5.893263,-5.27447 4.714611,-0.75316 10.018548,-0.75316 14.733158,0 7.661243,1.5069 10.607874,4.7093 6.48259,7.34654 -5.893263,3.57957 -20.626422,4.52072 -30.644969,2.07207 -14.143832,-3.39098 -10.018548,-10.36095 4.71461,-12.809597 13.554506,-2.072072 30.055643,0 37.688008,4.021567 1.422045,0.23101 2.663166,0.49149 3.685647,0.77496 2.046141,0.5687 3.218901,1.22992 3.218901,1.93476 z"
   id="path51"
   inkscape:connector-curvature="0"
   style="fill:#ffffff;fill-opacity:0.54497355" />
</g>
</svg>