<?xml version="1.0" encoding="utf-8"?>
<!-- Generator: Adobe Illustrator 15.1.0, SVG Export Plug-In . SVG Version: 6.00 Build 0)  -->
<!DOCTYPE svg PUBLIC "-//W3C//DTD SVG 1.1//EN" "http://www.w3.org/Graphics/SVG/1.1/DTD/svg11.dtd">
<svg version="1.1"
	 id="svg2618" xmlns:cc="http://creativecommons.org/ns#" xmlns:rdf="http://www.w3.org/1999/02/22-rdf-syntax-ns#" xmlns:svg="http://www.w3.org/2000/svg" xmlns:sodipodi="http://sodipodi.sourceforge.net/DTD/sodipodi-0.dtd" xmlns:dc="http://purl.org/dc/elements/1.1/" xmlns:inkscape="http://www.inkscape.org/namespaces/inkscape" sodipodi:version="0.32" sodipodi:docname="snowflakes.svg" inkscape:version="0.48.2 r9819" inkscape:output_extension="org.inkscape.output.svg.inkscape"
	 xmlns="http://www.w3.org/2000/svg" xmlns:xlink="http://www.w3.org/1999/xlink" x="0px" y="0px" width="300px" height="300px"
	 viewBox="0 0 300 300" enable-background="new 0 0 300 300" xml:space="preserve">
<sodipodi:namedview  inkscape:current-layer="svg2618" inkscape:window-y="107" inkscape:window-x="479" inkscape:window-height="630" inkscape:window-width="742" inkscape:pageshadow="2" inkscape:pageopacity="0" id="namedview4" inkscape:window-maximized="0" inkscape:cy="150" borderopacity="1" showgrid="false" bordercolor="#666666" guidetolerance="10" inkscape:cx="150" pagecolor="#ffffff" gridtolerance="10" inkscape:zoom="0.78666667" objecttolerance="10">
	</sodipodi:namedview>
<path id="path2629" inkscape:connector-curvature="0" d="M211.082,290.835l-0.183-4.175l-3.818,3.604l-3.817,3.605l-2.02-1.931
	l-2.021-1.93l5.994-6.016l5.992-6.016v-4.471c0-2.461-0.177-4.474-0.392-4.474c-0.214,0-4.337,3.738-9.162,8.308l-8.771,8.307
	l-1.813-1.47l-1.813-1.47l10.977-11.018l10.977-11.019v-5.146c0-2.918-0.25-5.058-0.578-4.939c-0.316,0.111-3.385,2.779-6.815,5.925
	c-3.433,3.146-6.46,5.72-6.728,5.72c-0.27,0-1.262-0.807-2.205-1.791l-1.717-1.793l7.367-7.154c4.053-3.936,8.112-7.74,9.021-8.455
	c1.633-1.285,1.652-1.393,1.652-8.984c0-4.271-0.254-7.686-0.57-7.686c-0.443,0-12.053,6.414-12.928,7.145
	c-0.113,0.093-1.695,5.371-3.518,11.729c-1.823,6.355-3.441,11.686-3.6,11.843c-0.155,0.155-1.455-0.03-2.885-0.416
	c-3.055-0.822-3.051-0.333-0.084-10.985c2.124-7.625,2.217-8.184,1.358-8.184c-1.218,0-8.659,5.104-8.997,6.172
	c-0.195,0.613-1.992,7.291-3.992,14.837c-2,7.548-3.779,13.864-3.954,14.038c-0.726,0.727-4.114-0.556-4.102-1.55
	c0.008-0.567,1.237-5.896,2.731-11.841c1.494-5.943,2.579-11.029,2.411-11.303c-0.263-0.425-6.362,2.596-7.817,3.87
	c-0.272,0.238-1.438,3.57-2.592,7.402c-2.854,9.497-2.414,8.738-4.615,7.972c-1.035-0.36-2.049-0.925-2.252-1.252
	c-0.201-0.328-0.012-2.383,0.422-4.568c0.436-2.185,0.628-4.137,0.428-4.336c-0.199-0.199-1.835,0.478-3.633,1.504l-3.269,1.867
	l-1.117-1.837c-0.614-1.011-1.117-2.104-1.117-2.432c0-0.328,1.67-1.438,3.708-2.468c2.041-1.029,3.712-2.125,3.712-2.433
	c0-0.31-0.904-0.735-2.011-0.948c-1.104-0.214-3.351-0.686-4.988-1.049l-2.979-0.661l0.422-2.556
	c0.232-1.406,0.485-2.627,0.562-2.715c0.076-0.086,3.854,0.939,8.396,2.281l8.256,2.441l3.715-2.592
	c2.043-1.426,3.695-2.87,3.673-3.211c-0.045-0.67-0.923-0.934-14.581-4.375c-5.916-1.492-9.12-2.582-9.12-3.106
	c0-0.443,0.325-1.521,0.721-2.392c0.557-1.222,1.017-1.49,2.01-1.174c0.708,0.225,7.508,2.016,15.11,3.979l13.821,3.567l4.246-2.578
	c2.335-1.418,4.255-2.867,4.264-3.224c0.011-0.354-1.303-0.987-2.918-1.405c-4.082-1.06-14.655-3.984-14.819-4.101
	c-0.277-0.196,1.285-4.671,1.629-4.665c0.199,0.001,5.617,1.254,12.041,2.781c6.426,1.529,12.065,2.779,12.535,2.779
	c1.25,0,13.194-7.02,13.004-7.643c-0.09-0.291-3.215-2.146-6.942-4.125l-6.78-3.594l-11.438,3.338
	c-6.293,1.836-11.771,3.221-12.174,3.076c-0.664-0.234-2.264-4.648-1.84-5.072c0.155-0.156,3.436-1.121,14.477-4.262
	c1.785-0.508,3.246-1.182,3.246-1.498c0-0.314-1.981-1.73-4.404-3.146l-4.404-2.572l-13.162,3.501
	c-7.242,1.926-14.011,3.741-15.043,4.039c-1.772,0.509-1.918,0.415-2.6-1.647c-0.566-1.717-0.554-2.287,0.059-2.668
	c0.429-0.264,5.122-1.504,10.428-2.756c11.884-2.801,12.414-2.958,12.514-3.727c0.104-0.791-6.214-4.582-7.691-4.613
	c-0.613-0.013-4.475,0.824-8.576,1.858c-4.103,1.037-7.54,1.802-7.638,1.701c-0.099-0.101-0.37-1.202-0.602-2.446l-0.423-2.266
	l4.387-1.412c2.413-0.777,4.387-1.706,4.387-2.064c-0.001-0.356-1.392-1.433-3.092-2.387c-1.7-0.955-3.091-2.075-3.091-2.49
	c0-0.604,1.038-2.477,2.237-4.039c0.096-0.125,1.61,0.657,3.364,1.736c1.756,1.08,3.344,1.811,3.531,1.621
	c0.188-0.188-0.01-2.309-0.439-4.713c-0.429-2.404-0.683-4.451-0.563-4.55c0.12-0.098,1.135-0.487,2.256-0.864
	c1.557-0.525,2.102-0.512,2.307,0.063c0.433,1.213,4.623,14.748,4.623,14.934c0,0.421,7.385,5.295,8.022,5.295
	c0.394,0,0.58-0.486,0.413-1.082c-0.167-0.595-1.495-6.178-2.951-12.406c-2.836-12.133-2.823-12.448,0.52-12.473
	c1.062-0.007,1.506,0.51,1.984,2.311c1.268,4.753,6.99,25.852,7.266,26.78c0.325,1.097,8.73,6.481,9.271,5.94
	c0.193-0.194-0.697-4.275-1.979-9.068c-1.379-5.154-2.104-8.938-1.773-9.258c0.309-0.299,1.563-0.727,2.792-0.951
	c1.844-0.338,2.289-0.213,2.558,0.725c0.178,0.625,1.643,5.866,3.254,11.647c1.61,5.78,3.152,10.943,3.428,11.474
	c0.531,1.021,11.591,7.386,12.834,7.386c0.531,0,0.736-2.215,0.736-7.953v-7.954l-3.246-2.98c-1.785-1.642-5.842-5.469-9.013-8.506
	l-5.767-5.521l1.707-1.783c0.939-0.98,2.011-1.783,2.378-1.783c0.368,0,3.44,2.783,6.829,6.185c3.388,3.4,6.373,6.185,6.636,6.185
	c0.262,0,0.476-2.438,0.476-5.418v-5.418l-11.113-11.1l-11.113-11.103l1.327-1.413c0.731-0.777,1.546-1.414,1.811-1.414
	s4.46,3.754,9.321,8.344s9.05,8.347,9.305,8.349c0.256,0.002,0.465-2.034,0.465-4.522v-4.527l-6.025-5.978l-6.025-5.976l1.979-1.98
	l1.979-1.979l3.688,3.208c2.027,1.765,3.836,3.207,4.017,3.207s0.411-1.738,0.513-3.865l0.185-3.864h2.164
	c2.345,0,2.222-0.306,2.42,6.029c0.028,0.936,0.276,1.699,0.549,1.699c0.271,0,2.056-1.392,3.964-3.092
	c1.907-1.7,3.691-3.092,3.965-3.092c0.272,0,1.115,0.766,1.873,1.7l1.377,1.7l-5.91,5.961l-5.912,5.96l0.02,4.444
	c0.01,2.443,0.168,4.594,0.352,4.777c0.184,0.183,4.408-3.477,9.39-8.13c8.981-8.392,9.067-8.451,10.39-7.343
	c0.732,0.615,1.442,1.186,1.576,1.267c0.135,0.081-4.665,5.27-10.666,11.528l-10.91,11.383v5.327c0,2.93,0.204,5.327,0.453,5.327
	s3.305-2.842,6.79-6.316l6.338-6.315l2.093,2.028l2.092,2.027l-8.729,8.211l-8.729,8.21l-0.174,7.826
	c-0.095,4.304,0.016,7.825,0.244,7.825c0.372,0,13.168-6.677,13.778-7.189c0.135-0.113,1.574-5.385,3.198-11.713
	c1.625-6.329,3.111-11.665,3.307-11.859c0.484-0.486,5.307,1.01,5.307,1.647c0,0.282-0.974,3.728-2.164,7.653
	c-2.105,6.949-2.533,9.095-1.813,9.095c0.193,0,2.416-0.858,4.938-1.907l4.584-1.91l1.215-4.119
	c1.08-3.654,3.195-11.508,6.084-22.582l0.945-3.622l2.147,0.349c1.183,0.191,2.239,0.439,2.351,0.551
	c0.111,0.11-1.313,5.326-3.168,11.591c-1.854,6.265-3.371,11.732-3.371,12.152c0,0.718,7.569-2.25,8.865-3.476
	c0.285-0.271,1.416-3.931,2.514-8.135c1.735-6.655,2.148-7.622,3.191-7.473c4.546,0.652,4.688,0.979,2.795,6.48
	c-0.652,1.895-1.027,3.604-0.833,3.799c0.193,0.193,1.856-0.509,3.695-1.561c1.839-1.053,3.431-1.813,3.537-1.692
	c0.106,0.122,0.673,1.162,1.258,2.313c1.183,2.322,1.396,2.007-3.226,4.79c-1.445,0.871-2.502,1.788-2.348,2.039
	c0.154,0.25,2.241,0.806,4.637,1.233c2.395,0.429,4.506,1.024,4.691,1.326c0.188,0.301,0.03,1.694-0.348,3.098
	c-0.592,2.197-0.873,2.499-2.037,2.188c-0.742-0.199-4.324-1.125-7.958-2.056l-6.606-1.692l-4.369,2.112
	c-2.401,1.162-4.367,2.417-4.367,2.788s5.146,1.899,11.436,3.397c6.29,1.497,11.751,2.917,12.137,3.155
	c0.479,0.295,0.527,1.104,0.157,2.553l-0.542,2.12l-14.924-3.987l-14.926-3.987l-4.707,2.6c-2.59,1.429-4.707,2.849-4.707,3.155
	c0,0.543,3.828,1.813,12.676,4.212c4.266,1.155,4.327,1.202,4.229,3.173c-0.054,1.102-0.332,2.232-0.617,2.516
	c-0.286,0.284-5.808-0.834-12.27-2.486l-11.748-3.004l-4.019,2.215c-6.025,3.318-8.657,5.05-8.657,5.689
	c0,0.621,11.816,7.447,12.891,7.447c0.355,0,5.736-1.242,11.957-2.761c6.219-1.517,11.517-2.552,11.77-2.299
	s0.628,1.296,0.832,2.317l0.371,1.858l-8.393,2.451c-4.615,1.349-8.306,2.729-8.197,3.069c0.106,0.34,2.065,1.771,4.354,3.185
	l4.159,2.565l3.524-0.852c1.938-0.468,8.729-2.221,15.09-3.896l11.564-3.048l0.709,2.146c0.391,1.18,0.59,2.264,0.444,2.408
	c-0.265,0.266-23.267,5.825-24.13,5.833c-0.256,0.003-0.459,0.353-0.454,0.777c0.005,0.424,1.979,1.675,4.386,2.776l4.377,2.004
	l7.738-1.85c4.256-1.018,7.836-1.85,7.957-1.85c0.396,0,1.591,5.064,1.27,5.387c-0.174,0.174-2.205,0.711-4.514,1.194
	c-2.311,0.483-4.432,1.112-4.714,1.396c-0.283,0.285,1.032,1.391,2.927,2.459c1.895,1.067,3.441,2.094,3.441,2.277
	c0,0.854-1.953,3.982-2.487,3.982c-0.33,0-1.97-0.984-3.644-2.188s-3.19-1.947-3.371-1.656c-0.18,0.293,0.33,2.599,1.134,5.125
	l1.46,4.593l-1.337,0.709c-0.736,0.392-2.023,0.81-2.86,0.929c-1.432,0.205-1.604-0.098-2.896-5.125
	c-2.918-11.359-2.27-10.195-7.03-12.596c-2.358-1.188-4.435-2.158-4.612-2.158c-0.695,0-0.217,2.061,2.68,11.521
	c4.156,13.58,4.053,13,2.4,13.443c-3.263,0.873-3.143,1.109-7.24-14.299c-2.146-8.076-4.213-15.01-4.59-15.404
	c-1.063-1.115-8.953-5.288-9.561-5.055c-0.295,0.115,0.525,3.966,1.826,8.557c1.299,4.592,2.373,8.686,2.387,9.096
	c0.025,0.796-4.688,2.476-5.281,1.882c-0.191-0.192-1.587-5.177-3.1-11.074c-1.51-5.897-2.889-11.173-3.061-11.722
	c-0.266-0.846-12.029-9.205-12.953-9.205c-0.174,0-0.313,3.688-0.313,8.193l0.003,8.191l8.324,8.35l8.326,8.348l-2.179,2.164
	l-2.179,2.164l-5.686-6.051c-3.127-3.326-5.896-6.039-6.149-6.027s-0.464,2.418-0.464,5.348v5.326l10.289,10.762
	c10.063,10.523,10.265,10.787,9.18,11.986c-0.609,0.675-1.383,1.227-1.716,1.227c-0.558,0-4.746-3.679-14.353-12.604
	c-2.041-1.896-3.883-3.451-4.093-3.461c-0.597-0.021-1.118,4.982-0.737,7.072c0.235,1.296,2.164,3.729,6.205,7.828l5.861,5.949
	l-1.764,1.938l-1.764,1.938l-4.02-3.434l-4.02-3.432l-0.184,4.047L216.1,295h-2.416h-2.416L211.082,290.835L211.082,290.835z
	 M65.052,253.252c-0.214-0.557-0.388-2.819-0.388-5.031c0-2.211-0.227-3.928-0.504-3.813c-0.277,0.112-2.36,1.18-4.629,2.369
	c-4.56,2.394-6.137,2.203-6.497-0.779c-0.205-1.709,1.676-3.281,8.383-7.004c3.043-1.688,3.246-1.949,3.247-4.188
	c0-2.03-0.16-2.316-1.082-1.933c-4.13,1.724-4.387,1.767-5.392,0.933c-1.98-1.644-0.921-3.865,2.919-6.131
	c3.372-1.988,3.555-2.223,3.555-4.531c0-2.371-0.049-2.426-1.807-2.039c-1.575,0.347-1.767,0.242-1.492-0.809
	c0.173-0.663,0.021-1.389-0.338-1.609c-0.685-0.424-4.354,1.204-4.465,1.98c-0.076,0.525-0.397,5.393-0.49,7.42
	c-0.081,1.762-2.671,2.915-4.433,1.973c-0.874-0.469-1.196-1.301-1.196-3.092c0-2.617-0.331-2.839-2.664-1.775
	c-1.387,0.633-1.509,1.092-1.842,6.957c-0.422,7.417-0.704,8.331-2.726,8.839c-2.427,0.608-3.318-0.872-3.719-6.176l-0.357-4.729
	l-3.422,1.854c-3.771,2.043-5.756,2.316-6.887,0.955c-1.288-1.553-0.117-3.209,3.702-5.244c2.031-1.084,3.693-2.162,3.693-2.397
	s-1.183-1.058-2.628-1.825s-3.412-2.021-4.37-2.786c-1.542-1.231-1.668-1.586-1.098-3.087c0.923-2.426,2.732-2.2,9.573,1.198
	c5.805,2.884,5.829,2.89,7.522,1.778l1.699-1.112l-2.413-2.044c-1.992-1.688-2.297-2.234-1.753-3.131
	c1.467-2.41,2.516-2.472,6.739-0.388c3.973,1.96,4.063,1.974,6.2,0.953c2.484-1.185,2.674-1.728,0.932-2.66
	c-0.68-0.364-1.236-0.911-1.236-1.217s0.556-0.729,1.236-0.947c1.777-0.563,1.536-1.174-0.932-2.351
	c-2.137-1.021-2.227-1.006-6.2,0.953c-4.224,2.084-5.272,2.022-6.739-0.389c-0.543-0.895-0.251-1.431,1.659-3.051
	c1.275-1.081,2.319-2.141,2.319-2.354s-0.801-0.722-1.78-1.125c-1.614-0.67-2.304-0.476-7.408,2.088
	c-6.035,3.031-7.517,3.348-8.954,1.91c-1.585-1.586-0.443-3.359,3.691-5.738c2.167-1.246,3.939-2.469,3.939-2.717
	c0-0.246-1.651-1.33-3.668-2.404c-3.966-2.113-4.717-3.115-3.728-4.965c0.912-1.704,3.184-1.484,7.014,0.676l3.309,1.869
	l0.301-4.693c0.358-5.569,1.333-7.055,4.019-6.109c1.986,0.697,2.554,2.857,2.611,9.934c0.032,3.986,0.182,4.509,1.56,5.41
	c2.292,1.502,2.804,1.237,2.804-1.453c0-2.354,1.109-3.73,3.007-3.73c1.336,0,2.558,2.052,2.558,4.295
	c0,4.377,0.669,6.211,2.638,7.229c1.918,0.991,2.893,0.498,2.917-1.478c0.012-0.938,0.353-0.964,1.905-0.133
	c1.098,0.588,1.196,0.418,1.196-2.077c0-2.653-0.084-2.768-3.555-4.813c-2.773-1.635-3.599-2.471-3.75-3.793
	c-0.28-2.428,2.051-3.453,4.716-2.074c2.57,1.33,2.59,1.318,2.585-1.33c-0.004-2.26-0.135-2.395-5.176-5.252
	c-5.852-3.316-6.747-4.162-6.461-6.091c0.413-2.786,1.984-2.877,6.989-0.399l4.652,2.302l0.009-4.169
	c0.012-5.117,0.432-5.865,3.147-5.605l2.099,0.201l0.181,4.792c0.099,2.636,0.351,4.792,0.559,4.792s2.165-0.999,4.348-2.22
	c4.324-2.419,6.567-2.48,7.163-0.2c0.571,2.184-0.134,2.956-5.677,6.225c-5.92,3.49-6.241,3.811-6.255,6.244
	c-0.011,1.949,0.55,2.082,3.144,0.74c2.303-1.19,4.145-0.668,4.644,1.317c0.487,1.938-0.131,2.633-4.368,4.897
	c-3.403,1.818-3.467,1.902-3.295,4.328c0.174,2.457,0.422,2.642,2.494,1.835c0.815-0.317,1.082-0.109,1.082,0.845
	c0,1.846,0.88,2.104,3.003,0.887c1.704-0.979,1.912-1.447,2.263-5.104c0.212-2.215,0.5-4.381,0.638-4.813
	c0.391-1.224,2.063-1.608,3.72-0.854c1.232,0.563,1.506,1.139,1.506,3.174c0,2.816,0.018,2.829,2.504,1.543
	c1.819-0.94,1.824-0.96,1.833-6.646c0.01-6.307,0.797-8.686,2.978-8.997c2.515-0.36,3.197,0.885,3.197,5.843
	c0,2.83,0.251,4.563,0.662,4.563c0.364,0,2.303-0.905,4.308-2.01c4.167-2.297,5.851-1.974,5.851,1.127
	c0,1.497-0.516,2.054-3.401,3.665c-1.87,1.045-3.4,2.146-3.4,2.444s1.669,1.563,3.71,2.808c3.829,2.336,4.852,4.129,3.372,5.912
	c-1.198,1.444-2.896,1.06-8.352-1.89c-5.556-3.004-6.723-3.248-8.624-1.805c-1.224,0.93-1.22,0.951,0.309,2.131
	c0.85,0.655,1.754,1.197,2.01,1.205c0.255,0.008,0.464,0.854,0.464,1.884c0,1.37-0.395,2.048-1.482,2.543
	c-1.249,0.567-2.082,0.356-5.284-1.351c-3.742-1.996-3.836-2.012-5.938-1.009c-2.475,1.181-2.677,1.942-0.782,2.956l1.354,0.725
	l-1.401,1.137c-1.631,1.318-1.398,1.961,1.081,2.988c1.599,0.662,2.224,0.527,5.672-1.213c3.21-1.621,4.125-1.842,5.328-1.295
	c2.212,1.008,1.978,3.82-0.437,5.246c-2.194,1.297-2.104,2.309,0.283,3.151c1.457,0.515,2.501,0.171,7.447-2.452
	c5.174-2.746,5.916-2.979,7.375-2.313c2.701,1.229,2.19,3.524-1.271,5.72c-1.591,1.01-3.415,2-4.053,2.202
	c-1.778,0.563-1.007,1.629,2.667,3.683c2.815,1.572,3.382,2.184,3.542,3.813c0.291,2.965-1.622,3.235-6.136,0.869
	c-2.011-1.055-3.931-1.916-4.266-1.916c-0.344,0-0.609,1.961-0.609,4.514c0,4.815-0.565,5.998-2.871,5.998
	c-2.499,0-3.313-2.156-3.313-8.779v-6.029l-1.824-0.942c-2.477-1.28-2.504-1.267-2.504,1.406c0,2.659-0.866,3.834-2.83,3.834
	c-2.036,0-2.667-1.218-3.111-6c-0.39-4.2-0.482-4.398-2.508-5.364c-2.7-1.287-2.68-1.292-2.68,0.609c0,1.283-0.22,1.525-1.082,1.189
	c-2.06-0.802-2.32-0.628-2.511,1.684c-0.185,2.238-0.056,2.406,3.543,4.639c3.931,2.438,4.631,3.327,4.052,5.153
	c-0.522,1.646-2.372,1.979-4.959,0.899c-1.257-0.525-2.39-0.955-2.519-0.955c-0.129,0-0.234,0.961-0.234,2.136
	c0,2.038,0.266,2.294,5.826,5.612c6.069,3.622,6.679,4.263,6.115,6.421c-0.6,2.296-2.84,2.218-7.258-0.253
	c-4.631-2.591-4.569-2.635-4.823,3.396l-0.169,4.02l-2.24,0.188C66.057,254.211,65.332,253.984,65.052,253.252L65.052,253.252z
	 M69.966,215.387c0.366-0.25,1.156-1.3,1.757-2.334c1.06-1.824,1.053-1.944-0.262-4.174c-1.187-2.012-1.646-2.295-3.716-2.295
	c-2.037,0-2.548,0.302-3.714,2.188c-1.185,1.917-1.257,2.416-0.587,4.033c0.42,1.015,1.215,2.108,1.766,2.431
	C66.407,215.938,69.039,216.02,69.966,215.387z M57.079,142.742l-7.27-6.87l5.882-5.986c5.438-5.536,5.881-6.172,5.881-8.443
	c0-1.353-0.191-2.648-0.426-2.883c-0.235-0.234-1.556,0.675-2.937,2.021l-2.511,2.447l-1.519-1.244l-1.519-1.245l4.456-4.36
	l4.456-4.36l-0.009-3.476c-0.005-1.911-0.214-3.778-0.464-4.148c-0.305-0.451-1.658-0.045-4.116,1.236
	c-3.612,1.885-3.676,1.965-4.732,5.93c-0.589,2.211-1.243,4.784-1.452,5.72c-0.417,1.865-0.758,1.987-3.077,1.105
	c-1.558-0.592-1.561-0.604-0.666-3.556c0.494-1.628,0.902-3.186,0.905-3.46c0.003-0.274-1.338,0.257-2.981,1.181
	c-2.847,1.601-3.025,1.858-3.757,5.446c-0.749,3.665-2.21,8.925-3.044,10.954c-0.371,0.902-1.158,0.824-7.833-0.78
	c-12.575-3.022-12.238-2.865-11.816-5.503c0.199-1.242,0.762-3.623,1.25-5.292c0.489-1.668,1.356-4.902,1.926-7.187l1.037-4.153
	l2.874,0.357c1.581,0.196,4.026,0.729,5.434,1.186c4.981,1.612,8.725,1.78,11.377,0.51c1.339-0.642,2.438-1.33,2.441-1.531
	c0.004-0.2-1.523-0.731-3.394-1.181c-3.443-0.826-4.09-1.664-2.825-3.662c0.475-0.749,1.369-0.677,6.03,0.488l5.474,1.368
	l2.771-1.576c1.524-0.867,3.258-1.745,3.854-1.952c1.852-0.644,1.218-1.412-2.782-3.383l-3.865-1.905l-5.551,1.565
	c-5.822,1.641-6.696,1.486-6.356-1.12c0.116-0.89,1.057-1.471,3.544-2.188l3.386-0.979l-2.988-1.67l-2.988-1.67l-8.268,2.364
	l-8.267,2.364l-0.612-1.907c-0.336-1.049-0.883-3.021-1.215-4.38c-0.864-3.54-2.965-10.948-3.449-12.162
	c-0.434-1.089-0.608-1.023,13.501-5.11c3.009-0.872,5.695-1.446,5.968-1.278c0.464,0.287,1.552,3.595,4.017,12.212
	c0.886,3.097,1.357,3.755,3.656,5.103c2.932,1.718,3.961,1.971,2.92,0.716c-0.379-0.457-0.761-2.169-0.849-3.806
	c-0.147-2.751-0.036-3.009,1.48-3.428c1.542-0.427,1.683-0.284,2.382,2.414c2.133,8.236,2.252,8.438,6.211,10.515
	c2.034,1.065,3.832,1.938,3.997,1.938c0.166,0,0.3-1.92,0.3-4.267V85.51l-4.483-4.029l-4.483-4.03l1.483-1.58l1.484-1.58
	l2.845,2.771l2.845,2.771l0.19-3.183l0.19-3.183l-4.012-3.839c-2.207-2.111-5.075-4.703-6.374-5.76l-2.361-1.921l7.282-7.22
	c8.332-8.262,6.712-8.082,13.419-1.492c1.904,1.87,4.65,4.458,6.103,5.751l2.641,2.35l-5.952,5.633l-5.952,5.632l0.143,2.839
	c0.079,1.561,0.269,3.072,0.422,3.359c0.154,0.287,1.445-0.622,2.871-2.021l2.591-2.543l1.344,1.431l1.344,1.432l-4.325,4.292
	l-4.325,4.292l0.086,4.183c0.047,2.301,0.205,4.183,0.351,4.183s1.924-0.891,3.952-1.979c3.606-1.936,3.712-2.066,4.849-6.028
	c0.64-2.228,1.342-4.842,1.562-5.811c0.352-1.55,0.6-1.711,2.073-1.348c2.539,0.627,2.754,1.154,1.628,3.97
	c-0.57,1.425-0.864,2.764-0.654,2.974c0.424,0.424,4.607-1.642,5.188-2.562c0.418-0.662,3.842-12.999,4.128-14.877
	c0.104-0.68,0.434-1.19,0.732-1.135c1.022,0.189,9.195,2.198,12.292,3.021c1.7,0.451,3.996,0.999,5.101,1.217
	c2.462,0.486,2.545,1.425,0.725,8.195c-1.474,5.481-3.213,11.487-3.412,11.781c-0.074,0.11-3.013-0.505-6.53-1.366
	c-7.995-1.958-10.213-2.098-12.694-0.801c-3.022,1.581-2.905,2.025,0.755,2.845c2.459,0.55,3.376,1.039,3.37,1.794
	c-0.023,2.485-0.766,2.69-5.913,1.627c-2.689-0.556-5.07-1.122-5.292-1.26c-1.16-0.717-9.076,3.844-8.157,4.7
	c1.563,1.454,7.57,4.087,8.342,3.655c0.48-0.269,2.532-0.889,4.56-1.378c2.028-0.489,4.141-1.082,4.695-1.317
	c0.744-0.315,1.172,0.044,1.636,1.374c0.595,1.706,0.505,1.856-1.68,2.82c-1.269,0.561-2.91,1.019-3.646,1.019
	s-1.338,0.278-1.338,0.618c0,0.34,0.519,0.618,1.153,0.618c0.634,0,1.855,0.553,2.712,1.227c1.722,1.354,0.852,1.505,14.375-2.489
	l3.71-1.096l0.792,1.839c0.435,1.012,1.183,3.281,1.661,5.044c0.478,1.763,1.444,5.219,2.146,7.681
	c1.52,5.33,1.503,5.108,0.375,5.108c-1.092,0-12.014,3.064-13.342,3.744c-0.521,0.267-2.098,0.656-3.501,0.865
	c-2.491,0.372-2.564,0.332-2.997-1.65c-0.817-3.738-4.073-13.153-4.81-13.906c-0.401-0.409-1.744-1.166-2.985-1.683l-2.256-0.938
	l0.959,3c1.139,3.562,0.75,5.003-1.35,5.003c-1.287,0-1.658-0.432-2.257-2.628c-2.26-8.289-2.254-8.276-5.873-9.99
	c-1.863-0.882-3.658-1.604-3.989-1.604s-0.602,1.798-0.602,3.994c0,3.968,0.02,4.013,2.937,6.736
	c1.615,1.509,3.63,3.302,4.478,3.985c1.52,1.226,1.525,1.261,0.368,2.538c-1.549,1.712-1.807,1.664-4.609-0.868
	c-1.318-1.19-2.571-2.164-2.785-2.164c-0.213,0-0.396,1.183-0.406,2.628c-0.017,2.538,0.201,2.834,6.338,8.647l6.355,6.019
	l-6.454,6.202c-3.549,3.411-6.89,6.596-7.423,7.079C64.461,149.511,63.5,148.812,57.079,142.742L57.079,142.742z M68.2,139.051
	c2.956-2.919,4.042-4.79,2.802-4.827c-0.255-0.007-1.826-1.258-3.491-2.778l-3.027-2.765l-2.847,2.598
	c-4.864,4.438-4.843,4.294-1.149,7.846c1.787,1.719,3.519,3.132,3.848,3.139C64.664,142.27,66.403,140.824,68.2,139.051z
	 M35.122,121.561c0.976-3.408,1.538-7.729,1.006-7.729c-0.29,0-0.595,0-0.681,0c-0.085,0-2.084-0.551-4.442-1.226
	c-2.358-0.674-4.327-1.161-4.374-1.083c-0.361,0.604-1.673,6.687-1.752,8.123c-0.092,1.686,0.13,1.862,3.612,2.875
	C33.456,123.966,34.476,123.818,35.122,121.561z M99.967,121.191c2.348-0.713,4.27-1.519,4.27-1.787c0-0.271-0.55-1.704-1.223-3.188
	c-0.672-1.482-1.229-3.466-1.236-4.407c-0.015-1.921-0.003-1.921-6.985,0.057c-3.276,0.928-3.55,1.141-3.323,2.58
	c0.491,3.119,2.564,8.042,3.387,8.042C95.319,122.488,97.619,121.904,99.967,121.191z M32.355,85.279
	c2.125-0.746,3.865-1.689,3.865-2.095c0-1.886-3.064-8.602-3.822-8.378c-0.448,0.133-2.485,0.639-4.525,1.125
	c-2.04,0.485-3.915,1.083-4.165,1.327c-0.25,0.243,0.098,1.897,0.773,3.674c0.675,1.777,1.228,3.785,1.228,4.461
	C25.708,87.031,27.453,87.001,32.355,85.279z M101.773,82.641c0.005-0.699,0.396-2.385,0.87-3.744
	c0.975-2.803,0.807-3.402-0.954-3.402c-0.681,0-2.609-0.448-4.285-0.996c-1.675-0.549-3.397-0.861-3.826-0.696
	c-0.762,0.293-1.9,3.704-2.574,7.714c-0.301,1.794-0.162,2.038,1.347,2.354c0.926,0.193,3.075,0.721,4.775,1.172
	c2.717,0.721,3.186,0.702,3.865-0.153C101.415,84.353,101.768,83.342,101.773,82.641z M67.027,64.763l3.291-3.272l-3.6-3.489
	l-3.6-3.49l-3.56,3.521c-1.958,1.936-3.488,3.735-3.401,3.998c0.173,0.521,6.765,5.944,7.27,5.982
	C63.597,68.024,65.217,66.563,67.027,64.763z M192.999,121.894c0.132-5.088,0.017-9.388-0.254-9.555s-3.632,1.795-7.469,4.358
	c-3.839,2.565-7.2,4.43-7.474,4.145c-0.271-0.284-1.189-2.243-2.039-4.353l-1.545-3.835l2.264-0.731
	c5.941-1.92,12.708-7.39,15.23-12.313c3.275-6.394,4.291-14.419,2.739-21.654c-0.552-2.569-0.871-3.087-1.7-2.749
	c-0.563,0.229-1.773,0.643-2.693,0.92c-3.607,1.084-9.608,4.759-12.59,7.708c-1.815,1.798-4.023,4.912-5.256,7.416
	c-2.068,4.203-2.123,4.513-2.117,11.839l0.006,7.523l-2.479,0.349c-1.362,0.191-3.423,0.541-4.573,0.776l-2.097,0.429l0.419-7.051
	c0.23-3.878,0.57-7.816,0.754-8.752c0.184-0.935,0.063-1.7-0.271-1.7s-4.114,2.077-8.402,4.616l-7.798,4.616l-1.422-2.298
	c-3.989-6.444-4.229-6.936-3.409-6.94c2.051-0.015,15.886-7.67,15.947-8.824c0.014-0.265-3.453-2.179-7.704-4.252
	s-7.72-3.942-7.709-4.154c0.011-0.213,1.38-1.916,3.044-3.787l3.023-3.4l1.749,1.602c4.428,4.058,11.499,6.819,17.516,6.845
	c6.896,0.028,14.699-3.269,21.333-9.012l1.854-1.605l-2.164-1.885c-5.324-4.635-11.151-7.476-17.899-8.724
	c-5.812-1.074-14.97,1.84-20.191,6.425l-2.272,1.995l-2.421-2.767c-4.203-4.805-4.441-4.317,4.163-8.532
	c4.237-2.077,7.699-3.994,7.694-4.261c-0.016-0.705-10.427-6.835-13.755-8.1l-2.831-1.074l2.627-4.313
	c1.445-2.372,2.768-4.313,2.939-4.313c0.171,0,3.703,2.018,7.848,4.483c4.146,2.465,7.831,4.482,8.19,4.482
	c0.383,0,0.516-0.706,0.32-1.7c-0.184-0.937-0.523-4.874-0.754-8.751l-0.419-7.051l2.097,0.428c1.15,0.235,3.223,0.587,4.601,0.78
	l2.505,0.353l-0.031,7.507c-0.031,7.2,0.049,7.679,1.951,11.696c2.755,5.814,7.213,10.111,13.799,13.298
	c7.947,3.846,7.789,3.844,8.586,0.129c2.234-10.421-0.65-21.081-7.47-27.594c-2.547-2.433-9.263-6.404-10.834-6.407
	c-0.403-0.001-0.913-0.289-1.13-0.64c-0.477-0.77,2.254-8.637,2.997-8.637c0.286,0,3.438,1.964,7.003,4.363
	c3.563,2.4,6.857,4.508,7.316,4.686c0.688,0.264,0.809-1.407,0.666-9.311l-0.174-9.632l5.014-0.001L202.862,5l-0.199,9.663
	l-0.198,9.664l2.362-1.448c1.3-0.797,4.53-2.919,7.181-4.716c2.647-1.797,5.045-3.267,5.326-3.267c0.282,0,1.19,1.901,2.02,4.227
	l1.507,4.228l-4.671,2.087c-12.152,5.43-17.951,17.427-15.428,31.921c0.375,2.153,0.787,3.915,0.914,3.915s2.03-0.678,4.23-1.506
	c8.177-3.077,14.115-8.206,17.505-15.112c1.588-3.236,1.707-4.019,1.709-11.264l0.002-7.784l4.224-0.724
	c2.322-0.398,4.41-0.607,4.641-0.466c0.229,0.142,0.175,3.914-0.123,8.383c-0.298,4.469-0.387,8.279-0.195,8.469
	c0.188,0.189,3.873-1.783,8.188-4.384s7.902-4.646,7.975-4.547c0.184,0.257,4.813,8.127,5.098,8.665
	c0.129,0.245-0.541,0.626-1.489,0.846c-2.024,0.47-15.009,7.77-15.017,8.441c-0.002,0.253,3.475,2.155,7.726,4.229
	c4.251,2.073,7.729,3.915,7.729,4.094c0,0.179-1.17,1.754-2.599,3.502c-1.429,1.747-2.683,3.293-2.782,3.437
	c-0.102,0.142-1.238-0.589-2.525-1.623c-3.539-2.845-8.465-5.127-13.193-6.112c-7.301-1.522-14.773,0.647-22.771,6.612
	c-2.396,1.789-4.358,3.423-4.358,3.632c0,1.108,9.954,7.701,13.521,8.955c9.325,3.28,17.342,1.932,26.268-4.419
	c1.648-1.173,3.054-2.044,3.121-1.936c0.068,0.108,1.293,1.627,2.723,3.375c1.43,1.747,2.598,3.353,2.598,3.566
	c0,0.213-3.478,2.07-7.729,4.125s-7.729,3.845-7.729,3.978c0,0.808,11.375,7.312,15.313,8.755l1.4,0.514l-2.328,3.941
	c-1.28,2.167-2.683,4.077-3.115,4.245c-0.432,0.167-4.098-1.677-8.145-4.097c-4.048-2.419-7.548-4.399-7.777-4.399
	c-0.325,0,0.119,13.329,0.546,16.386c0.095,0.677-1.369,0.676-6.097-0.002l-3.092-0.442v-7.816c0-7.322-0.111-8.04-1.744-11.369
	c-2.861-5.828-6.98-9.791-13.554-13.038c-8.608-4.253-8.249-4.269-9.062,0.39c-0.942,5.421-0.858,9.23,0.313,13.998
	c2.069,8.423,7.063,14.306,15.281,18.005l4.597,2.068l-1.524,4.05c-0.838,2.229-1.637,4.165-1.774,4.304
	c-0.14,0.14-3.452-1.878-7.362-4.482c-3.912-2.605-7.322-4.737-7.58-4.737c-0.258-0.001-0.401,1.6-0.322,3.556
	c0.08,1.956,0.22,6.27,0.31,9.586l0.164,6.028h-5.05l-5.051-0.001L192.999,121.894L192.999,121.894z"/>
</svg>
